SplineFontDB: 3.2
FontName: AltStandard-Bold
FullName: Alt Standard Bold
FamilyName: Alt Standard
Weight: Bold
Copyright: Copyright (c) 2006-2011 Alexey Kryukov <amkryukov@gmail.com>,\nwithout Reserved Font Names.\n\nCopyright (c) 2019-2021, Robert Alessi <alessi@robertalessi.net>,\nwithout Reserved Font Names.\n\nCopyright (c) 2023, Antonis Tslomitis <atsol@aegean.gr>,\nwithout Reserved Font Names.\n\nThis Font Software is licensed under the SIL Open Font License, Version 1.1.\nThis license is copied below, and is also available with a FAQ at:\nhttp://scripts.sil.org/OFL\n\nCopyright (c) 2025, Ioannes Bracmanus, without Reserved Font Names.
Version: 2.7a
ItalicAngle: 0
UnderlinePosition: -158
UnderlineWidth: 40
Ascent: 762
Descent: 238
InvalidEm: 0
sfntRevision: 0x0002b333
LayerCount: 2
Layer: 0 0 "Atr+AOEA-s" 1
Layer: 1 0 "Fore" 0
XUID: [1021 149 -1843968052 2309041]
StyleMap: 0x0020
FSType: 0
OS2Version: 4
OS2_WeightWidthSlopeOnly: 0
OS2_UseTypoMetrics: 1
CreationTime: 1300650174
ModificationTime: 1775097771
PfmFamily: 17
TTFWeight: 700
TTFWidth: 5
LineGap: 236
VLineGap: 0
Panose: 2 4 5 3 5 5 5 2 3 3
OS2TypoAscent: 762
OS2TypoAOffset: 0
OS2TypoDescent: -238
OS2TypoDOffset: 0
OS2TypoLinegap: 236
OS2WinAscent: 952
OS2WinAOffset: 0
OS2WinDescent: 294
OS2WinDOffset: 0
HheadAscent: 952
HheadAOffset: 0
HheadDescent: -294
HheadDOffset: 0
OS2SubXSize: 640
OS2SubYSize: 660
OS2SubXOff: 0
OS2SubYOff: 480
OS2SupXSize: 640
OS2SupYSize: 660
OS2SupXOff: 0
OS2SupYOff: 0
OS2StrikeYSize: 40
OS2StrikeYPos: 212
OS2CapHeight: 712
OS2XHeight: 474
OS2FamilyClass: 768
OS2Vendor: 'PfEd'
OS2CodePages: 200000bf.00000000
OS2UnicodeRanges: e0000aff.520120ff.02000000.00000000
Lookup: 1 0 0 "'smcp' Lowercase to Small Capitals lookup 0" { "'smcp' Lowercase to Small Capitals lookup 0 subtable"  } ['smcp' ('cyrl' <'dflt' > 'grek' <'dflt' > 'latn' <'dflt' > ) ]

StartChar: .notdef
Encoding: 1114112 -1 0
Width: 500
GlyphClass: 1
Flags: MW
HStem: 0 32<124 368 368 374 124 458> 682 32<117 124 124 368>
VStem: 42 38<54.5 77 77 637> 420 38<81 633 633 657.5>
LayerCount: 2
Fore
SplineSet
42 0 m 1
 42 714 l 1
 458 714 l 1
 458 0 l 1
 42 0 l 1
80 77 m 2
 80 32 110 32 124 32 c 2
 368 32 l 2
 380 32 420 32 420 81 c 2
 420 633 l 2
 420 682 380 682 368 682 c 2
 124 682 l 2
 110 682 80 682 80 637 c 2
 80 77 l 2
EndSplineSet
EndChar

StartChar: exclam
Encoding: 33 33 2
Width: 280
GlyphClass: 2
Flags: MW
HStem: -12 156<117.5 162.5> 710 20G<117 163>
VStem: 62 156<43.5 88.5>
LayerCount: 2
Fore
SplineSet
62 66 m 0
 62 111 95 144 140 144 c 0
 185 144 218 111 218 66 c 0
 218 21 185 -12 140 -12 c 0
 95 -12 62 21 62 66 c 0
58 632 m 0
 58 696 94 730 140 730 c 0
 186 730 222 696 222 632 c 0
 222 546 179 440 168 350 c 2
 152 205 l 1
 128 205 l 1
 112 350 l 2
 105 427 58 543 58 632 c 0
EndSplineSet
EndChar

StartChar: quotedbl
Encoding: 34 34 3
Width: 394
GlyphClass: 2
Flags: MW
HStem: 482 248<105 135 105 142 98 135 105 252 259 289 105 296>
VStem: 72 96<667 690> 226 96<667 690>
LayerCount: 2
Fore
SplineSet
72 672 m 0
 72 708 90 730 120 730 c 0
 150 730 168 708 168 672 c 0
 168 662 164 628 163 621 c 2
 142 482 l 1
 98 482 l 1
 77 621 l 2
 76 628 72 662 72 672 c 0
226 672 m 0
 226 708 244 730 274 730 c 0
 304 730 322 708 322 672 c 0
 322 662 318 628 317 621 c 2
 296 482 l 1
 252 482 l 1
 231 621 l 2
 230 628 226 662 226 672 c 0
EndSplineSet
EndChar

StartChar: numbersign
Encoding: 35 35 4
Width: 712
GlyphClass: 2
Flags: MW
HStem: 0 21G<150 216 150 150 382 448 382 382> 182 64<66 189 66 179 66 245 255 410 487 637> 464 64<72 223 72 233 299 455 72 289 531 646> 692 20G<262 328 328 328 494 560 560 560>
LayerCount: 2
Fore
SplineSet
255 246 m 1
 421 246 l 1
 455 464 l 1
 289 464 l 1
 255 246 l 1
66 182 m 1
 66 246 l 1
 189 246 l 1
 223 464 l 1
 72 464 l 1
 72 528 l 1
 233 528 l 1
 262 712 l 1
 328 712 l 1
 299 528 l 1
 465 528 l 1
 494 712 l 1
 560 712 l 1
 531 528 l 1
 646 528 l 1
 646 464 l 1
 521 464 l 1
 487 246 l 1
 637 246 l 1
 637 182 l 1
 477 182 l 1
 448 0 l 1
 382 0 l 1
 410 182 l 1
 245 182 l 1
 216 0 l 1
 150 0 l 1
 179 182 l 1
 66 182 l 1
EndSplineSet
EndChar

StartChar: dollar
Encoding: 36 36 5
Width: 580
GlyphClass: 2
Flags: MW
HStem: -16 32<294 308> -9 33<226 226> 688 33<374 374> 696 32<296.5 307.5>
VStem: 52 62<111.5 133 89.5 194> 76 76<569.5 584.5> 226 32<-84 -14 -84 -9 -84 -9 24 300 491 682 682 682 725 796> 342 32<-84 -13 -13 -13 27 228 419 688 726 796> 446 80<132.5 152> 476 52<592.5 609.5 540 620>
LayerCount: 2
Fore
SplineSet
374 27 m 1x0380
 429 47 446 89 446 121 c 0
 446 183 399 213 374 228 c 1
 374 27 l 1x0380
152 589 m 0x07
 152 550 179 518 226 491 c 1
 226 682 l 1
 182 665 152 631 152 589 c 0x07
258 18 m 1
 272 17 286 16 301 16 c 0x83
 316 16 330 17 342 19 c 1
 342 248 l 1
 258 300 l 1
 258 18 l 1
258 471 m 1
 342 419 l 1
 342 693 l 1
 329 695 315 696 300 696 c 0x13
 285 696 271 695 258 692 c 1
 258 471 l 1
184 210 m 0
 184 136 114 158 114 108 c 0x4b80
 114 71 159 38 226 24 c 1
 226 320 l 1
 173 353 l 2
 128 381 76 431 76 527 c 0
 76 642 148 698 226 718 c 1
 226 796 l 1
 258 796 l 1
 258 725 l 1
 274 727 289 728 304 728 c 0x57
 317 728 330 727 342 726 c 1
 342 796 l 1
 374 796 l 1
 374 721 l 1
 460 704 528 653 528 566 c 0
 528 514 501 458 456 458 c 0
 420 458 399 480 399 508 c 0
 399 535 419 554 438 563 c 0
 461 574 476 582 476 603 c 0x2740
 476 637 438 672 374 688 c 1
 374 399 l 1
 413 375 l 2
 481 333 526 276 526 189 c 0
 526 76 457 15 374 -7 c 1
 374 -84 l 1
 342 -84 l 1
 342 -13 l 1
 328 -15 315 -16 301 -16 c 0xa380
 287 -16 273 -16 258 -14 c 1
 258 -84 l 1
 226 -84 l 1
 226 -9 l 1
 137 7 52 57 52 166 c 0x4b80
 52 222 87 260 131 260 c 0
 161 260 184 235 184 210 c 0
EndSplineSet
EndChar

StartChar: percent
Encoding: 37 37 6
Width: 860
GlyphClass: 2
Flags: MW
HStem: -16 20<612 644 612 664> 330 20<612 644> 364 20<214 246 214 266> 710 20<214 246>
VStem: 90 96<490 602> 276 96<490 602 490 607> 488 96<110 222> 674 96<110 222 110 227>
LayerCount: 2
Fore
SplineSet
90 546 m 0
 90 658 158 730 230 730 c 0
 302 730 372 658 372 546 c 0
 372 434 302 364 230 364 c 0
 158 364 90 434 90 546 c 0
186 546 m 0
 186 424 198 384 230 384 c 0
 262 384 276 424 276 546 c 0
 276 668 262 710 230 710 c 0
 198 710 186 668 186 546 c 0
488 166 m 0
 488 278 556 350 628 350 c 0
 700 350 770 278 770 166 c 0
 770 54 700 -16 628 -16 c 0
 556 -16 488 54 488 166 c 0
584 166 m 0
 584 44 596 4 628 4 c 0
 660 4 674 44 674 166 c 0
 674 288 660 330 628 330 c 0
 596 330 584 288 584 166 c 0
188 -18 m 1
 620 730 l 1
 670 730 l 1
 238 -18 l 1
 188 -18 l 1
EndSplineSet
EndChar

StartChar: ampersand
Encoding: 38 38 7
Width: 786
GlyphClass: 2
Flags: MW
HStem: -18 60<190 363.5 637.5 641.5> 358 32<531 569 531 742 707.5 734 734 742> 699 32<342.5 384.5>
VStem: 44 140<144 186.5> 192 92<593.5 619> 436 44<577.5 632.5 568 638.5>
LayerCount: 2
Fore
SplineSet
284 622 m 0
 284 565 294 543 344 463 c 1
 393 500 436 540 436 615 c 0
 436 662 407 699 362 699 c 0
 323 699 284 671 284 622 c 0
184 193 m 0
 184 95 271 42 340 42 c 0
 387 42 429 62 459 88 c 1
 273 369 l 1
 212 313 184 278 184 193 c 0
44 141 m 0
 44 232 118 304 230 382 c 2
 253 398 l 1
 242 415 l 2
 210 464 192 498 192 566 c 0
 192 672 273 731 361 731 c 0
 450 731 480 658 480 607 c 0
 480 529 429 482 363 433 c 1
 539 169 l 1
 580 218 607 281 607 318 c 0
 607 344 589 358 569 358 c 2
 531 358 l 1
 531 390 l 1
 742 390 l 1
 742 358 l 1
 734 358 l 2
 681 358 654 303 646 286 c 0
 625 242 596 186 558 142 c 1
 591 86 620 42 655 42 c 0
 684 42 704 73 720 105 c 1
 740 95 l 1
 726 54 680 -18 603 -18 c 0
 558 -18 509 14 477 61 c 1
 433 25 337 -18 248 -18 c 0
 132 -18 44 37 44 141 c 0
EndSplineSet
EndChar

StartChar: quotesingle
Encoding: 39 39 8
Width: 240
GlyphClass: 2
Flags: MW
HStem: 482 248<105 135 105 142 98 135>
VStem: 72 96<667 690>
LayerCount: 2
Fore
SplineSet
72 672 m 0
 72 708 90 730 120 730 c 0
 150 730 168 708 168 672 c 0
 168 662 164 628 163 621 c 2
 142 482 l 1
 98 482 l 1
 77 621 l 2
 76 628 72 662 72 672 c 0
EndSplineSet
EndChar

StartChar: parenleft
Encoding: 40 40 9
Width: 370
GlyphClass: 2
Flags: MW
HStem: 710 20G<338 338>
VStem: 60 136<168 364>
LayerCount: 2
Fore
SplineSet
60 266 m 0
 60 462 162 618 338 730 c 1
 354 704 l 1
 234 608 196 530 196 408 c 2
 196 124 l 2
 196 2 234 -76 354 -172 c 1
 338 -198 l 1
 162 -86 60 70 60 266 c 0
EndSplineSet
EndChar

StartChar: parenright
Encoding: 41 41 10
Width: 370
GlyphClass: 2
Flags: MW
HStem: 710 20G<32 32>
VStem: 174 136<168 364 168 408 168 469>
LayerCount: 2
Fore
SplineSet
16 -172 m 1
 136 -76 174 2 174 124 c 2
 174 408 l 2
 174 530 136 608 16 704 c 1
 32 730 l 1
 208 618 310 462 310 266 c 0
 310 70 208 -86 32 -198 c 1
 16 -172 l 1
EndSplineSet
EndChar

StartChar: asterisk
Encoding: 42 42 11
Width: 502
GlyphClass: 2
Flags: MW
HStem: 369 98<117 128 371.5 393> 468 54<233 238 233 238 272 277> 523 98<117 138.5 103.5 151.5 382 393>
VStem: 209 92<322 357 633 668> 223 64<492 498> 243 24<424 459.5 530.5 566>
CounterMasks: 1 e0
LayerCount: 2
Fore
SplineSet
209 335 m 0xf0
 209 379 243 395 243 453 c 0xe4
 243 466 241 468 235 468 c 0
 224 468 197 444 174 410 c 0
 159 388 140 369 116 369 c 0
 91 369 70 389 70 415 c 0
 70 446 95 467 139 467 c 0
 164 467 194 472 213 484 c 1
 213 484 223 489 223 495 c 0xe8
 223 501 213 506 213 506 c 1
 194 518 164 523 139 523 c 0
 95 523 70 544 70 575 c 0
 70 601 91 621 116 621 c 0
 161 621 172 565 221 528 c 0
 224 526 231 522 235 522 c 0
 241 522 243 524 243 537 c 0xe4
 243 595 209 611 209 655 c 0
 209 681 229 700 255 700 c 0
 281 700 301 681 301 655 c 0xf0
 301 611 267 595 267 537 c 0xe4
 267 524 269 522 275 522 c 0
 286 522 313 546 336 580 c 0
 351 602 370 621 394 621 c 0
 419 621 440 601 440 575 c 0
 440 544 415 523 371 523 c 0
 346 523 316 518 297 506 c 1
 297 506 287 501 287 495 c 0xe8
 287 489 297 484 297 484 c 1
 316 472 346 467 371 467 c 0
 415 467 440 446 440 415 c 0
 440 389 419 369 394 369 c 0
 349 369 338 425 289 462 c 0
 286 464 279 468 275 468 c 0
 269 468 267 466 267 453 c 0xe4
 267 395 301 379 301 335 c 0
 301 309 281 290 255 290 c 0
 229 290 209 309 209 335 c 0xf0
EndSplineSet
EndChar

StartChar: plus
Encoding: 43 43 12
Width: 940
GlyphClass: 2
Flags: MW
HStem: -156 21G<436 504 436 436> 240 64<42 436 42 436 504 898>
VStem: 436 68<-156 240 -156 240 304 700>
LayerCount: 2
Fore
SplineSet
42 240 m 1
 42 304 l 1
 436 304 l 1
 436 700 l 1
 504 700 l 1
 504 304 l 1
 898 304 l 1
 898 240 l 1
 504 240 l 1
 504 -156 l 1
 436 -156 l 1
 436 240 l 1
 42 240 l 1
EndSplineSet
EndChar

StartChar: comma
Encoding: 44 44 13
Width: 280
GlyphClass: 2
Flags: MW
HStem: 8 140<111.5 181>
VStem: 192 46<-25.5 -6>
LayerCount: 2
Fore
SplineSet
175 8 m 0
 158 8 145 -9 117 -9 c 0
 84 -9 46 14 46 63 c 0
 46 120 91 148 132 148 c 0
 198 148 238 98 238 32 c 0
 238 -83 162 -161 66 -196 c 1
 52 -168 l 1
 135 -137 192 -74 192 -10 c 0
 192 -2 187 8 175 8 c 0
EndSplineSet
EndChar

StartChar: hyphen
Encoding: 45 45 14
Width: 370
GlyphClass: 2
Flags: MW
HStem: 208 102<56 314 56 314>
VStem: 56 258<208 310 208 310>
LayerCount: 2
Fore
SplineSet
56 208 m 1
 56 310 l 1
 314 310 l 1
 314 208 l 1
 56 208 l 1
EndSplineSet
EndChar

StartChar: period
Encoding: 46 46 15
Width: 280
GlyphClass: 2
Flags: MW
HStem: -12 156<117.5 162.5>
VStem: 62 156<43.5 88.5>
LayerCount: 2
Fore
SplineSet
62 66 m 0
 62 111 95 144 140 144 c 0
 185 144 218 111 218 66 c 0
 218 21 185 -12 140 -12 c 0
 95 -12 62 21 62 66 c 0
EndSplineSet
EndChar

StartChar: slash
Encoding: 47 47 16
Width: 450
GlyphClass: 2
Flags: MW
HStem: 710 20G<332 400 400 400>
LayerCount: 2
Fore
SplineSet
50 -198 m 1
 332 730 l 1
 400 730 l 1
 118 -198 l 1
 50 -198 l 1
EndSplineSet
Substitution2: "'frac' Diagonal Fractions lookup 29 subtable" uni2215.frac
EndChar

StartChar: zero
Encoding: 48 48 17
Width: 580
GlyphClass: 2
Flags: MW
HStem: -16 32<262 318 262 366> 696 32<262 318>
VStem: 50 170<272 440> 360 170<272 440 272 568 272 592>
LayerCount: 2
Fore
SplineSet
50 356 m 0
 50 524 138 728 290 728 c 0
 442 728 530 524 530 356 c 0
 530 188 442 -16 290 -16 c 0
 138 -16 50 188 50 356 c 0
220 144 m 2
 220 96 234 16 290 16 c 0
 346 16 360 96 360 144 c 2
 360 568 l 2
 360 616 346 696 290 696 c 0
 234 696 220 616 220 568 c 2
 220 144 l 2
EndSplineSet
Substitution2: "'lnum' Lining Figures lookup 52 subtable" zero
Substitution2: "'tnum' Tabular Numbers lookup 51 subtable" zero
Substitution2: "'pnum' Proportional Numbers lookup 50 subtable" zero.prop
Substitution2: "'onum' Oldstyle Figures lookup 49 subtable" zero.oldstyle
Substitution2: "'sups' Superscript lookup 21 subtable" zerosuperior
Substitution2: "'subs' Subscript lookup 20 subtable" zeroinferior
AlternateSubs2: "'aalt' Access All Alternates lookup 2 subtable" zerosuperior zeroinferior
EndChar

StartChar: one
Encoding: 49 49 18
Width: 580
GlyphClass: 2
Flags: MW
HStem: 0 32<120 192 120 192 192 201 388 460> 603 36<120 157 157 184 120 216 120 157> 692 20G<289 364 364 364>
VStem: 216 148<56 603 603 603> 289 75<712 712>
LayerCount: 2
Fore
SplineSet
120 0 m 1xf0
 120 32 l 1
 192 32 l 2
 210 32 216 38 216 56 c 2
 216 603 l 1xf0
 120 603 l 1
 120 639 l 1
 157 639 l 2
 211 639 271 663 289 712 c 1
 364 712 l 1xe8
 364 56 l 2
 364 38 370 32 388 32 c 2
 460 32 l 1
 460 0 l 1
 120 0 l 1xf0
EndSplineSet
Substitution2: "'lnum' Lining Figures lookup 52 subtable" one
Substitution2: "'tnum' Tabular Numbers lookup 51 subtable" one
Substitution2: "'pnum' Proportional Numbers lookup 50 subtable" one.prop
Substitution2: "'onum' Oldstyle Figures lookup 49 subtable" one.oldstyle
Substitution2: "'sups' Superscript lookup 21 subtable" onesuperior
Substitution2: "'subs' Subscript lookup 20 subtable" oneinferior
AlternateSubs2: "'aalt' Access All Alternates lookup 2 subtable" onesuperior oneinferior
EndChar

StartChar: two
Encoding: 50 50 19
Width: 580
GlyphClass: 2
Flags: MW
HStem: -16 148<348.5 397> 0 21G<72 112 72 72> 96 68<135 238.5> 692 36<227 293>
VStem: 64 100<572 587.5> 72 40<0 47 47 64 0 76.5> 354 150<509 591.5> 468 32<185.5 205.5 146.5 217.5>
LayerCount: 2
Fore
SplineSet
164 610 m 0x7a
 164 534 237 551 237 480 c 0
 237 446 209 420 170 420 c 0
 116 420 64 462 64 534 c 0
 64 641 157 728 280 728 c 0
 432 728 504 649 504 544 c 0
 504 421 370 348 255 287 c 0
 213 264 143 216 122 137 c 1
 126 135 l 1
 152 156 182 164 207 164 c 0x7a
 270 164 313 132 384 132 c 0
 434 132 468 167 468 204 c 0
 468 231 466 248 463 271 c 1
 494 271 l 1
 498 242 500 218 500 193 c 0
 500 100 458 -16 336 -16 c 0x91
 283 -16 238 22 206 58 c 0
 184 82 170 96 144 96 c 0
 126 96 112 84 112 64 c 2
 112 0 l 1
 72 0 l 1
 72 47 l 2x75
 72 106 77 184 201 303 c 0
 279 378 354 458 354 560 c 0
 354 623 333 692 253 692 c 0
 201 692 164 653 164 610 c 0x7a
EndSplineSet
Substitution2: "'lnum' Lining Figures lookup 52 subtable" two
Substitution2: "'tnum' Tabular Numbers lookup 51 subtable" two
Substitution2: "'pnum' Proportional Numbers lookup 50 subtable" two.prop
Substitution2: "'onum' Oldstyle Figures lookup 49 subtable" two.oldstyle
Substitution2: "'sups' Superscript lookup 21 subtable" twosuperior
Substitution2: "'subs' Subscript lookup 20 subtable" twoinferior
AlternateSubs2: "'aalt' Access All Alternates lookup 2 subtable" twosuperior twoinferior
EndChar

StartChar: three
Encoding: 51 51 20
Width: 580
GlyphClass: 2
Flags: MW
HStem: -16 32<220.5 285 220.5 331> 356 36<154 253 253 255 154 253> 696 32<231.5 282.5>
VStem: 56 96<91.5 94.5 55.5 168> 74 90<598.5 612.5> 343 150<498 602.5> 356 160<133 241 121.5 252.5>
LayerCount: 2
Fore
SplineSet
164 619 m 0xec
 164 578 229 578 229 517 c 0
 229 486 205 457 164 457 c 0
 116 457 74 500 74 561 c 0
 74 664 163 728 268 728 c 0
 400 728 493 661 493 550 c 0xec
 493 446 405 397 329 381 c 1
 329 372 l 1
 420 364 516 293 516 189 c 0
 516 54 409 -16 253 -16 c 0
 142 -16 56 42 56 141 c 0
 56 195 96 243 152 243 c 0
 198 243 226 214 226 177 c 0
 226 102 152 115 152 74 c 0
 152 37 191 16 250 16 c 0
 320 16 356 73 356 193 c 0xf2
 356 312 307 356 255 356 c 2
 154 356 l 1
 154 392 l 1
 253 392 l 2
 316 392 343 438 343 538 c 0
 343 667 309 696 256 696 c 0
 207 696 164 666 164 619 c 0xec
EndSplineSet
Substitution2: "'lnum' Lining Figures lookup 52 subtable" three
Substitution2: "'tnum' Tabular Numbers lookup 51 subtable" three
Substitution2: "'pnum' Proportional Numbers lookup 50 subtable" three.prop
Substitution2: "'onum' Oldstyle Figures lookup 49 subtable" three.oldstyle
Substitution2: "'sups' Superscript lookup 21 subtable" threesuperior
Substitution2: "'subs' Subscript lookup 20 subtable" threeinferior
AlternateSubs2: "'aalt' Access All Alternates lookup 2 subtable" threesuperior threeinferior
EndChar

StartChar: four
Encoding: 52 52 21
Width: 580
GlyphClass: 2
Flags: MW
HStem: 0 32<150 246 246 255 442 514 150 246> 204 36<100 270 100 270 418 526> 693 20G<313 418 418 418>
VStem: 270 148<56 204 240 544 544 544>
LayerCount: 2
Fore
SplineSet
50 204 m 1
 50 241 l 1
 313 713 l 1
 418 713 l 1
 418 240 l 1
 526 240 l 1
 526 204 l 1
 418 204 l 1
 418 56 l 2
 418 38 424 32 442 32 c 2
 514 32 l 1
 514 0 l 1
 150 0 l 1
 150 32 l 1
 246 32 l 2
 264 32 270 38 270 56 c 2
 270 204 l 1
 50 204 l 1
100 240 m 1
 270 240 l 1
 270 544 l 1
 100 240 l 1
EndSplineSet
Substitution2: "'lnum' Lining Figures lookup 52 subtable" four
Substitution2: "'tnum' Tabular Numbers lookup 51 subtable" four
Substitution2: "'pnum' Proportional Numbers lookup 50 subtable" four.prop
Substitution2: "'onum' Oldstyle Figures lookup 49 subtable" four.oldstyle
Substitution2: "'sups' Superscript lookup 21 subtable" foursuperior
Substitution2: "'subs' Subscript lookup 20 subtable" fourinferior
AlternateSubs2: "'aalt' Access All Alternates lookup 2 subtable" foursuperior fourinferior
EndChar

StartChar: five
Encoding: 53 53 22
Width: 580
GlyphClass: 2
Flags: MW
HStem: -16 32<230.5 306.5 230.5 333.5> 420 32<260 299> 556 122<152 295> 696 20G<132 132>
VStem: 76 90<62 170> 112 26<318 703> 112 40<400 556 400 703> 356 160<172 289>
LayerCount: 2
Fore
SplineSet
76 138 m 0xf9
 76 202 127 245 173 245 c 0
 219 245 239 211 239 180 c 0
 239 144 212 126 196 118 c 0
 180 112 166 99 166 76 c 0xf9
 166 48 197 16 264 16 c 0
 349 16 356 123 356 221 c 0
 356 357 339 420 259 420 c 0
 222 420 153 378 138 318 c 1
 112 318 l 1
 112 703 l 1xf5
 132 716 l 1
 168 694 215 678 270 678 c 0
 320 678 390 696 440 728 c 1
 458 710 l 1
 384 598 266 556 152 556 c 1
 152 400 l 1xf3
 158 398 l 1
 194 435 234 452 286 452 c 0
 426 452 516 362 516 224 c 0
 516 74 400 -16 267 -16 c 0
 151 -16 76 54 76 138 c 0xf9
EndSplineSet
Substitution2: "'lnum' Lining Figures lookup 52 subtable" five
Substitution2: "'tnum' Tabular Numbers lookup 51 subtable" five
Substitution2: "'pnum' Proportional Numbers lookup 50 subtable" five.prop
Substitution2: "'onum' Oldstyle Figures lookup 49 subtable" five.oldstyle
Substitution2: "'sups' Superscript lookup 21 subtable" fivesuperior
Substitution2: "'subs' Subscript lookup 20 subtable" fiveinferior
AlternateSubs2: "'aalt' Access All Alternates lookup 2 subtable" fivesuperior fiveinferior
EndChar

StartChar: six
Encoding: 54 54 23
Width: 580
GlyphClass: 2
Flags: MW
HStem: -16 32<283.5 349 283.5 392.5> 382 38<316.5 349.5> 696 32<301 367>
VStem: 72 160<243.5 248 390 454> 386 148<156.5 244> 420 72<564 662.5>
LayerCount: 2
Fore
SplineSet
335 556 m 0xf4
 335 630 420 613 420 650 c 0xf4
 420 675 393 696 341 696 c 0
 261 696 232 612 232 533 c 2
 232 390 l 1
 238 387 l 1
 260 409 298 420 335 420 c 0
 475 420 534 324 534 210 c 0xf8
 534 103 471 -16 314 -16 c 0
 162 -16 72 148 72 339 c 0
 72 569 173 728 342 728 c 0
 440 728 492 660 492 592 c 0
 492 536 456 489 402 489 c 0
 362 489 335 516 335 556 c 0xf4
322 382 m 0
 233 382 232 301 232 195 c 0
 232 77 254 16 313 16 c 0
 385 16 386 100 386 200 c 0xf8
 386 288 377 382 322 382 c 0
EndSplineSet
Substitution2: "'lnum' Lining Figures lookup 52 subtable" six
Substitution2: "'tnum' Tabular Numbers lookup 51 subtable" six
Substitution2: "'pnum' Proportional Numbers lookup 50 subtable" six.prop
Substitution2: "'onum' Oldstyle Figures lookup 49 subtable" six.oldstyle
Substitution2: "'sups' Superscript lookup 21 subtable" sixsuperior
Substitution2: "'subs' Subscript lookup 20 subtable" sixinferior
AlternateSubs2: "'aalt' Access All Alternates lookup 2 subtable" sixsuperior sixinferior
EndChar

StartChar: seven
Encoding: 55 55 24
Width: 580
GlyphClass: 2
Flags: MW
HStem: -16 21G<269.5 316.5> 540 56<412 414.5> 572 148<251.5 269.5> 692 20G<117 153 153 153>
VStem: 210 160<55 135.5 51.5 179.5> 472 44<617 642.5>
LayerCount: 2
Fore
SplineSet
401 540 m 0xcc
 336 540 307 572 232 572 c 0xac
 180 572 140 548 135 488 c 2
 130 428 l 1
 94 428 l 1
 117 712 l 1
 153 712 l 1x9c
 148 646 l 1
 152 644 l 1
 184 686 224 720 279 720 c 0xac
 367 720 384 596 440 596 c 0xcc
 462 596 472 608 472 626 c 0
 472 659 427 656 427 693 c 0
 427 708 437 720 457 720 c 0xac
 494 720 516 665 516 628 c 0
 516 536 487 471 437 389 c 0
 381 297 370 184 370 87 c 0
 370 16 340 -16 293 -16 c 0
 246 -16 210 22 210 88 c 0
 210 271 430 367 474 563 c 1
 470 566 l 1
 451 550 428 540 401 540 c 0xcc
EndSplineSet
Substitution2: "'lnum' Lining Figures lookup 52 subtable" seven
Substitution2: "'tnum' Tabular Numbers lookup 51 subtable" seven
Substitution2: "'pnum' Proportional Numbers lookup 50 subtable" seven.prop
Substitution2: "'onum' Oldstyle Figures lookup 49 subtable" seven.oldstyle
Substitution2: "'sups' Superscript lookup 21 subtable" sevensuperior
Substitution2: "'subs' Subscript lookup 20 subtable" seveninferior
AlternateSubs2: "'aalt' Access All Alternates lookup 2 subtable" sevensuperior seveninferior
EndChar

StartChar: eight
Encoding: 56 56 25
Width: 580
GlyphClass: 2
Flags: MW
HStem: -16 32<284.5 358.5 284.5 368.5> 696 32<281 342>
VStem: 56 68<113 213.5> 70 92<559 590.5> 450 48<535 601 532.5 607.5> 462 76<157.5 164>
LayerCount: 2
Fore
SplineSet
124 183 m 0xe4
 124 43 256 16 313 16 c 0
 404 16 462 72 462 134 c 0
 462 194 414 225 372 246 c 2
 206 328 l 1
 162 304 124 275 124 183 c 0xe4
56 167 m 0
 56 260 126 316 177 338 c 1
 177 340 l 1
 138 363 70 413 70 521 c 0
 70 660 196 728 302 728 c 0
 444 728 498 633 498 569 c 0xd8
 498 496 442 441 392 415 c 1
 392 411 l 1
 411 401 l 2
 493 361 538 286 538 221 c 0
 538 94 451 -16 286 -16 c 0
 177 -16 56 50 56 167 c 0
162 588 m 0
 162 530 193 508 233 489 c 2
 364 426 l 1
 419 448 450 506 450 564 c 0
 450 651 375 696 309 696 c 0
 253 696 162 671 162 588 c 0
EndSplineSet
Substitution2: "'lnum' Lining Figures lookup 52 subtable" eight
Substitution2: "'tnum' Tabular Numbers lookup 51 subtable" eight
Substitution2: "'pnum' Proportional Numbers lookup 50 subtable" eight.prop
Substitution2: "'onum' Oldstyle Figures lookup 49 subtable" eight.oldstyle
Substitution2: "'sups' Superscript lookup 21 subtable" eightsuperior
Substitution2: "'subs' Subscript lookup 20 subtable" eightinferior
AlternateSubs2: "'aalt' Access All Alternates lookup 2 subtable" eightsuperior eightinferior
EndChar

StartChar: nine
Encoding: 57 57 26
Width: 580
GlyphClass: 2
Flags: MW
HStem: -16 32<233 299 233 342.5> 292 38<250.5 283.5> 696 32<251 316.5>
VStem: 66 148<468 555.5> 108 72<49.5 148> 368 160<258 322 322 322 464 468.5 258 576>
LayerCount: 2
Fore
SplineSet
265 156 m 0xec
 265 82 180 99 180 62 c 0xec
 180 37 207 16 259 16 c 0
 339 16 368 100 368 179 c 2
 368 322 l 1
 362 325 l 1
 340 303 302 292 265 292 c 0
 125 292 66 388 66 502 c 0xf4
 66 609 129 728 286 728 c 0
 438 728 528 564 528 373 c 0
 528 143 427 -16 258 -16 c 0
 160 -16 108 52 108 120 c 0
 108 176 144 223 198 223 c 0
 238 223 265 196 265 156 c 0xec
278 330 m 0
 367 330 368 411 368 517 c 0
 368 635 346 696 287 696 c 0
 215 696 214 612 214 512 c 0xf4
 214 424 223 330 278 330 c 0
EndSplineSet
Substitution2: "'lnum' Lining Figures lookup 52 subtable" nine
Substitution2: "'tnum' Tabular Numbers lookup 51 subtable" nine
Substitution2: "'pnum' Proportional Numbers lookup 50 subtable" nine.prop
Substitution2: "'onum' Oldstyle Figures lookup 49 subtable" nine.oldstyle
Substitution2: "'sups' Superscript lookup 21 subtable" ninesuperior
Substitution2: "'subs' Subscript lookup 20 subtable" nineinferior
AlternateSubs2: "'aalt' Access All Alternates lookup 2 subtable" ninesuperior nineinferior
EndChar

StartChar: colon
Encoding: 58 58 27
Width: 280
GlyphClass: 2
Flags: MW
HStem: -12 156<117.5 162.5> 330 156<117.5 162.5>
VStem: 62 156<43.5 88.5 385.5 430.5>
LayerCount: 2
Fore
SplineSet
62 408 m 0
 62 453 95 486 140 486 c 0
 185 486 218 453 218 408 c 0
 218 363 185 330 140 330 c 0
 95 330 62 363 62 408 c 0
62 66 m 0
 62 111 95 144 140 144 c 0
 185 144 218 111 218 66 c 0
 218 21 185 -12 140 -12 c 0
 95 -12 62 21 62 66 c 0
EndSplineSet
EndChar

StartChar: semicolon
Encoding: 59 59 28
AltUni2: 00037e.ffffffff.0 00037e.ffffffff.0
Width: 280
GlyphClass: 2
Flags: MW
HStem: 8 140<111.5 181> 330 156<117.5 162.5>
VStem: 62 156<385.5 430.5> 192 46<-25.5 -6>
LayerCount: 2
Fore
SplineSet
175 8 m 0xd0
 158 8 145 -9 117 -9 c 0
 84 -9 46 14 46 63 c 0
 46 120 91 148 132 148 c 0
 198 148 238 98 238 32 c 0
 238 -83 162 -161 66 -196 c 1
 52 -168 l 1
 135 -137 192 -74 192 -10 c 0
 192 -2 187 8 175 8 c 0xd0
62 408 m 0xe0
 62 453 95 486 140 486 c 0
 185 486 218 453 218 408 c 0
 218 363 185 330 140 330 c 0
 95 330 62 363 62 408 c 0xe0
EndSplineSet
EndChar

StartChar: less
Encoding: 60 60 29
Width: 940
GlyphClass: 2
Flags: MW
HStem: -156 21G<822 822>
LayerCount: 2
Fore
SplineSet
84 252 m 1
 84 292 l 1
 822 700 l 1
 854 644 l 1
 180 272 l 1
 854 -100 l 1
 822 -156 l 1
 84 252 l 1
EndSplineSet
EndChar

StartChar: equal
Encoding: 61 61 30
Width: 940
GlyphClass: 2
Flags: MW
HStem: 136 64<48 892 48 892> 344 64<48 892 48 892>
LayerCount: 2
Fore
SplineSet
48 136 m 1
 48 200 l 1
 892 200 l 1
 892 136 l 1
 48 136 l 1
48 344 m 1
 48 408 l 1
 892 408 l 1
 892 344 l 1
 48 344 l 1
EndSplineSet
EndChar

StartChar: greater
Encoding: 62 62 31
Width: 940
GlyphClass: 2
Flags: MW
HStem: -156 21G<118 118>
LayerCount: 2
Fore
SplineSet
86 -100 m 1
 760 272 l 1
 86 644 l 1
 118 700 l 1
 856 292 l 1
 856 252 l 1
 118 -156 l 1
 86 -100 l 1
EndSplineSet
EndChar

StartChar: question
Encoding: 63 63 32
Width: 470
GlyphClass: 2
Flags: MW
HStem: -12 156<225.5 270.5> 176 30<230 262.5 230 267.5> 692 40<178 221.5>
VStem: 72 34<558.5 611.5 558.5 622.5> 150 34<238 284.5 238 319> 170 156<43.5 88.5> 270 122<553.5 625.5> 301 28<253.5 275>
LayerCount: 2
Fore
SplineSet
150 257 m 0xf9
 150 381 270 423 270 601 c 0
 270 650 245 692 198 692 c 0
 142 692 106 639 106 584 c 0
 106 533 117 510 144 476 c 1
 121 459 l 1
 91 496 72 528 72 586 c 0
 72 659 127 732 229 732 c 0
 325 732 392 670 392 588 c 0xfa
 392 519 330 450 269 394 c 0
 225 353 184 313 184 256 c 0
 184 220 215 206 245 206 c 0
 280 206 301 235 301 272 c 0
 301 278 300 287 296 298 c 1
 320 308 l 1
 326 295 329 287 329 271 c 0
 329 214 290 176 245 176 c 0
 196 176 150 202 150 257 c 0xf9
170 66 m 0xf4
 170 111 203 144 248 144 c 0
 293 144 326 111 326 66 c 0
 326 21 293 -12 248 -12 c 0
 203 -12 170 21 170 66 c 0xf4
EndSplineSet
EndChar

StartChar: at
Encoding: 64 64 33
Width: 820
GlyphClass: 2
Flags: MW
HStem: -18 32<329 456.5> 130 24<336.5 353.5> 130 32<572.5 622.5 572.5 625> 554 24<407 450 407 455> 698 32<330.5 498>
VStem: 44 72<244 448.5 244 452.5> 200 108<211.5 279.5 201 293> 704 72<349.5 478 336.5 491>
LayerCount: 2
Fore
SplineSet
442 554 m 0xdf
 347 554 308 336 308 223 c 0
 308 179 328 154 345 154 c 0
 440 154 483 431 483 475 c 0
 483 522 468 554 442 554 c 0xdf
44 347 m 0
 44 558 209 730 422 730 c 0
 642 730 776 570 776 386 c 0
 776 287 702 130 548 130 c 0xbf
 499 130 461 158 455 206 c 1
 451 207 l 1
 434 184 386 130 321 130 c 0xdf
 262 130 200 169 200 254 c 0
 200 332 219 426 263 481 c 0
 321 553 382 578 432 578 c 0
 468 578 492 550 499 523 c 1
 503 523 l 1
 514 566 l 1
 621 566 l 1
 548 257 l 2
 545 241 543 227 543 214 c 0
 543 176 566 162 579 162 c 0xbf
 666 162 704 302 704 397 c 0
 704 585 584 698 412 698 c 0
 249 698 116 553 116 344 c 0
 116 144 232 14 426 14 c 0
 498 14 563 49 594 70 c 1
 609 43 l 1
 580 22 509 -18 404 -18 c 0
 204 -18 44 126 44 347 c 0
EndSplineSet
EndChar

StartChar: A
Encoding: 65 65 34
Width: 754
GlyphClass: 2
Flags: MW
HStem: 0 32<44 78 44 78 78 99.5 252 299 381 453 453 461 692 732> 189 37<245 430 245 442 232 430> 710 20G<377 419 419 419>
AnchorPoint: "Anchor-2" 340 0 basechar 0
AnchorPoint: "Anchor-1" 396 762 basechar 0
AnchorPoint: "Anchor-0" 396 782 basechar 0
LayerCount: 2
Fore
SplineSet
44 0 m 1
 44 32 l 1
 78 32 l 2
 121 32 152 73 166 113 c 2
 377 730 l 1
 419 730 l 1
 633 83 l 2
 645 48 666 32 692 32 c 2
 732 32 l 1
 732 0 l 1
 381 0 l 1
 381 32 l 1
 453 32 l 2
 469 32 480 47 480 64 c 0
 480 70 477 84 474 93 c 2
 442 189 l 1
 232 189 l 1
 211 128 l 2
 204 110 200 90 200 77 c 0
 200 55 219 32 252 32 c 2
 299 32 l 1
 299 0 l 1
 44 0 l 1
245 226 m 1
 430 226 l 1
 339 501 l 1
 245 226 l 1
EndSplineSet
Substitution2: "'c2sc' Capitals to Small Capitals lookup 1 subtable" a.sc
EndChar

StartChar: B
Encoding: 66 66 35
Width: 710
GlyphClass: 2
Flags: MW
HStem: 0 32<62 132 62 132 132 141 328 396 396 427> 356 32<304 396 304 396> 680 32<62 132 62 414 319 328 328 402>
VStem: 156 148<56 356 388 656> 488 150<496 586> 502 160<131 246 131 258>
AnchorPoint: "Anchor-2" 320 0 basechar 0
AnchorPoint: "Anchor-1" 320 762 basechar 0
AnchorPoint: "Anchor-0" 320 782 basechar 0
LayerCount: 2
Fore
SplineSet
304 388 m 1xf8
 396 388 l 2
 473 388 488 450 488 542 c 0
 488 630 455 680 402 680 c 2
 328 680 l 2
 310 680 304 674 304 656 c 2
 304 388 l 1xf8
62 0 m 1
 62 32 l 1
 132 32 l 2
 150 32 156 38 156 56 c 2
 156 656 l 2
 156 674 150 680 132 680 c 2
 62 680 l 1
 62 712 l 1
 414 712 l 2
 533 712 638 642 638 542 c 0xf8
 638 445 549 396 469 375 c 1
 469 369 l 1
 554 356 662 298 662 194 c 0xf4
 662 68 553 0 427 0 c 2
 62 0 l 1
304 56 m 2
 304 38 310 32 328 32 c 2
 396 32 l 2
 462 32 502 66 502 194 c 0xf4
 502 322 462 356 396 356 c 2
 304 356 l 1
 304 56 l 2
EndSplineSet
Substitution2: "'c2sc' Capitals to Small Capitals lookup 1 subtable" b.sc
EndChar

StartChar: C
Encoding: 67 67 36
Width: 660
GlyphClass: 2
Flags: MW
HStem: -18 32<332 407 332 461> 698 32<322 396 262 400> 702 20G<559 592 592 592>
VStem: 70 170<262 456> 560 32<415 722> 576 36<275 275>
AnchorPoint: "Anchor-2" 360 0 basechar 0
AnchorPoint: "Anchor-1" 348 762 basechar 0
AnchorPoint: "Anchor-0" 348 782 basechar 0
LayerCount: 2
Fore
SplineSet
612 275 m 1xd4
 604 169 562 -18 360 -18 c 0
 166 -18 70 168 70 356 c 0
 70 556 174 730 350 730 c 0xd4
 442 730 490 666 519 666 c 0
 531 666 536 674 541 685 c 2
 559 722 l 1
 592 722 l 1
 592 415 l 1
 560 415 l 1xb8
 530 586 450 698 350 698 c 0
 294 698 240 650 240 506 c 2
 240 206 l 2
 240 62 304 14 360 14 c 0
 454 14 507 67 537 123 c 0
 561 168 571 228 576 275 c 1
 612 275 l 1xd4
EndSplineSet
Substitution2: "'c2sc' Capitals to Small Capitals lookup 1 subtable" c.sc
EndChar

StartChar: D
Encoding: 68 68 37
Width: 786
GlyphClass: 2
Flags: MW
HStem: 0 32<62 132 62 132 132 141 328 417 417 434> 680 32<62 132 62 434 319 328 328 417>
VStem: 156 148<56 656> 566 170<258 466 258 506 258 566>
AnchorPoint: "Anchor-2" 352 0 basechar 0
AnchorPoint: "Anchor-1" 352 762 basechar 0
AnchorPoint: "Anchor-0" 352 782 basechar 0
LayerCount: 2
Fore
SplineSet
62 0 m 1
 62 32 l 1
 132 32 l 2
 150 32 156 38 156 56 c 2
 156 656 l 2
 156 674 150 680 132 680 c 2
 62 680 l 1
 62 712 l 1
 434 712 l 2
 600 712 736 570 736 362 c 0
 736 154 600 0 434 0 c 2
 62 0 l 1
304 56 m 2
 304 38 310 32 328 32 c 2
 417 32 l 2
 497 32 566 86 566 206 c 2
 566 506 l 2
 566 626 497 680 417 680 c 2
 328 680 l 2
 310 680 304 674 304 656 c 2
 304 56 l 2
EndSplineSet
Substitution2: "'c2sc' Capitals to Small Capitals lookup 1 subtable" d.sc
EndChar

StartChar: E
Encoding: 69 69 38
Width: 690
GlyphClass: 2
Flags: MW
HStem: 0 32<62 132 132 141 328 437 437 478 62 132> 344 36<304 355 304 355> 480 21G<598 598 598 630> 680 32<62 132 62 624 319 328 328 438>
VStem: 156 148<56 344 380 656> 455 32<205 234.5 489 518> 598 32<480 481.5>
AnchorPoint: "Anchor-2" 372 0 basechar 0
AnchorPoint: "Anchor-1" 372 762 basechar 0
AnchorPoint: "Anchor-0" 372 782 basechar 0
LayerCount: 2
Fore
SplineSet
598 480 m 1
 598 483 563 680 438 680 c 2
 328 680 l 2
 310 680 304 674 304 656 c 2
 304 380 l 1
 355 380 l 2
 411 380 455 460 455 518 c 1
 487 518 l 1
 487 205 l 1
 455 205 l 1
 455 264 411 344 355 344 c 2
 304 344 l 1
 304 56 l 2
 304 38 310 32 328 32 c 2
 437 32 l 2
 519 32 566 120 585 174 c 0
 598 211 606 276 606 276 c 1
 638 276 l 1
 632 0 l 1
 62 0 l 1
 62 32 l 1
 132 32 l 2
 150 32 156 38 156 56 c 2
 156 656 l 2
 156 674 150 680 132 680 c 2
 62 680 l 1
 62 712 l 1
 624 712 l 1
 630 480 l 1
 598 480 l 1
EndSplineSet
Substitution2: "'c2sc' Capitals to Small Capitals lookup 1 subtable" e.sc
EndChar

StartChar: F
Encoding: 70 70 39
Width: 670
GlyphClass: 2
Flags: MW
HStem: 0 32<62 132 62 132 132 141 328 419> 344 36<304 355 304 355> 680 32<62 132 62 626 319 328 328 430>
VStem: 156 148<56 344 380 656> 455 32<205 234.5 489 518>
AnchorPoint: "Anchor-2" 240 0 basechar 0
AnchorPoint: "Anchor-1" 372 762 basechar 0
AnchorPoint: "Anchor-0" 372 782 basechar 0
LayerCount: 2
Fore
SplineSet
62 0 m 1
 62 32 l 1
 132 32 l 2
 150 32 156 38 156 56 c 2
 156 656 l 2
 156 674 150 680 132 680 c 2
 62 680 l 1
 62 712 l 1
 626 712 l 1
 634 438 l 1
 602 438 l 1
 602 438 591 518 566 571 c 0
 542 622 494 680 430 680 c 2
 328 680 l 2
 310 680 304 674 304 656 c 2
 304 380 l 1
 355 380 l 2
 411 380 455 460 455 518 c 1
 487 518 l 1
 487 205 l 1
 455 205 l 1
 455 264 411 344 355 344 c 2
 304 344 l 1
 304 56 l 2
 304 38 310 32 328 32 c 2
 419 32 l 1
 419 0 l 1
 62 0 l 1
EndSplineSet
Substitution2: "'c2sc' Capitals to Small Capitals lookup 1 subtable" f.sc
EndChar

StartChar: G
Encoding: 71 71 40
Width: 720
GlyphClass: 2
Flags: MW
HStem: -18 32<318 386 318 388> 322 32<356 444 356 688 631 640 640 688> 698 32<330 418> 702 20G<583 616 616 616>
VStem: 70 170<256.5 456> 468 148<161 298 -13 307> 584 32<-13 298>
AnchorPoint: "Anchor-2" 364 0 basechar 0
AnchorPoint: "Anchor-1" 364 762 basechar 0
AnchorPoint: "Anchor-0" 364 782 basechar 0
LayerCount: 2
Fore
SplineSet
368 730 m 0xea
 473 730 512 666 544 666 c 0
 555 666 561 674 566 685 c 2
 583 722 l 1
 616 722 l 1
 616 434 l 1xda
 585 434 l 1
 540 600 468 698 368 698 c 0
 292 698 240 650 240 506 c 2
 240 206 l 2
 240 62 286 14 350 14 c 0
 422 14 468 85 468 161 c 2
 468 298 l 2
 468 316 462 322 444 322 c 2
 356 322 l 1
 356 354 l 1
 688 354 l 1
 688 322 l 1
 640 322 l 2
 622 322 616 316 616 298 c 2xec
 616 -13 l 1
 584 -13 l 1
 560 78 l 2
 557 90 549 103 536 103 c 0
 522 103 513 95 505 82 c 0
 481 45 426 -18 350 -18 c 0
 174 -18 70 157 70 356 c 0
 70 556 192 730 368 730 c 0xea
EndSplineSet
Substitution2: "'salt' Stylistic Alternatives lookup 19 subtable" uniA77D
Substitution2: "'ss02' Style Set 2 lookup 12 subtable" uniA77D
AlternateSubs2: "'aalt' Access All Alternates lookup 2 subtable" uniA77D
Substitution2: "'c2sc' Capitals to Small Capitals lookup 1 subtable" g.sc
EndChar

StartChar: H
Encoding: 72 72 41
Width: 824
GlyphClass: 2
Flags: MW
HStem: 0 32<62 132 62 132 132 141 328 398 446 516 516 525 712 782> 356 36<304 540 304 540> 680 32<62 132 62 398 319 328 328 398 444 516 703 712 712 782>
VStem: 156 148<56 356 392 656> 540 148<56 356 356 356 392 656>
AnchorPoint: "Anchor-2" 421 0 basechar 0
AnchorPoint: "Anchor-1" 421 762 basechar 0
AnchorPoint: "Anchor-0" 421 782 basechar 0
LayerCount: 2
Fore
SplineSet
62 0 m 1
 62 32 l 1
 132 32 l 2
 150 32 156 38 156 56 c 2
 156 656 l 2
 156 674 150 680 132 680 c 2
 62 680 l 1
 62 712 l 1
 398 712 l 1
 398 680 l 1
 328 680 l 2
 310 680 304 674 304 656 c 2
 304 392 l 1
 540 392 l 1
 540 656 l 2
 540 674 534 680 516 680 c 2
 444 680 l 1
 444 712 l 1
 782 712 l 1
 782 680 l 1
 712 680 l 2
 694 680 688 674 688 656 c 2
 688 56 l 2
 688 38 694 32 712 32 c 2
 782 32 l 1
 782 0 l 1
 446 0 l 1
 446 32 l 1
 516 32 l 2
 534 32 540 38 540 56 c 2
 540 356 l 1
 304 356 l 1
 304 56 l 2
 304 38 310 32 328 32 c 2
 398 32 l 1
 398 0 l 1
 62 0 l 1
EndSplineSet
Substitution2: "'c2sc' Capitals to Small Capitals lookup 1 subtable" h.sc
EndChar

StartChar: I
Encoding: 73 73 42
Width: 440
GlyphClass: 2
Flags: MW
HStem: 0 32<62 132 62 132 132 141 328 398> 680 32<62 132 62 398 319 328 328 398>
VStem: 156 148<56 656>
AnchorPoint: "Anchor-2" 230 0 basechar 0
AnchorPoint: "Anchor-1" 230 762 basechar 0
AnchorPoint: "Anchor-0" 230 782 basechar 0
LayerCount: 2
Fore
SplineSet
62 0 m 1
 62 32 l 1
 132 32 l 2
 150 32 156 38 156 56 c 2
 156 656 l 2
 156 674 150 680 132 680 c 2
 62 680 l 1
 62 712 l 1
 398 712 l 1
 398 680 l 1
 328 680 l 2
 310 680 304 674 304 656 c 2
 304 56 l 2
 304 38 310 32 328 32 c 2
 398 32 l 1
 398 0 l 1
 62 0 l 1
EndSplineSet
Substitution2: "'c2sc' Capitals to Small Capitals lookup 1 subtable" i.sc
EndChar

StartChar: J
Encoding: 74 74 43
Width: 540
GlyphClass: 2
Flags: MW
HStem: -18 32<172.5 228.5 172.5 265> 680 32<174 254 174 512 441 450 450 512>
VStem: 36 68<63 190> 278 148<130 194 194 656>
AnchorPoint: "Anchor-2" 236 0 basechar 0
AnchorPoint: "Anchor-1" 348 762 basechar 0
AnchorPoint: "Anchor-0" 348 782 basechar 0
LayerCount: 2
Fore
SplineSet
36 154 m 0
 36 226 82 271 126 271 c 0
 170 271 197 238 197 202 c 0
 197 152 164 128 136 118 c 0
 113 110 104 98 104 76 c 0
 104 50 143 14 202 14 c 0
 255 14 278 56 278 130 c 2
 278 656 l 2
 278 674 272 680 254 680 c 2
 174 680 l 1
 174 712 l 1
 512 712 l 1
 512 680 l 1
 450 680 l 2
 432 680 426 674 426 656 c 2
 426 194 l 2
 426 58 316 -18 214 -18 c 0
 118 -18 36 41 36 154 c 0
EndSplineSet
Substitution2: "'c2sc' Capitals to Small Capitals lookup 1 subtable" j.sc
EndChar

StartChar: K
Encoding: 75 75 44
Width: 770
GlyphClass: 2
Flags: MW
HStem: 0 32<62 132 62 132 132 141 328 390 436 476 476 482 723 750> 680 32<62 132 62 390 319 328 328 390 457 486 653.5 669 669 704>
VStem: 156 148<56 305 360 656>
AnchorPoint: "Anchor-2" 414 0 basechar 0
AnchorPoint: "Anchor-1" 414 762 basechar 0
AnchorPoint: "Anchor-0" 414 782 basechar 0
LayerCount: 2
Fore
SplineSet
62 0 m 1
 62 32 l 1
 132 32 l 2
 150 32 156 38 156 56 c 2
 156 656 l 2
 156 674 150 680 132 680 c 2
 62 680 l 1
 62 712 l 1
 390 712 l 1
 390 680 l 1
 328 680 l 2
 310 680 304 674 304 656 c 2
 304 360 l 1
 497 584 l 2
 514 604 522 616 522 638 c 0
 522 662 508 680 486 680 c 2
 457 680 l 1
 457 712 l 1
 704 712 l 1
 704 680 l 1
 669 680 l 2
 638 680 606 654 586 630 c 2
 452 475 l 1
 663 76 l 2
 679 45 690 32 723 32 c 2
 750 32 l 1
 750 0 l 1
 436 0 l 1
 436 32 l 1
 476 32 l 2
 488 32 497 42 497 53 c 0
 497 59 495 72 492 78 c 2
 347 354 l 1
 304 305 l 1
 304 56 l 2
 304 38 310 32 328 32 c 2
 390 32 l 1
 390 0 l 1
 62 0 l 1
EndSplineSet
Substitution2: "'c2sc' Capitals to Small Capitals lookup 1 subtable" k.sc
EndChar

StartChar: L
Encoding: 76 76 45
Width: 670
GlyphClass: 2
Flags: MW
HStem: 0 32<62 132 62 132 132 141 328 429 429 470> 680 32<62 132 62 398 319 328 328 398>
VStem: 156 148<59 656>
AnchorPoint: "Anchor-2" 372 0 basechar 0
AnchorPoint: "Anchor-1" 230 762 basechar 0
AnchorPoint: "Anchor-0" 230 782 basechar 0
LayerCount: 2
Fore
SplineSet
62 0 m 1
 62 32 l 1
 132 32 l 2
 150 32 156 41 156 59 c 2
 156 656 l 2
 156 674 150 680 132 680 c 2
 62 680 l 1
 62 712 l 1
 398 712 l 1
 398 680 l 1
 328 680 l 2
 310 680 304 674 304 656 c 2
 304 59 l 2
 304 41 310 32 328 32 c 2
 429 32 l 2
 511 32 562 151 579 206 c 0
 590 243 604 308 604 308 c 1
 636 308 l 1
 628 0 l 1
 62 0 l 1
EndSplineSet
Substitution2: "'c2sc' Capitals to Small Capitals lookup 1 subtable" l.sc
EndChar

StartChar: M
Encoding: 77 77 46
Width: 890
GlyphClass: 2
Flags: MW
HStem: -12 21G<403 442 403 403> 0 32<48 74 48 74 270 296 522 592 592 601 788 858> 680 32<48 128 48 287 779 788 788 858>
VStem: 152 40<122 537> 616 148<56 625 625 625>
AnchorPoint: "Anchor-2" 418 0 basechar 0
AnchorPoint: "Anchor-1" 448 762 basechar 0
AnchorPoint: "Anchor-0" 448 782 basechar 0
LayerCount: 2
Fore
SplineSet
48 0 m 1x78
 48 32 l 1
 100 32 152 58 152 122 c 2
 152 656 l 2
 152 674 146 680 128 680 c 2
 48 680 l 1
 48 712 l 1
 287 712 l 1
 470 220 l 1
 604 712 l 1
 858 712 l 1
 858 680 l 1
 788 680 l 2
 770 680 764 674 764 656 c 2
 764 56 l 2
 764 38 770 32 788 32 c 2
 858 32 l 1
 858 0 l 1
 522 0 l 1
 522 32 l 1
 592 32 l 2x78
 610 32 616 38 616 56 c 2
 616 625 l 1
 442 -12 l 1
 403 -12 l 1xb8
 199 537 l 1
 192 537 l 1
 192 122 l 2
 192 58 244 32 296 32 c 1
 296 0 l 1
 48 0 l 1x78
EndSplineSet
Substitution2: "'c2sc' Capitals to Small Capitals lookup 1 subtable" m.sc
EndChar

StartChar: N
Encoding: 78 78 47
Width: 764
GlyphClass: 2
Flags: MW
HStem: -18 21G<592 630 592 592> 0 32<48 84 48 84 304 340> 680 32<48 66 48 270 464 500 720 756>
VStem: 174 40<136 517> 590 40<255 576 -18 607>
AnchorPoint: "Anchor-2" 418 0 basechar 0
AnchorPoint: "Anchor-1" 418 762 basechar 0
AnchorPoint: "Anchor-0" 418 782 basechar 0
LayerCount: 2
Fore
SplineSet
48 0 m 1x78
 48 32 l 1x78
 120 32 174 74 174 136 c 2
 174 563 l 2
 174 578 172 581 163 594 c 2
 123 654 l 2
 110 673 98 680 66 680 c 2
 48 680 l 1
 48 712 l 1
 270 712 l 1
 590 255 l 1
 590 576 l 2
 590 638 536 680 464 680 c 1
 464 712 l 1
 756 712 l 1
 756 680 l 1
 684 680 630 638 630 576 c 2
 630 -18 l 1
 592 -18 l 1xb8
 218 517 l 1
 214 517 l 1
 214 136 l 2
 214 74 268 32 340 32 c 1
 340 0 l 1
 48 0 l 1x78
EndSplineSet
Substitution2: "'c2sc' Capitals to Small Capitals lookup 1 subtable" n.sc
EndChar

StartChar: O
Encoding: 79 79 48
Width: 712
GlyphClass: 2
Flags: MW
HStem: -18 32<328 404 328 445> 698 32<328 404>
VStem: 70 170<260 452> 492 170<260 452 260 506 260 578>
AnchorPoint: "Anchor-2" 366 0 basechar 0
AnchorPoint: "Anchor-1" 366 762 basechar 0
AnchorPoint: "Anchor-0" 366 782 basechar 0
LayerCount: 2
Fore
SplineSet
240 206 m 2
 240 62 290 14 366 14 c 0
 442 14 492 62 492 206 c 2
 492 506 l 2
 492 650 442 698 366 698 c 0
 290 698 240 650 240 506 c 2
 240 206 l 2
70 356 m 0
 70 548 208 730 366 730 c 0
 524 730 662 548 662 356 c 0
 662 164 524 -18 366 -18 c 0
 208 -18 70 164 70 356 c 0
EndSplineSet
Substitution2: "'c2sc' Capitals to Small Capitals lookup 1 subtable" o.sc
EndChar

StartChar: P
Encoding: 80 80 49
Width: 702
GlyphClass: 2
Flags: MW
HStem: 0 32<62 132 62 132 132 141 328 416> 336 32<304 403 403 418 304 403> 680 32<62 132 62 418 319 328 328 403>
VStem: 156 148<56 336 368 656> 498 160<482 570>
AnchorPoint: "Anchor-2" 240 0 basechar 0
AnchorPoint: "Anchor-1" 340 762 basechar 0
AnchorPoint: "Anchor-0" 340 782 basechar 0
LayerCount: 2
Fore
SplineSet
304 368 m 1
 403 368 l 2
 478 368 498 438 498 526 c 0
 498 614 478 680 403 680 c 2
 328 680 l 2
 310 680 304 674 304 656 c 2
 304 368 l 1
62 0 m 1
 62 32 l 1
 132 32 l 2
 150 32 156 38 156 56 c 2
 156 656 l 2
 156 674 150 680 132 680 c 2
 62 680 l 1
 62 712 l 1
 418 712 l 2
 560 712 658 636 658 526 c 0
 658 416 560 336 418 336 c 2
 304 336 l 1
 304 56 l 2
 304 38 310 32 328 32 c 2
 416 32 l 1
 416 0 l 1
 62 0 l 1
EndSplineSet
Substitution2: "'c2sc' Capitals to Small Capitals lookup 1 subtable" p.sc
EndChar

StartChar: Q
Encoding: 81 81 50
Width: 712
GlyphClass: 2
Flags: MW
HStem: -238 128<528.5 556.5> -18 32<354.5 374.5> 133 33<336.5 383> 698 32<328 404>
VStem: 70 170<261.5 452> 274 28<74.5 89 44.5 100.5> 492 170<283 452 283 506 283 578> 634 32<-23.5 -7.5 -41.5 16>
AnchorPoint: "Anchor-2" 220 0 basechar 0
LayerCount: 2
Fore
SplineSet
302 75 m 0xfc
 302 14 343 14 366 14 c 0
 384 14 404 18 421 25 c 1
 421 78 415 133 351 133 c 0
 322 133 302 103 302 75 c 0xfc
240 206 m 2
 240 130 255 82 275 55 c 1
 277 56 l 1
 275 64 274 69 274 80 c 0
 274 121 304 166 362 166 c 0
 420 166 456 122 464 71 c 1
 467 71 l 1
 485 107 492 149 492 206 c 2
 492 506 l 2xfe
 492 650 442 698 366 698 c 0
 290 698 240 650 240 506 c 2
 240 206 l 2
70 356 m 0
 70 548 208 730 366 730 c 0
 524 730 662 548 662 356 c 0xfe
 662 210 582 68 471 9 c 1
 476 -64 502 -110 555 -110 c 0
 611 -110 634 -55 634 8 c 0
 634 24 633 38 631 56 c 1
 661 56 l 1
 664 37 666 6 666 -21 c 0xfd
 666 -62 664 -118 642 -164 c 0
 621 -208 581 -238 532 -238 c 0
 475 -238 415 -192 415 -110 c 0
 415 -94 415 -48 419 -11 c 1
 402 -16 382 -18 367 -18 c 0
 205 -18 70 167 70 356 c 0
EndSplineSet
Substitution2: "'c2sc' Capitals to Small Capitals lookup 1 subtable" q.sc
EndChar

StartChar: R
Encoding: 82 82 51
Width: 730
GlyphClass: 2
Flags: MW
HStem: -24 56<623 643> 0 32<62 132 62 132 132 141 328 416> 364 32<304 360 304 371> 680 32<62 132 62 386 319 328 328 371>
VStem: 156 148<56 364 396 656> 456 148<126 185 59 250> 466 160<502 586> 682 32<144.5 180>
AnchorPoint: "Anchor-2" 400 0 basechar 0
AnchorPoint: "Anchor-1" 332 762 basechar 0
AnchorPoint: "Anchor-0" 332 782 basechar 0
LayerCount: 2
Fore
SplineSet
62 0 m 1x7d
 62 32 l 1
 132 32 l 2
 150 32 156 38 156 56 c 2
 156 656 l 2
 156 674 150 680 132 680 c 2
 62 680 l 1
 62 712 l 1
 386 712 l 2
 528 712 626 646 626 536 c 0x7b
 626 440 546 389 442 377 c 1
 442 370 l 1
 536 353 604 310 604 185 c 2
 604 74 l 2
 604 44 614 32 632 32 c 0
 670 32 682 109 682 180 c 1
 714 180 l 1
 714 64 691 -24 595 -24 c 0xbd
 513 -24 456 24 456 126 c 2
 456 250 l 2
 456 308 430 364 360 364 c 2
 304 364 l 1
 304 56 l 2
 304 38 310 32 328 32 c 2
 416 32 l 1
 416 0 l 1
 62 0 l 1x7d
304 396 m 1
 371 396 l 2
 446 396 466 460 466 544 c 0
 466 628 446 680 371 680 c 2
 328 680 l 2
 310 680 304 674 304 656 c 2
 304 396 l 1
EndSplineSet
Substitution2: "'c2sc' Capitals to Small Capitals lookup 1 subtable" r.sc
EndChar

StartChar: S
Encoding: 83 83 52
Width: 620
GlyphClass: 2
Flags: MW
HStem: -18 32<296 413 296 423.5> -10 21G<96 127 96 96> 692 20G<494 526 526 526> 698 32<244.5 329>
VStem: 92 84<591 607> 96 31<-10 -10> 490 80<138.5 146.5> 494 32<712 712> 504 32<452 452>
AnchorPoint: "Anchor-2" 334 0 basechar 0
AnchorPoint: "Anchor-1" 298 762 basechar 0
AnchorPoint: "Anchor-0" 298 782 basechar 0
LayerCount: 2
Fore
SplineSet
347 -18 m 0x9a
 225 -18 193 56 158 56 c 0
 144 56 135 44 132 22 c 2
 127 -10 l 1
 96 -10 l 1x46
 90 306 l 1
 122 306 l 1
 150 159 239 14 353 14 c 0
 473 14 490 86 490 128 c 0
 490 165 458 192 418 218 c 2
 204 356 l 2
 154 388 92 446 92 538 c 0
 92 676 188 730 288 730 c 0x9a
 384 730 441 662 466 662 c 0
 479 662 486 672 488 685 c 2
 494 712 l 1
 526 712 l 1x29
 536 452 l 1
 504 452 l 1x2080
 467 590 378 698 280 698 c 0
 209 698 176 670 176 614 c 0
 176 568 219 529 265 499 c 2
 480 360 l 2
 535 324 570 255 570 188 c 0
 570 89 500 -18 347 -18 c 0x9a
EndSplineSet
Substitution2: "'c2sc' Capitals to Small Capitals lookup 1 subtable" s.sc
EndChar

StartChar: T
Encoding: 84 84 53
Width: 716
GlyphClass: 2
Flags: MW
HStem: 0 32<190 270 270 279 466 546 190 270> 680 32<205.5 268 468 530.5>
VStem: 60 32<414 414> 294 148<56 646> 644 32<414 414>
CounterMasks: 1 38
AnchorPoint: "Anchor-2" 368 0 basechar 0
AnchorPoint: "Anchor-1" 368 762 basechar 0
AnchorPoint: "Anchor-0" 368 782 basechar 0
LayerCount: 2
Fore
SplineSet
257 680 m 0
 154 680 101 491 92 414 c 1
 60 414 l 1
 68 712 l 1
 668 712 l 1
 676 414 l 1
 644 414 l 1
 635 491 582 680 479 680 c 0
 457 680 442 668 442 646 c 2
 442 56 l 2
 442 38 448 32 466 32 c 2
 546 32 l 1
 546 0 l 1
 190 0 l 1
 190 32 l 1
 270 32 l 2
 288 32 294 38 294 56 c 2
 294 646 l 2
 294 668 279 680 257 680 c 0
EndSplineSet
Substitution2: "'c2sc' Capitals to Small Capitals lookup 1 subtable" t.sc
EndChar

StartChar: U
Encoding: 85 85 54
Width: 794
GlyphClass: 2
Flags: MW
HStem: -18 40<398.5 494.5> 680 32<68 392 68 132 319 328 328 392 514 540 736 762>
VStem: 156 148<237 656> 618 40<198 208 208 590>
AnchorPoint: "Anchor-2" 430 0 basechar 0
AnchorPoint: "Anchor-1" 430 762 basechar 0
AnchorPoint: "Anchor-0" 430 782 basechar 0
LayerCount: 2
Fore
SplineSet
68 680 m 1
 68 712 l 1
 392 712 l 1
 392 680 l 1
 328 680 l 2
 310 680 304 674 304 656 c 2
 304 198 l 2
 304 75 350 22 447 22 c 0
 547 22 618 102 618 198 c 2
 618 590 l 2
 618 654 566 680 514 680 c 1
 514 712 l 1
 762 712 l 1
 762 680 l 1
 710 680 658 654 658 590 c 2
 658 208 l 2
 658 83 570 -18 419 -18 c 0
 229 -18 156 108 156 237 c 2
 156 656 l 2
 156 674 150 680 132 680 c 2
 68 680 l 1
EndSplineSet
Substitution2: "'c2sc' Capitals to Small Capitals lookup 1 subtable" u.sc
EndChar

StartChar: V
Encoding: 86 86 55
Width: 772
GlyphClass: 2
Flags: MW
HStem: -18 21G<384 426 384 384> 680 32<46 393 46 79 333.5 343 343 393 480 530 693.5 719 719 750>
AnchorPoint: "Anchor-2" 392 0 basechar 0
AnchorPoint: "Anchor-1" 416 762 basechar 0
AnchorPoint: "Anchor-0" 416 782 basechar 0
LayerCount: 2
Fore
SplineSet
46 680 m 1
 46 712 l 1
 393 712 l 1
 393 680 l 1
 343 680 l 2
 324 680 309 669 309 655 c 0
 309 649 310 641 313 633 c 2
 461 212 l 1
 576 569 l 2
 579 578 586 604 586 620 c 0
 586 644 571 680 530 680 c 2
 480 680 l 1
 480 712 l 1
 750 712 l 1
 750 680 l 1
 719 680 l 2
 668 680 639 639 623 589 c 2
 426 -18 l 1
 384 -18 l 1
 158 622 l 2
 143 666 123 680 79 680 c 2
 46 680 l 1
EndSplineSet
Substitution2: "'c2sc' Capitals to Small Capitals lookup 1 subtable" v.sc
EndChar

StartChar: W
Encoding: 87 87 56
Width: 1076
GlyphClass: 2
Flags: MW
HStem: -18 21G<366 408 366 366 720 762 720 720> 680 32<44 369 44 63 330.5 340 340 369 416 433 685.5 695 695 744 788 838 1001.5 1027 1027 1058>
AnchorPoint: "Anchor-2" 572 0 basechar 0
AnchorPoint: "Anchor-1" 572 762 basechar 0
AnchorPoint: "Anchor-0" 572 782 basechar 0
LayerCount: 2
Fore
SplineSet
44 680 m 1
 44 712 l 1
 369 712 l 1
 369 680 l 1
 340 680 l 2
 321 680 309 664 309 645 c 0
 309 639 311 628 314 620 c 2
 440 235 l 1
 534 555 l 1
 512 622 l 2
 497 666 477 680 433 680 c 2
 416 680 l 1
 416 712 l 1
 744 712 l 1
 744 680 l 1
 695 680 l 2
 676 680 663 665 663 651 c 0
 663 645 664 637 666 629 c 2
 793 239 l 1
 884 568 l 2
 887 577 891 606 891 622 c 0
 891 646 879 680 838 680 c 2
 788 680 l 1
 788 712 l 1
 1058 712 l 1
 1058 680 l 1
 1027 680 l 2
 976 680 947 639 931 589 c 2
 762 -18 l 1
 720 -18 l 1
 556 488 l 1
 408 -18 l 1
 366 -18 l 1
 158 615 l 2
 144 657 121 680 63 680 c 2
 44 680 l 1
EndSplineSet
Substitution2: "'c2sc' Capitals to Small Capitals lookup 1 subtable" w.sc
EndChar

StartChar: X
Encoding: 88 88 57
Width: 750
GlyphClass: 2
Flags: MW
HStem: 0 32<52 83 52 83 83 107.5 268 312 398 431 431 441 710 730> 680 32<62 77 62 376 349.5 355 355 376 446 476 650 670 670 700>
AnchorPoint: "Anchor-2" 358 0 basechar 0
AnchorPoint: "Anchor-1" 394 762 basechar 0
AnchorPoint: "Anchor-0" 394 782 basechar 0
LayerCount: 2
Fore
SplineSet
52 0 m 1
 52 32 l 1
 83 32 l 2
 132 32 163 65 186 99 c 2
 333 322 l 1
 167 628 l 2
 150 659 125 680 77 680 c 2
 62 680 l 1
 62 712 l 1
 376 712 l 1
 376 680 l 1
 355 680 l 2
 344 680 330 671 330 652 c 0
 330 642 335 630 338 624 c 2
 426 462 l 1
 504 581 l 2
 516 599 520 618 520 636 c 0
 520 657 506 680 476 680 c 2
 446 680 l 1
 446 712 l 1
 700 712 l 1
 700 680 l 1
 670 680 l 2
 630 680 605 666 582 631 c 2
 446 425 l 1
 629 85 l 2
 650 46 683 32 710 32 c 2
 730 32 l 1
 730 0 l 1
 398 0 l 1
 398 32 l 1
 431 32 l 2
 451 32 462 46 462 68 c 0
 462 76 458 90 450 104 c 2
 353 284 l 1
 257 139 l 2
 242 116 232 94 232 76 c 0
 232 54 243 32 268 32 c 2
 312 32 l 1
 312 0 l 1
 52 0 l 1
EndSplineSet
Substitution2: "'c2sc' Capitals to Small Capitals lookup 1 subtable" x.sc
EndChar

StartChar: Y
Encoding: 89 89 58
Width: 736
GlyphClass: 2
Flags: MW
HStem: 0 32<222 286 286 295 482 546 222 286> 680 32<46 360 46 81 322 332 332 360 466 494 659.5 684 684 714>
VStem: 310 148<56 269 269 269>
AnchorPoint: "Anchor-2" 384 0 basechar 0
AnchorPoint: "Anchor-1" 404 762 basechar 0
AnchorPoint: "Anchor-0" 404 782 basechar 0
LayerCount: 2
Fore
SplineSet
46 680 m 1
 46 712 l 1
 360 712 l 1
 360 680 l 1
 332 680 l 2
 312 680 304 662 304 648 c 0
 304 640 306 628 310 620 c 2
 442 333 l 1
 534 562 l 2
 541 578 548 602 548 619 c 0
 548 647 534 680 494 680 c 2
 466 680 l 1
 466 712 l 1
 714 712 l 1
 714 680 l 1
 684 680 l 2
 635 680 606 641 593 607 c 2
 458 278 l 1
 458 56 l 2
 458 38 464 32 482 32 c 2
 546 32 l 1
 546 0 l 1
 222 0 l 1
 222 32 l 1
 286 32 l 2
 304 32 310 38 310 56 c 2
 310 269 l 1
 140 636 l 2
 124 671 108 680 81 680 c 2
 46 680 l 1
EndSplineSet
Substitution2: "'c2sc' Capitals to Small Capitals lookup 1 subtable" y.sc
EndChar

StartChar: Z
Encoding: 90 90 59
Width: 652
GlyphClass: 2
Flags: MW
HStem: 0 32<237 374 374 420 68 68> 680 32<269 294 294 420>
VStem: 88 32<456 456.5> 574 32<282 282>
AnchorPoint: "Anchor-2" 346 0 basechar 0
AnchorPoint: "Anchor-1" 346 762 basechar 0
AnchorPoint: "Anchor-0" 346 782 basechar 0
LayerCount: 2
Fore
SplineSet
374 32 m 2
 466 32 553 150 574 282 c 1
 606 282 l 1
 590 0 l 1
 68 0 l 1
 68 32 l 1
 420 680 l 1
 294 680 l 2
 244 680 176 623 143 542 c 0
 126 499 120 457 120 456 c 1
 88 456 l 1
 100 712 l 1
 588 712 l 1
 588 678 l 1
 237 32 l 1
 374 32 l 2
EndSplineSet
Substitution2: "'c2sc' Capitals to Small Capitals lookup 1 subtable" z.sc
EndChar

StartChar: bracketleft
Encoding: 91 91 60
Width: 380
GlyphClass: 2
Flags: MW
HStem: -180 28<216 310 216 310> 684 28<208 216 216 310>
VStem: 80 112<-136 -128 -128 660>
LayerCount: 2
Fore
SplineSet
80 -180 m 1
 80 712 l 1
 310 712 l 1
 310 684 l 1
 216 684 l 2
 200 684 192 676 192 660 c 2
 192 -128 l 2
 192 -144 200 -152 216 -152 c 2
 310 -152 l 1
 310 -180 l 1
 80 -180 l 1
EndSplineSet
EndChar

StartChar: backslash
Encoding: 92 92 61
Width: 450
GlyphClass: 2
Flags: MW
HStem: 710 20G<50 118 118 118>
LayerCount: 2
Fore
SplineSet
50 730 m 1
 118 730 l 1
 400 -198 l 1
 332 -198 l 1
 50 730 l 1
EndSplineSet
EndChar

StartChar: bracketright
Encoding: 93 93 62
Width: 380
GlyphClass: 2
Flags: MW
HStem: -180 28<70 164 164 172 70 300 70 164> 684 28<70 164 70 300>
VStem: 188 112<-128 660 660 668>
LayerCount: 2
Fore
SplineSet
70 -152 m 1
 164 -152 l 2
 180 -152 188 -144 188 -128 c 2
 188 660 l 2
 188 676 180 684 164 684 c 2
 70 684 l 1
 70 712 l 1
 300 712 l 1
 300 -180 l 1
 70 -180 l 1
 70 -152 l 1
EndSplineSet
EndChar

StartChar: asciicircum
Encoding: 94 94 63
Width: 580
GlyphClass: 2
Flags: MW
HStem: 710 20G<280 300 300 300>
LayerCount: 2
Fore
SplineSet
54 372 m 1
 280 730 l 1
 300 730 l 1
 526 372 l 1
 448 372 l 1
 290 622 l 1
 132 372 l 1
 54 372 l 1
EndSplineSet
EndChar

StartChar: underscore
Encoding: 95 95 64
Width: 520
GlyphClass: 2
Flags: MW
HStem: -168 64<0 520 0 520>
LayerCount: 2
Fore
SplineSet
0 -104 m 1
 520 -104 l 1
 520 -168 l 1
 0 -168 l 1
 0 -104 l 1
EndSplineSet
EndChar

StartChar: grave
Encoding: 96 96 65
AltUni2: 0002cb.ffffffff.0 0002cb.ffffffff.0
Width: 440
GlyphClass: 2
Flags: MW
HStem: 524 188<114 244>
VStem: 84 180<542 684>
LayerCount: 2
Fore
SplineSet
84 672 m 0
 84 696 102 712 126 712 c 0
 144 712 159 705 175 680 c 2
 264 542 l 1
 244 524 l 1
 112 624 l 2
 95 637 84 654 84 672 c 0
EndSplineSet
EndChar

StartChar: a
Encoding: 97 97 66
Width: 508
GlyphClass: 2
Flags: MW
HStem: -12 40<147 240> -12 48<417.5 437 417.5 438.5> 462 24<196 232.5>
VStem: 46 122<78 152 78 155> 69 75<397.5 398.5> 288 116<72 270 270 270 297 325> 460 28<117.5 135 117.5 135>
AnchorPoint: "Anchor-2" 240 0 basechar 0
AnchorPoint: "Anchor-1" 232 508 basechar 0
AnchorPoint: "Anchor-0" 232 528 basechar 0
LayerCount: 2
Fore
SplineSet
488 135 m 1x6e
 488 100 488 -12 389 -12 c 0x6e
 332 -12 310 6 292 42 c 1
 290 42 l 1
 268 12 232 -12 178 -12 c 0
 116 -12 46 13 46 106 c 0xb6
 46 204 142 246 214 271 c 2
 288 297 l 1
 288 365 l 2
 288 438 252 462 213 462 c 0
 179 462 144 446 144 415 c 0
 144 380 188 388 188 341 c 0
 188 306 157 290 132 290 c 0
 101 290 69 311 69 358 c 0
 69 439 153 486 224 486 c 0
 306 486 404 447 404 325 c 2
 404 72 l 2
 404 47 411 36 424 36 c 0
 450 36 460 90 460 135 c 1
 488 135 l 1x6e
168 115 m 0xb6
 168 41 205 28 227 28 c 0
 253 28 274 44 288 72 c 1
 288 270 l 1
 232 250 l 2
 187 234 168 189 168 115 c 0xb6
EndSplineSet
Substitution2: "'smcp' Lowercase to Small Capitals lookup 0 subtable" a.sc
EndChar

StartChar: b
Encoding: 98 98 67
Width: 528
GlyphClass: 2
Flags: MW
HStem: -12 32<263 310 263 353.5> 0 21G<84 100 84 84> 454 32<281.5 310> 688 24<12 68 12 200>
VStem: 84 116<174 312 174 417 417 672 672 678> 352 128<174 300 174 301>
AnchorPoint: "Anchor-2" 281 0 basechar 0
AnchorPoint: "Anchor-1" 142 746 basechar 0
AnchorPoint: "Anchor-0" 324 508 basechar 0
LayerCount: 2
Fore
SplineSet
200 234 m 0xbc
 200 114 240 20 286 20 c 0
 334 20 352 109 352 237 c 0
 352 365 334 454 286 454 c 0
 254 454 200 390 200 234 c 0xbc
300 -12 m 0
 206 -12 198 86 157 86 c 0
 146 86 136 76 128 58 c 2
 100 0 l 1
 84 0 l 1x7c
 84 672 l 2
 84 684 80 688 68 688 c 2
 12 688 l 1
 12 712 l 1
 200 712 l 1
 200 417 l 1
 206 415 l 1
 226 456 259 486 304 486 c 0
 411 486 480 363 480 237 c 0
 480 111 407 -12 300 -12 c 0
EndSplineSet
Substitution2: "'smcp' Lowercase to Small Capitals lookup 0 subtable" b.sc
EndChar

StartChar: c
Encoding: 99 99 68
Width: 468
GlyphClass: 2
Flags: MW
HStem: -12 30<258.5 316.5 258.5 318> 462 24<234 292.5>
VStem: 48 128<209 303.5 209 305.5> 332 72<327 417> 396 26<162 162>
AnchorPoint: "Anchor-2" 254 0 basechar 0
AnchorPoint: "Anchor-1" 248 508 basechar 0
AnchorPoint: "Anchor-0" 248 528 basechar 0
LayerCount: 2
Fore
SplineSet
276 312 m 0xf0
 276 358 332 367 332 406 c 0xf0
 332 428 318 462 267 462 c 0
 201 462 176 370 176 237 c 0
 176 181 176 138 187 99 c 0
 199 50 236 18 281 18 c 0
 352 18 389 94 396 162 c 1
 422 162 l 1xe8
 415 88 375 -12 261 -12 c 0
 133 -12 48 100 48 237 c 0
 48 374 133 486 259 486 c 0
 360 486 404 413 404 351 c 0
 404 303 370 262 329 262 c 0
 300 262 276 280 276 312 c 0xf0
EndSplineSet
Substitution2: "'smcp' Lowercase to Small Capitals lookup 0 subtable" c.sc
EndChar

StartChar: d
Encoding: 100 100 69
Width: 538
GlyphClass: 2
Flags: MW
HStem: -12 32<218 251.5> 0 24<460 516 460 516> 454 32<218 246.5 170.5 258> 688 24<256 312 256 444>
VStem: 48 128<174 300> 328 116<34 40 40 58 58 58 174 312 417 672 672 678>
AnchorPoint: "Anchor-2" 248 0 basechar 0
AnchorPoint: "Anchor-0" 168 508 basechar 0
LayerCount: 2
Fore
SplineSet
48 237 m 0xbc
 48 363 117 486 224 486 c 0
 269 486 302 456 322 415 c 1
 328 417 l 1
 328 672 l 2
 328 684 324 688 312 688 c 2
 256 688 l 1
 256 712 l 1
 444 712 l 1
 444 40 l 2
 444 28 448 24 460 24 c 2
 516 24 l 1
 516 0 l 1
 328 0 l 1x7c
 328 58 l 1
 322 58 l 1
 307 26 275 -12 228 -12 c 0
 121 -12 48 111 48 237 c 0xbc
176 237 m 0
 176 109 194 20 242 20 c 0xbc
 288 20 328 114 328 234 c 0
 328 390 274 454 242 454 c 0
 194 454 176 365 176 237 c 0
EndSplineSet
Substitution2: "'smcp' Lowercase to Small Capitals lookup 0 subtable" d.sc
EndChar

StartChar: e
Encoding: 101 101 70
Width: 472
GlyphClass: 2
Flags: MW
HStem: -12 30<258.5 316.5 258.5 318> 228 28<176 304 176 420 176 304> 462 24<214 266>
VStem: 48 128<202.5 228 256 309> 304 116<228 321> 396 26<162 162>
AnchorPoint: "Anchor-2" 252 0 basechar 0
AnchorPoint: "Anchor-1" 240 508 basechar 0
AnchorPoint: "Anchor-0" 240 528 basechar 0
LayerCount: 2
Fore
SplineSet
176 256 m 1xf8
 304 256 l 1
 304 386 292 462 240 462 c 0
 188 462 176 386 176 256 c 1xf8
48 237 m 0
 48 381 139 486 250 486 c 0
 332 486 394 422 413 328 c 0
 420 296 420 240 420 228 c 1xf8
 176 228 l 1
 176 177 176 138 187 99 c 0
 199 50 236 18 281 18 c 0
 352 18 389 94 396 162 c 1
 422 162 l 1xf4
 415 88 375 -12 261 -12 c 0
 133 -12 48 100 48 237 c 0
EndSplineSet
Substitution2: "'smcp' Lowercase to Small Capitals lookup 0 subtable" e.sc
EndChar

StartChar: f
Encoding: 102 102 71
Width: 350
GlyphClass: 2
Flags: MW
HStem: 0 24<30 86 86 92 234 290 30 86> 446 28<30 102 30 102 218 290> 696 24<267.5 288.5>
VStem: 102 116<40 446 474 522 522 564> 318 88<583 680.5>
AnchorPoint: "Anchor-2" 158 0 basechar 0
AnchorPoint: "Anchor-1" 258 752 basechar 0
AnchorPoint: "Anchor-0" 258 772 basechar 0
LayerCount: 2
Fore
SplineSet
273 584 m 0
 273 631 318 637 318 670 c 0
 318 691 296 696 281 696 c 0
 254 696 218 671 218 564 c 2
 218 474 l 1
 290 474 l 1
 290 446 l 1
 218 446 l 1
 218 40 l 2
 218 28 222 24 234 24 c 2
 290 24 l 1
 290 0 l 1
 30 0 l 1
 30 24 l 1
 86 24 l 2
 98 24 102 28 102 40 c 2
 102 446 l 1
 30 446 l 1
 30 474 l 1
 102 474 l 1
 102 522 l 2
 102 655 203 720 285 720 c 0
 360 720 406 669 406 603 c 0
 406 563 374 529 332 529 c 0
 304 529 273 548 273 584 c 0
EndSplineSet
Substitution2: "'smcp' Lowercase to Small Capitals lookup 0 subtable" f.sc
EndChar

StartChar: g
Encoding: 103 103 72
Width: 554
GlyphClass: 2
Flags: MW
HStem: -238 32<208.5 290 208.5 335> -27 112<236 311> 173 25<233.5 278 233.5 310> 462 24<233.5 278>
VStem: 42 36<-146.5 -92.5> 58 59<44.5 144> 72 122<291 375.5 284.5 377> 316 122<287.5 339 287.5 375.5> 422 67<-100 -70.5> 478 64<436 437 400 449>
AnchorPoint: "Anchor-1" 256 508 basechar 0
AnchorPoint: "Anchor-0" 256 528 basechar 0
LayerCount: 2
Fore
SplineSet
78 -115 m 0xf880
 78 -178 168 -206 249 -206 c 0
 331 -206 422 -173 422 -98 c 0
 422 -43 349 -27 273 -27 c 0
 199 -27 78 -38 78 -115 c 0xf880
194 330 m 0xf3
 194 239 211 198 256 198 c 0
 300 198 316 239 316 330 c 0
 316 421 300 462 256 462 c 0
 211 462 194 421 194 330 c 0xf3
446 381 m 0
 446 410 478 427 478 445 c 0
 478 453 473 461 457 461 c 0
 441 461 424 451 406 419 c 1
 431 392 438 356 438 322 c 0
 438 253 368 173 252 173 c 0
 188 173 117 168 117 120 c 0xf540
 117 94 138 85 166 85 c 2
 324 85 l 2
 411 85 489 45 489 -51 c 0
 489 -149 406 -238 264 -238 c 0
 147 -238 42 -194 42 -114 c 0xf880
 42 -71 76 -30 136 -16 c 1
 136 -13 l 1
 100 -10 58 20 58 69 c 0xf4
 58 134 98 172 170 186 c 1
 170 190 l 1
 128 208 72 252 72 330 c 0
 72 424 159 486 254 486 c 0
 325 486 369 456 393 434 c 1
 396 434 l 1
 415 466 440 486 470 486 c 0
 515 486 542 454 542 420 c 0xf240
 542 380 517 346 486 346 c 0
 467 346 446 358 446 381 c 0
EndSplineSet
Substitution2: "'salt' Stylistic Alternatives lookup 19 subtable" uni1D79
Substitution2: "'ss02' Style Set 2 lookup 12 subtable" uni1D79
AlternateSubs2: "'aalt' Access All Alternates lookup 2 subtable" uni1D79
Substitution2: "'smcp' Lowercase to Small Capitals lookup 0 subtable" g.sc
EndChar

StartChar: h
Encoding: 104 104 73
Width: 560
GlyphClass: 2
Flags: MW
HStem: 0 24<26 82 82 88 230 262 26 82 310 342 342 348 490 528> 454 32<314 330.5> 688 24<26 82 26 214>
VStem: 98 116<40 254 385 672 672 678> 358 116<40 348>
AnchorPoint: "Anchor-2" 272 0 basechar 0
AnchorPoint: "Anchor-1" 270 716 basechar 0
AnchorPoint: "Anchor-0" 286 736 basechar 0
LayerCount: 2
Fore
SplineSet
343 486 m 0
 472 486 474 355 474 348 c 2
 474 40 l 2
 474 28 478 24 490 24 c 2
 528 24 l 1
 528 0 l 1
 310 0 l 1
 310 24 l 1
 342 24 l 2
 354 24 358 28 358 40 c 2
 358 377 l 2
 358 418 349 454 312 454 c 0
 271 454 214 363 214 254 c 2
 214 40 l 2
 214 28 218 24 230 24 c 2
 262 24 l 1
 262 0 l 1
 26 0 l 1
 26 24 l 1
 82 24 l 2
 94 24 98 28 98 40 c 2
 98 672 l 2
 98 684 94 688 82 688 c 2
 26 688 l 1
 26 712 l 1
 214 712 l 1
 214 385 l 1
 219 384 l 1
 244 442 285 486 343 486 c 0
EndSplineSet
Substitution2: "'smcp' Lowercase to Small Capitals lookup 0 subtable" h.sc
EndChar

StartChar: i
Encoding: 105 105 74
Width: 296
GlyphClass: 2
Flags: MW
HStem: 0 24<40 78 40 78 78 84 226 264> 450 24<40 78 40 210> 576 148<127 169>
VStem: 74 148<629 671> 94 116<40 434 434 440>
AnchorPoint: "Anchor-2" 148 0 basechar 0
LayerCount: 2
Fore
SplineSet
40 0 m 1xe8
 40 24 l 1
 78 24 l 2
 90 24 94 28 94 40 c 2
 94 434 l 2
 94 446 90 450 78 450 c 2
 40 450 l 1
 40 474 l 1
 210 474 l 1
 210 40 l 2
 210 28 214 24 226 24 c 2
 264 24 l 1
 264 0 l 1
 40 0 l 1xe8
74 650 m 0xf0
 74 692 106 724 148 724 c 0
 190 724 222 692 222 650 c 0
 222 608 190 576 148 576 c 0
 106 576 74 608 74 650 c 0xf0
EndSplineSet
Substitution2: "Single Substitution lookup 31 subtable" dotlessi
AlternateSubs2: "'aalt' Access All Alternates lookup 2 subtable" dotlessi
Substitution2: "'smcp' Lowercase to Small Capitals lookup 0 subtable" i.sc
EndChar

StartChar: j
Encoding: 106 106 75
Width: 320
GlyphClass: 2
Flags: MW
HStem: -238 24<65.5 86.5 65.5 118> 450 24<48 104 48 236> 576 148<157 199>
VStem: -52 88<-198.5 -103> 104 148<629 671> 120 116<-82 -40 -40 434 434 440>
LayerCount: 2
Fore
SplineSet
81 -100 m 0xf4
 81 -148 36 -156 36 -188 c 0
 36 -209 58 -214 73 -214 c 0
 100 -214 120 -189 120 -82 c 2
 120 434 l 2xf4
 120 446 116 450 104 450 c 2xf8
 48 450 l 1
 48 474 l 1
 236 474 l 1
 236 -40 l 2
 236 -173 159 -238 77 -238 c 0
 2 -238 -52 -192 -52 -126 c 0
 -52 -80 -16 -47 22 -47 c 0
 50 -47 81 -64 81 -100 c 0xf4
104 650 m 0xf8
 104 692 136 724 178 724 c 0
 220 724 252 692 252 650 c 0
 252 608 220 576 178 576 c 0
 136 576 104 608 104 650 c 0xf8
EndSplineSet
Substitution2: "Single Substitution lookup 31 subtable" dotlessj
AlternateSubs2: "'aalt' Access All Alternates lookup 2 subtable" dotlessj
Substitution2: "'smcp' Lowercase to Small Capitals lookup 0 subtable" j.sc
EndChar

StartChar: k
Encoding: 107 107 76
Width: 560
GlyphClass: 2
Flags: MW
HStem: 0 24<26 82 26 82 82 88 232 268 309 327 327 332 519 540> 449 25<306 336 306 497 456 474 474 497> 688 24<26 82 26 214>
VStem: 98 116<40 171 213 672 672 678>
AnchorPoint: "Anchor-2" 280 0 basechar 0
AnchorPoint: "Anchor-1" 156 746 basechar 0
AnchorPoint: "Anchor-0" 156 766 basechar 0
LayerCount: 2
Fore
SplineSet
26 0 m 1
 26 24 l 1
 82 24 l 2
 94 24 98 28 98 40 c 2
 98 672 l 2
 98 684 96 688 82 688 c 2
 26 688 l 1
 26 712 l 1
 214 712 l 1
 214 213 l 1
 344 376 l 2
 357 392 364 405 364 421 c 0
 364 440 350 449 336 449 c 2
 306 449 l 1
 306 474 l 1
 497 474 l 1
 497 449 l 1
 474 449 l 2
 438 449 414 421 385 384 c 2
 326 310 l 1
 482 57 l 2
 493 39 503 24 519 24 c 2
 540 24 l 1
 540 0 l 1
 309 0 l 1
 309 24 l 1
 327 24 l 2
 337 24 352 29 352 46 c 0
 352 63 348 76 338 92 c 2
 257 224 l 1
 214 171 l 1
 214 40 l 2
 214 28 219 24 232 24 c 2
 268 24 l 1
 268 0 l 1
 26 0 l 1
EndSplineSet
Substitution2: "'smcp' Lowercase to Small Capitals lookup 0 subtable" k.sc
EndChar

StartChar: l
Encoding: 108 108 77
Width: 308
GlyphClass: 2
Flags: MW
HStem: 0 24<26 82 26 82 82 88 230 286> 688 24<26 82 26 214>
VStem: 98 116<40 672 672 678>
AnchorPoint: "Anchor-2" 156 0 basechar 0
AnchorPoint: "Anchor-1" 156 746 basechar 0
AnchorPoint: "Anchor-0" 156 766 basechar 0
LayerCount: 2
Fore
SplineSet
26 0 m 1
 26 24 l 1
 82 24 l 2
 94 24 98 28 98 40 c 2
 98 672 l 2
 98 684 94 688 82 688 c 2
 26 688 l 1
 26 712 l 1
 214 712 l 1
 214 40 l 2
 214 28 218 24 230 24 c 2
 286 24 l 1
 286 0 l 1
 26 0 l 1
EndSplineSet
Substitution2: "'smcp' Lowercase to Small Capitals lookup 0 subtable" l.sc
EndChar

StartChar: m
Encoding: 109 109 78
Width: 800
GlyphClass: 2
Flags: MW
HStem: 0 24<40 78 78 84 226 258 40 78 298 330 330 336 478 510 550 582 582 588 730 768> 450 24<40 78 40 210> 454 32<312 326 557.5 570.5>
VStem: 94 116<40 254 375 434 434 440> 346 116<40 254> 598 116<40 348>
CounterMasks: 1 1c
AnchorPoint: "Anchor-2" 404 0 basechar 0
AnchorPoint: "Anchor-1" 404 508 basechar 0
AnchorPoint: "Anchor-0" 404 528 basechar 0
LayerCount: 2
Fore
SplineSet
583 486 m 0xbc
 712 486 714 355 714 348 c 2
 714 40 l 2
 714 28 718 24 730 24 c 2
 768 24 l 1
 768 0 l 1
 550 0 l 1
 550 24 l 1
 582 24 l 2
 594 24 598 28 598 40 c 2
 598 377 l 2
 598 418 589 454 552 454 c 0
 511 454 462 363 462 254 c 2
 462 40 l 2
 462 28 466 24 478 24 c 2
 510 24 l 1
 510 0 l 1
 298 0 l 1
 298 24 l 1
 330 24 l 2
 342 24 346 28 346 40 c 2
 346 395 l 2
 346 427 344 454 308 454 c 0xbc
 266 454 210 363 210 254 c 2
 210 40 l 2
 210 28 214 24 226 24 c 2
 258 24 l 1
 258 0 l 1
 40 0 l 1
 40 24 l 1
 78 24 l 2
 90 24 94 28 94 40 c 2
 94 434 l 2
 94 446 90 450 78 450 c 2
 40 450 l 1
 40 474 l 1
 210 474 l 1xdc
 210 375 l 1
 215 374 l 1
 243 443 284 486 340 486 c 0
 433 486 451 422 460 376 c 1
 465 376 l 1
 489 442 532 486 583 486 c 0xbc
EndSplineSet
Substitution2: "'smcp' Lowercase to Small Capitals lookup 0 subtable" m.sc
EndChar

StartChar: n
Encoding: 110 110 79
Width: 556
GlyphClass: 2
Flags: MW
HStem: 0 24<40 78 78 84 226 258 40 78 306 338 338 344 486 524> 450 24<40 78 40 210> 454 32<310 326.5>
VStem: 94 116<40 254 385 434 434 440> 354 116<40 348>
AnchorPoint: "Anchor-2" 268 0 basechar 0
AnchorPoint: "Anchor-1" 278 508 basechar 0
AnchorPoint: "Anchor-0" 278 528 basechar 0
LayerCount: 2
Fore
SplineSet
339 486 m 0xb8
 468 486 470 355 470 348 c 2
 470 40 l 2
 470 28 474 24 486 24 c 2
 524 24 l 1
 524 0 l 1
 306 0 l 1
 306 24 l 1
 338 24 l 2
 350 24 354 28 354 40 c 2
 354 377 l 2
 354 418 345 454 308 454 c 0xb8
 267 454 210 363 210 254 c 2
 210 40 l 2
 210 28 214 24 226 24 c 2
 258 24 l 1
 258 0 l 1
 40 0 l 1
 40 24 l 1
 78 24 l 2
 90 24 94 28 94 40 c 2
 94 434 l 2
 94 446 90 450 78 450 c 2
 40 450 l 1
 40 474 l 1
 210 474 l 1xd8
 210 385 l 1
 215 384 l 1
 240 442 281 486 339 486 c 0xb8
EndSplineSet
Substitution2: "'smcp' Lowercase to Small Capitals lookup 0 subtable" n.sc
EndChar

StartChar: o
Encoding: 111 111 80
Width: 504
GlyphClass: 2
Flags: MW
HStem: -12 24<222 282 222 306> 462 24<222 282>
VStem: 48 128<165 309> 328 128<165 309 165 313>
AnchorPoint: "Anchor-2" 252 0 basechar 0
AnchorPoint: "Anchor-1" 252 508 basechar 0
AnchorPoint: "Anchor-0" 252 528 basechar 0
LayerCount: 2
Fore
SplineSet
48 237 m 0
 48 381 144 486 252 486 c 0
 360 486 456 381 456 237 c 0
 456 93 360 -12 252 -12 c 0
 144 -12 48 93 48 237 c 0
176 237 m 0
 176 85 192 12 252 12 c 0
 312 12 328 85 328 237 c 0
 328 389 312 462 252 462 c 0
 192 462 176 389 176 237 c 0
EndSplineSet
Substitution2: "'smcp' Lowercase to Small Capitals lookup 0 subtable" o.sc
EndChar

StartChar: p
Encoding: 112 112 81
Width: 544
GlyphClass: 2
Flags: MW
HStem: -228 24<28 84 84 90 232 288 28 84> -12 32<297.5 326 286 373.5> 450 24<28 84 28 216> 454 32<292.5 326>
VStem: 100 116<-188 57 162 300 416 434 434 440> 368 128<174 300 174 301>
AnchorPoint: "Anchor-2" 386 0 basechar 0
AnchorPoint: "Anchor-1" 272 508 basechar 0
AnchorPoint: "Anchor-0" 272 528 basechar 0
LayerCount: 2
Fore
SplineSet
28 -204 m 1xdc
 84 -204 l 2
 96 -204 100 -200 100 -188 c 2
 100 434 l 2
 100 446 96 450 84 450 c 2
 28 450 l 1
 28 474 l 1
 216 474 l 1xec
 216 416 l 1
 222 416 l 1
 237 448 269 486 316 486 c 0
 423 486 496 363 496 237 c 0
 496 111 427 -12 320 -12 c 0
 275 -12 242 18 222 59 c 1
 216 57 l 1
 216 -188 l 2
 216 -200 220 -204 232 -204 c 2
 288 -204 l 1
 288 -228 l 1
 28 -228 l 1
 28 -204 l 1xdc
216 240 m 0
 216 84 270 20 302 20 c 0
 350 20 368 109 368 237 c 0
 368 365 350 454 302 454 c 0xdc
 256 454 216 360 216 240 c 0
EndSplineSet
Substitution2: "'smcp' Lowercase to Small Capitals lookup 0 subtable" p.sc
EndChar

StartChar: q
Encoding: 113 113 82
Width: 524
GlyphClass: 2
Flags: MW
HStem: -228 24<256 312 312 318 460 498 256 312> -12 32<218 246.5> 454 20G 454 32<218 265>
VStem: 48 128<174 300> 328 116<-188 57 57 57 162 300>
AnchorPoint: "Anchor-1" 224 508 basechar 0
AnchorPoint: "Anchor-0" 224 528 basechar 0
LayerCount: 2
Fore
SplineSet
176 237 m 0xdc
 176 109 194 20 242 20 c 0
 274 20 328 84 328 240 c 0
 328 360 288 454 242 454 c 0
 194 454 176 365 176 237 c 0xdc
228 486 m 0
 322 486 330 388 371 388 c 0
 382 388 392 398 400 416 c 2
 428 474 l 1
 444 474 l 1xec
 444 -188 l 2
 444 -200 448 -204 460 -204 c 2
 498 -204 l 1
 498 -228 l 1
 256 -228 l 1
 256 -204 l 1
 312 -204 l 2
 324 -204 328 -200 328 -188 c 2
 328 57 l 1
 322 59 l 1
 302 18 269 -12 224 -12 c 0
 117 -12 48 111 48 237 c 0
 48 363 121 486 228 486 c 0
EndSplineSet
Substitution2: "'smcp' Lowercase to Small Capitals lookup 0 subtable" q.sc
EndChar

StartChar: r
Encoding: 114 114 83
Width: 434
GlyphClass: 2
Flags: MW
HStem: 0 24<40 78 78 84 226 258 40 78> 446 40<300.5 301> 450 24<40 78 40 210>
VStem: 94 116<40 241 375 434 434 440> 308 100<370 438.5>
AnchorPoint: "Anchor-2" 152 0 basechar 0
AnchorPoint: "Anchor-1" 238 508 basechar 0
AnchorPoint: "Anchor-0" 238 528 basechar 0
LayerCount: 2
Fore
SplineSet
270 361 m 0xd8
 270 398 308 420 308 436 c 0
 308 441 305 446 297 446 c 0xd8
 256 446 210 350 210 241 c 2
 210 40 l 2
 210 28 214 24 226 24 c 2
 258 24 l 1
 258 0 l 1
 40 0 l 1
 40 24 l 1
 78 24 l 2
 90 24 94 28 94 40 c 2
 94 434 l 2
 94 446 90 450 78 450 c 2
 40 450 l 1
 40 474 l 1
 210 474 l 1xb8
 210 375 l 1
 215 374 l 1
 234 430 275 486 326 486 c 0
 375 486 408 446 408 394 c 0
 408 346 377 304 335 304 c 0
 299 304 270 329 270 361 c 0xd8
EndSplineSet
Substitution2: "'smcp' Lowercase to Small Capitals lookup 0 subtable" r.sc
EndChar

StartChar: s
Encoding: 115 115 84
Width: 430
GlyphClass: 2
Flags: MW
HStem: -12 24<228.5 288 228.5 298> 456 20G<338 362> 462 24<172 211>
VStem: 58 68<383.5 392.5> 334 64<79 92> 340 22<316 476>
AnchorPoint: "Anchor-2" 232 0 basechar 0
AnchorPoint: "Anchor-1" 212 508 basechar 0
AnchorPoint: "Anchor-0" 212 528 basechar 0
LayerCount: 2
Fore
SplineSet
260 -12 m 0xb8
 185 -12 144 36 120 36 c 0
 102 36 88 24 83 9 c 2
 76 -12 l 1
 58 -12 l 1
 58 186 l 1
 80 186 l 1
 125 107 l 2
 154 56 196 12 261 12 c 0
 315 12 334 46 334 72 c 0
 334 112 308 130 209 178 c 0
 154 205 58 254 58 350 c 0
 58 435 120 486 192 486 c 0xb8
 260 486 297 440 322 440 c 0
 332 440 336 448 338 456 c 2
 344 476 l 1
 362 476 l 1
 362 316 l 1
 340 316 l 1xd4
 321 354 l 2
 284 428 234 462 188 462 c 0
 156 462 126 448 126 407 c 0
 126 360 175 325 232 298 c 0
 352 240 398 205 398 122 c 0
 398 36 336 -12 260 -12 c 0xb8
EndSplineSet
Substitution2: "'smcp' Lowercase to Small Capitals lookup 0 subtable" s.sc
EndChar

StartChar: t
Encoding: 116 116 85
Width: 364
GlyphClass: 2
Flags: MW
HStem: -12 44<221.5 261> 446 28<20 80 20 20 196 298>
VStem: 80 116<112 446> 148 48<630 666> 312 28<188 218>
AnchorPoint: "Anchor-2" 198 0 basechar 0
AnchorPoint: "Anchor-1" 168 702 basechar 0
AnchorPoint: "Anchor-0" 168 722 basechar 0
LayerCount: 2
Fore
SplineSet
340 218 m 1xe8
 340 70 310 -12 212 -12 c 0
 128 -12 80 34 80 112 c 2
 80 446 l 1xe8
 20 446 l 1
 20 474 l 1
 97 484 148 540 148 630 c 2
 148 666 l 1
 196 666 l 1
 196 474 l 1xd8
 298 474 l 1
 298 446 l 1
 196 446 l 1
 196 105 l 2
 196 71 201 32 242 32 c 0
 307 32 312 158 312 218 c 1
 340 218 l 1xe8
EndSplineSet
Substitution2: "'smcp' Lowercase to Small Capitals lookup 0 subtable" t.sc
EndChar

StartChar: u
Encoding: 117 117 86
Width: 550
GlyphClass: 2
Flags: MW
HStem: -12 32<231.5 248> 0 24<480 518 480 518> 450 24<24 72 24 204 284 332>
VStem: 88 116<126 434 434 440> 348 116<34 40 40 89 89 89 220 434 434 440>
AnchorPoint: "Anchor-2" 276 0 basechar 0
AnchorPoint: "Anchor-1" 256 508 basechar 0
AnchorPoint: "Anchor-0" 256 528 basechar 0
LayerCount: 2
Fore
SplineSet
219 -12 m 0xb8
 90 -12 88 119 88 126 c 2
 88 434 l 2
 88 446 84 450 72 450 c 2
 24 450 l 1
 24 474 l 1
 204 474 l 1
 204 97 l 2
 204 56 213 20 250 20 c 0xb8
 291 20 348 111 348 220 c 2
 348 434 l 2
 348 446 344 450 332 450 c 2
 284 450 l 1
 284 474 l 1
 464 474 l 1
 464 40 l 2
 464 28 468 24 480 24 c 2
 518 24 l 1
 518 0 l 1
 348 0 l 1x78
 348 89 l 1
 343 90 l 1
 318 32 277 -12 219 -12 c 0xb8
EndSplineSet
Substitution2: "'smcp' Lowercase to Small Capitals lookup 0 subtable" u.sc
EndChar

StartChar: v
Encoding: 118 118 87
Width: 530
GlyphClass: 2
Flags: MW
HStem: -12 21G<246 278 246 246> 450 24<18 263 18 35 228.5 234 234 263 330 356 467 478 478 500>
AnchorPoint: "Anchor-2" 266 0 basechar 0
AnchorPoint: "Anchor-1" 280 508 basechar 0
AnchorPoint: "Anchor-0" 280 528 basechar 0
LayerCount: 2
Fore
SplineSet
18 450 m 1
 18 474 l 1
 263 474 l 1
 263 450 l 1
 234 450 l 2
 223 450 210 441 210 424 c 0
 210 418 212 408 216 396 c 2
 305 149 l 1
 384 368 l 2
 389 384 391 396 391 412 c 0
 391 430 377 450 356 450 c 2
 330 450 l 1
 330 474 l 1
 500 474 l 1
 500 450 l 1
 478 450 l 2
 456 450 437 430 422 388 c 2
 278 -12 l 1
 246 -12 l 1
 99 392 l 2
 85 431 72 450 35 450 c 2
 18 450 l 1
EndSplineSet
Substitution2: "'smcp' Lowercase to Small Capitals lookup 0 subtable" v.sc
EndChar

StartChar: w
Encoding: 119 119 88
Width: 776
GlyphClass: 2
Flags: MW
HStem: -12 21G<246 278 246 246 498 530 498 498> 450 24<18 249 18 35 224.5 230 230 249 294 307 492.5 498 498 527 582 608 719 730 730 752>
AnchorPoint: "Anchor-2" 408 0 basechar 0
AnchorPoint: "Anchor-1" 408 508 basechar 0
AnchorPoint: "Anchor-0" 408 528 basechar 0
LayerCount: 2
Fore
SplineSet
18 450 m 1
 18 474 l 1
 249 474 l 1
 249 450 l 1
 230 450 l 2
 219 450 210 441 210 424 c 0
 210 418 212 408 216 396 c 2
 306 145 l 1
 379 349 l 1
 364 392 l 2
 350 431 336 450 307 450 c 2
 294 450 l 1
 294 474 l 1
 527 474 l 1
 527 450 l 1
 498 450 l 2
 487 450 474 441 474 424 c 0
 474 418 476 408 480 396 c 2
 560 158 l 1
 636 369 l 2
 641 385 643 398 643 414 c 0
 643 431 629 450 608 450 c 2
 582 450 l 1
 582 474 l 1
 752 474 l 1
 752 450 l 1
 730 450 l 2
 708 450 689 430 674 388 c 2
 530 -12 l 1
 498 -12 l 1
 393 307 l 1
 278 -12 l 1
 246 -12 l 1
 100 392 l 2
 86 431 72 450 35 450 c 2
 18 450 l 1
EndSplineSet
Substitution2: "'smcp' Lowercase to Small Capitals lookup 0 subtable" w.sc
EndChar

StartChar: x
Encoding: 120 120 89
Width: 520
GlyphClass: 2
Flags: MW
HStem: 0 24<24 62 24 62 62 76 191 228 273 288 288 292.5 484 500> 450 24<24 46 24 253 236 239 239 253 293 333 432.5 443 443 470>
AnchorPoint: "Anchor-2" 264 0 basechar 0
AnchorPoint: "Anchor-1" 276 508 basechar 0
AnchorPoint: "Anchor-0" 276 528 basechar 0
LayerCount: 2
Fore
SplineSet
24 0 m 1
 24 24 l 1
 62 24 l 2
 90 24 117 62 132 84 c 2
 216 204 l 1
 89 414 l 2
 78 433 67 450 46 450 c 2
 24 450 l 1
 24 474 l 1
 253 474 l 1
 253 450 l 1
 239 450 l 2
 233 450 220 446 220 428 c 0
 220 421 222 413 228 404 c 2
 287 306 l 1
 348 395 l 2
 356 407 360 419 360 429 c 0
 360 444 344 450 333 450 c 2
 293 450 l 1
 293 474 l 1
 470 474 l 1
 470 450 l 1
 443 450 l 2
 422 450 403 423 382 393 c 2
 303 279 l 1
 433 64 l 2
 442 49 458 24 484 24 c 2
 500 24 l 1
 500 0 l 1
 273 0 l 1
 273 24 l 1
 288 24 l 2
 297 24 303 32 303 45 c 0
 303 49 302 61 293 75 c 2
 232 177 l 1
 178 99 l 2
 171 89 166 73 166 56 c 0
 166 37 178 24 191 24 c 2
 228 24 l 1
 228 0 l 1
 24 0 l 1
EndSplineSet
Substitution2: "'smcp' Lowercase to Small Capitals lookup 0 subtable" x.sc
EndChar

StartChar: y
Encoding: 121 121 90
Width: 524
GlyphClass: 2
Flags: MW
HStem: -238 32<170.5 181.5> 450 24<12 27 12 257 222.5 228 228 257 329 355 461 472 472 494>
VStem: 60 96<-173.5 -169.5 -187 -125.5>
AnchorPoint: "Anchor-2" 388 0 basechar 0
AnchorPoint: "Anchor-1" 270 508 basechar 0
AnchorPoint: "Anchor-0" 270 528 basechar 0
LayerCount: 2
Fore
SplineSet
189 -114 m 0
 189 -152 156 -157 156 -182 c 0
 156 -192 162 -206 179 -206 c 0
 205 -206 220 -161 229 -132 c 2
 262 -22 l 1
 89 392 l 2
 73 430 63 450 27 450 c 2
 12 450 l 1
 12 474 l 1
 257 474 l 1
 257 450 l 1
 228 450 l 2
 217 450 204 441 204 424 c 0
 204 418 206 408 211 396 c 2
 314 149 l 1
 379 368 l 2
 383 384 386 396 386 412 c 0
 386 430 376 450 355 450 c 2
 329 450 l 1
 329 474 l 1
 494 474 l 1
 494 450 l 1
 472 450 l 2
 450 450 425 431 412 388 c 2
 260 -117 l 2
 243 -175 212 -238 151 -238 c 0
 95 -238 60 -200 60 -147 c 0
 60 -104 90 -64 134 -64 c 0
 167 -64 189 -87 189 -114 c 0
EndSplineSet
Substitution2: "'smcp' Lowercase to Small Capitals lookup 0 subtable" y.sc
EndChar

StartChar: z
Encoding: 122 122 91
Width: 460
GlyphClass: 2
Flags: MW
HStem: 0 24<160 246 246 280.5> 450 24<160.5 214 214 282>
VStem: 60 24<298 298> 388 24<208 208>
AnchorPoint: "Anchor-2" 224 0 basechar 0
AnchorPoint: "Anchor-1" 238 508 basechar 0
AnchorPoint: "Anchor-0" 238 528 basechar 0
LayerCount: 2
Fore
SplineSet
246 24 m 2
 315 24 384 104 388 208 c 1
 412 208 l 1
 406 0 l 1
 32 0 l 1
 32 26 l 1
 282 450 l 1
 214 450 l 2
 107 450 86 314 84 298 c 1
 60 298 l 1
 66 474 l 1
 414 474 l 1
 414 454 l 1
 160 24 l 1
 246 24 l 2
EndSplineSet
Substitution2: "'smcp' Lowercase to Small Capitals lookup 0 subtable" z.sc
EndChar

StartChar: braceleft
Encoding: 123 123 92
Width: 420
GlyphClass: 2
Flags: MW
HStem: -198 28<346 354> 253 26<42 71> 702 28<346 354>
VStem: 140 112<-30 122 363 410 410 562 562 604>
CounterMasks: 1 e0
LayerCount: 2
Fore
SplineSet
42 253 m 1
 42 279 l 1
 100 279 140 288 140 360 c 2
 140 562 l 2
 140 668 232 708 346 730 c 1
 354 702 l 1
 286 688 252 671 252 604 c 2
 252 410 l 2
 252 316 198 281 137 267 c 1
 137 265 l 1
 198 251 252 216 252 122 c 2
 252 -72 l 2
 252 -139 286 -156 354 -170 c 1
 346 -198 l 1
 232 -176 140 -136 140 -30 c 2
 140 172 l 2
 140 244 100 253 42 253 c 1
EndSplineSet
EndChar

StartChar: bar
Encoding: 124 124 93
Width: 284
GlyphClass: 2
Flags: MW
HStem: 710 20G<108 176 176 176>
VStem: 108 68<-198 730 -198 730>
LayerCount: 2
Fore
SplineSet
108 -198 m 1
 108 730 l 1
 176 730 l 1
 176 -198 l 1
 108 -198 l 1
EndSplineSet
EndChar

StartChar: braceright
Encoding: 125 125 94
Width: 420
GlyphClass: 2
Flags: MW
HStem: -198 28<66 74> 253 26<349 378> 702 28<66 74>
VStem: 168 112<-72 -30 -30 122 122 169 410 562>
CounterMasks: 1 e0
LayerCount: 2
Fore
SplineSet
66 -170 m 1
 134 -156 168 -139 168 -72 c 2
 168 122 l 2
 168 216 222 251 283 265 c 1
 283 267 l 1
 222 281 168 316 168 410 c 2
 168 604 l 2
 168 671 134 688 66 702 c 1
 74 730 l 1
 188 708 280 668 280 562 c 2
 280 360 l 2
 280 288 320 279 378 279 c 1
 378 253 l 1
 320 253 280 244 280 172 c 2
 280 -30 l 2
 280 -136 188 -176 74 -198 c 1
 66 -170 l 1
EndSplineSet
EndChar

StartChar: asciitilde
Encoding: 126 126 95
Width: 660
GlyphClass: 2
Flags: MW
HStem: 164 80<491 536.5> 282 80<125.5 171>
VStem: 48 36<230 254.5 225 276.5> 578 36<271.5 296 249.5 301>
LayerCount: 2
Fore
SplineSet
498 164 m 0
 377 164 218 282 124 282 c 0
 104 282 84 269 84 240 c 0
 84 210 101 193 126 180 c 1
 112 159 l 1
 70 178 48 211 48 249 c 0
 48 304 87 362 164 362 c 0
 285 362 444 244 538 244 c 0
 558 244 578 257 578 286 c 0
 578 316 561 333 536 346 c 1
 550 367 l 1
 592 348 614 315 614 277 c 0
 614 222 575 164 498 164 c 0
EndSplineSet
EndChar

StartChar: exclamdown
Encoding: 161 161 97
Width: 280
GlyphClass: 2
Flags: MW
HStem: -238 21G<117 163> 348 156<117.5 162.5>
VStem: 58 164<-172 -97>
LayerCount: 2
Fore
SplineSet
218 426 m 0
 218 381 185 348 140 348 c 0
 95 348 62 381 62 426 c 0
 62 471 95 504 140 504 c 0
 185 504 218 471 218 426 c 0
222 -140 m 0
 222 -204 186 -238 140 -238 c 0
 94 -238 58 -204 58 -140 c 0
 58 -54 101 52 112 142 c 2
 128 287 l 1
 152 287 l 1
 168 142 l 2
 175 65 222 -51 222 -140 c 0
EndSplineSet
EndChar

StartChar: cent
Encoding: 162 162 98
Width: 580
GlyphClass: 2
Flags: MW
HStem: -11 29<334 370> 461 24<334 334>
VStem: 102 128<191.5 293.5 191.5 302> 294 40<-120 -11 -120 -11 28 456 456 456 485 594> 390 68<335 416> 450 26<162 162>
LayerCount: 2
Fore
SplineSet
230 237 m 0xf0
 230 146 230 60 294 28 c 1
 294 456 l 1
 248 433 230 350 230 237 c 0xf0
350 329 m 0
 350 364 390 382 390 406 c 0xf8
 390 426 375 456 334 461 c 1
 334 18 l 1
 406 18 443 94 450 162 c 1
 476 162 l 1xf4
 469 92 434 -1 334 -11 c 1
 334 -120 l 1
 294 -120 l 1
 294 -11 l 1
 178 1 102 108 102 237 c 0
 102 367 179 474 294 485 c 1
 294 594 l 1
 334 594 l 1
 334 485 l 1
 420 476 458 409 458 351 c 0xf8
 458 319 439 280 398 280 c 0
 369 280 350 299 350 329 c 0
EndSplineSet
EndChar

StartChar: sterling
Encoding: 163 163 99
Width: 720
GlyphClass: 2
Flags: MW
HStem: -18 98<465 508> -12 24<148 179.5 148 185.5> 110 40<136 167.5> 348 36<449 468 440.5 481> 382 36<196 211 183 220.5> 702 26<445 513>
VStem: 64 28<40 74.5 40 90.5> 236 148<513 563> 296 106<156.5 286> 568 86<567 662.5>
LayerCount: 2
Fore
SplineSet
92 59 m 0x6640
 92 21 134 12 162 12 c 0
 197 12 235 30 262 63 c 1
 223 88 185 110 150 110 c 0
 116 110 92 90 92 59 c 0x6640
517 557 m 0
 517 613 568 603 568 653 c 0
 568 672 544 702 482 702 c 0
 408 702 384 615 384 536 c 0x6f40
 384 490 389 438 394 389 c 1
 413 386 432 384 449 384 c 0
 487 384 505 394 525 406 c 1
 541 376 l 1
 528 363 503 348 459 348 c 0
 439 348 418 350 398 353 c 1
 400 329 402 298 402 274 c 0
 402 214 380 151 344 100 c 1
 396 86 438 80 492 80 c 0
 558 80 617 123 651 181 c 1
 676 170 l 1
 645 90 571 -18 445 -18 c 0xb6c0
 395 -18 339 12 293 42 c 1
 254 9 209 -12 162 -12 c 0
 112 -12 64 8 64 65 c 0
 64 116 116 150 156 150 c 0
 202 150 239 137 290 117 c 1
 294 132 296 148 296 165 c 0x66c0
 296 248 263 306 248 380 c 1
 237 381 226 382 215 382 c 0
 177 382 163 374 139 360 c 1
 123 390 l 1
 139 404 161 418 205 418 c 0
 217 418 229 417 241 416 c 1
 238 437 236 460 236 484 c 0x6f40
 236 642 351 728 482 728 c 0
 595 728 654 650 654 589 c 0
 654 545 619 504 577 504 c 0
 550 504 517 524 517 557 c 0
EndSplineSet
EndChar

StartChar: currency
Encoding: 164 164 100
Width: 580
GlyphClass: 2
Flags: MW
HStem: 110 64<263 317> 512 64<263.5 316.5 263.5 340>
VStem: 58 64<315.5 368.5> 458 64<315.5 368.5 315.5 392>
LayerCount: 2
Fore
SplineSet
38 133 m 1
 106 201 l 1
 76 240 58 289 58 342 c 0
 58 395 76 445 106 485 c 1
 38 553 l 1
 80 595 l 1
 148 527 l 1
 187 558 237 576 290 576 c 0
 343 576 393 558 432 527 c 1
 500 595 l 1
 542 553 l 1
 474 485 l 1
 504 445 522 395 522 342 c 0
 522 289 504 240 474 201 c 1
 542 133 l 1
 500 91 l 1
 432 159 l 1
 393 128 344 110 290 110 c 0
 236 110 187 128 148 159 c 1
 80 91 l 1
 38 133 l 1
122 342 m 0
 122 242 190 174 290 174 c 0
 390 174 458 242 458 342 c 0
 458 442 390 512 290 512 c 0
 190 512 122 442 122 342 c 0
EndSplineSet
EndChar

StartChar: yen
Encoding: 165 165 101
Width: 580
GlyphClass: 2
Flags: MW
HStem: 0 32<116 188 188 196 384 456 116 188> 228 32<72 212 72 212 360 500> 326 32<72 203 72 212 72 203 360 500> 680 32<18 282 18 36 252 258 258 282 385 410 530 546 546 562>
VStem: 212 148<56 228 260 326>
LayerCount: 2
Fore
SplineSet
18 680 m 1
 18 712 l 1
 282 712 l 1
 282 680 l 1
 258 680 l 2
 246 680 239 669 239 656 c 0
 239 650 241 642 246 632 c 2
 346 402 l 1
 430 582 l 2
 436 595 442 620 442 638 c 0
 442 650 435 680 410 680 c 2
 385 680 l 1
 385 712 l 1
 562 712 l 1
 562 680 l 1
 546 680 l 2
 514 680 492 637 477 605 c 2
 360 358 l 1
 500 358 l 1
 500 326 l 1
 360 326 l 1
 360 260 l 1
 500 260 l 1
 500 228 l 1
 360 228 l 1
 360 56 l 2
 360 40 368 32 384 32 c 2
 456 32 l 1
 456 0 l 1
 116 0 l 1
 116 32 l 1
 188 32 l 2
 204 32 212 40 212 56 c 2
 212 228 l 1
 72 228 l 1
 72 260 l 1
 212 260 l 1
 212 326 l 1
 72 326 l 1
 72 358 l 1
 203 358 l 1
 80 641 l 2
 70 663 58 680 36 680 c 2
 18 680 l 1
EndSplineSet
EndChar

StartChar: brokenbar
Encoding: 166 166 102
Width: 284
GlyphClass: 2
Flags: MW
HStem: -168 21G<108 108 108 176> 710 20G<108 176 176 176>
VStem: 108 68<-168 192 -168 192 370 730>
LayerCount: 2
Fore
SplineSet
108 370 m 1
 108 730 l 1
 176 730 l 1
 176 370 l 1
 108 370 l 1
108 -168 m 1
 108 192 l 1
 176 192 l 1
 176 -168 l 1
 108 -168 l 1
EndSplineSet
EndChar

StartChar: section
Encoding: 167 167 103
Width: 640
GlyphClass: 2
Flags: MW
HStem: -198 28<247 296 247 318> 696 28<258 307>
VStem: 50 56<236.5 350> 92 80<-140 -34.5 556 596.5> 382 80<-70.5 -30> 448 56<176 289.5>
LayerCount: 2
Fore
SplineSet
106 337 m 0xe4
 106 307 118 282 142 270 c 2
 342 174 l 2
 371 160 394 144 413 124 c 1
 440 145 448 163 448 189 c 0
 448 219 436 244 412 256 c 2
 212 352 l 2
 183 366 160 382 141 402 c 1
 114 381 106 363 106 337 c 0xe4
50 274 m 0
 50 338 86 390 127 419 c 1
 104 451 92 491 92 543 c 0
 92 650 181 724 291 724 c 0
 405 724 462 654 462 590 c 0
 462 531 422 494 374 494 c 0
 336 494 311 518 311 552 c 0
 311 582 327 597 348 609 c 0
 363 618 382 634 382 650 c 0xd8
 382 682 325 696 289 696 c 0
 227 696 172 658 172 586 c 0
 172 526 201 498 247 476 c 2
 398 405 l 2
 464 374 504 327 504 252 c 0xd4
 504 188 468 136 427 107 c 1
 450 75 462 35 462 -17 c 0
 462 -124 373 -198 263 -198 c 0
 149 -198 92 -128 92 -64 c 0
 92 -5 132 32 180 32 c 0
 218 32 243 8 243 -26 c 0
 243 -56 227 -71 206 -83 c 0
 191 -92 172 -108 172 -124 c 0
 172 -156 229 -170 265 -170 c 0
 327 -170 382 -132 382 -60 c 0xd8
 382 0 353 28 307 50 c 2
 156 121 l 2
 90 152 50 199 50 274 c 0
EndSplineSet
EndChar

StartChar: dieresis
Encoding: 168 168 104
Width: 440
GlyphClass: 2
Flags: MW
HStem: 558 120<107.5 140.5 299.5 332.5>
VStem: 64 120<601.5 634.5> 256 120<601.5 634.5>
LayerCount: 2
Fore
SplineSet
64 618 m 0
 64 651 91 678 124 678 c 0
 157 678 184 651 184 618 c 0
 184 585 157 558 124 558 c 0
 91 558 64 585 64 618 c 0
256 618 m 0
 256 651 283 678 316 678 c 0
 349 678 376 651 376 618 c 0
 376 585 349 558 316 558 c 0
 283 558 256 585 256 618 c 0
EndSplineSet
EndChar

StartChar: copyright
Encoding: 169 169 105
Width: 820
GlyphClass: 2
Flags: MW
HStem: -18 36<318 502 318 513> 110 28<405 475 405 482.5> 566 28<398.5 434.5 344 444.5> 694 36<318 502>
VStem: 48 40<264 448 264 459> 220 128<290.5 416> 538 24<390 588> 550 26<300 300> 732 40<264 448>
LayerCount: 2
Fore
SplineSet
576 300 m 1xfd80
 573 253 554 110 411 110 c 0
 283 110 220 230 220 351 c 0
 220 481 287 594 401 594 c 0
 468 594 495 552 513 552 c 0
 521 552 525 557 528 565 c 2
 537 588 l 1
 562 588 l 1
 562 390 l 1
 538 390 l 1xfe80
 520 499 474 566 415 566 c 0
 382 566 348 538 348 447 c 2
 348 256 l 2
 348 165 388 138 422 138 c 0
 528 138 544 252 550 300 c 1
 576 300 l 1xfd80
48 356 m 0
 48 562 204 730 410 730 c 0
 616 730 772 562 772 356 c 0
 772 150 616 -18 410 -18 c 0
 204 -18 48 150 48 356 c 0
88 356 m 0
 88 172 226 18 410 18 c 0
 594 18 732 172 732 356 c 0
 732 540 594 694 410 694 c 0
 226 694 88 540 88 356 c 0
EndSplineSet
EndChar

StartChar: ordfeminine
Encoding: 170 170 106
Width: 380
GlyphClass: 2
Flags: MW
HStem: 354 32<52 328 52 328> 410 30<110.5 170> 694 18<145.5 168>
VStem: 44 88<469 511.5 469 514> 60 54<656.5 659.5> 198 84<463 467 467 581 581 581 599 625> 316 20<491.5 504 491.5 504>
LayerCount: 2
Fore
SplineSet
336 504 m 1xee
 336 479 336 410 268 410 c 0
 231 410 214 423 201 447 c 1
 200 447 l 1
 187 427 162 410 130 410 c 0
 91 410 44 425 44 483 c 0xf6
 44 545 109 568 159 585 c 2
 198 599 l 1
 198 639 l 2
 198 680 180 694 156 694 c 0
 135 694 114 685 114 667 c 0
 114 646 143 651 143 624 c 0
 143 603 122 594 104 594 c 0
 83 594 60 607 60 635 c 0
 60 684 115 712 163 712 c 0
 219 712 282 690 282 625 c 2
 282 467 l 2
 282 453 287 446 295 446 c 0
 310 446 316 477 316 504 c 1
 336 504 l 1xee
132 490 m 0
 132 448 151 440 162 440 c 0
 178 440 189 448 198 463 c 1
 198 581 l 1
 170 571 l 2
 143 561 132 533 132 490 c 0
52 354 m 1
 52 386 l 1
 328 386 l 1
 328 354 l 1
 52 354 l 1
EndSplineSet
EndChar

StartChar: guillemotleft
Encoding: 171 171 107
Width: 480
GlyphClass: 2
Flags: MW
VStem: 108 88<184 290> 265 72<205 269 205 281.5>
LayerCount: 2
Fore
SplineSet
108 237 m 0
 108 343 166 406 232 446 c 1
 248 430 l 1
 204 382 196 349 196 237 c 0
 196 125 204 92 248 44 c 1
 232 28 l 1
 166 68 108 131 108 237 c 0
265 237 m 0
 265 326 310 381 360 428 c 1
 376 412 l 1
 338 362 337 301 337 237 c 0
 337 173 338 112 376 62 c 1
 360 46 l 1
 330 71 265 145 265 237 c 0
EndSplineSet
EndChar

StartChar: logicalnot
Encoding: 172 172 108
Width: 580
GlyphClass: 2
Flags: MW
HStem: 345 64<40 540 40 472>
VStem: 472 68<137 345 345 345>
LayerCount: 2
Fore
SplineSet
40 345 m 1
 40 409 l 1
 540 409 l 1
 540 137 l 1
 472 137 l 1
 472 345 l 1
 40 345 l 1
EndSplineSet
EndChar

StartChar: softhyphen
Encoding: 173 173 109
Width: 370
GlyphClass: 2
Flags: MW
HStem: 208 102<56 314 56 314>
VStem: 56 258<208 310 208 310>
LayerCount: 2
Fore
SplineSet
56 208 m 1
 56 310 l 1
 314 310 l 1
 314 208 l 1
 56 208 l 1
EndSplineSet
EndChar

StartChar: registered
Encoding: 174 174 110
Width: 820
GlyphClass: 2
Flags: MW
HStem: -18 36<318 502 318 513> 112 42<586.5 596> 130 24<204 244 204 244 244 250 392 440> 360 25<374 407 374 414> 562 24<204 244 204 428 386 392 392 414> 694 36<318 502>
VStem: 48 40<264 448 264 459> 262 112<172 360 385 544> 464 112<208 249 170.5 287 170.5 305.5> 472 120<451 503.5> 622 24<224 246> 732 40<264 448>
LayerCount: 2
Fore
SplineSet
204 130 m 1xbfb0
 204 154 l 1
 244 154 l 2
 256 154 262 160 262 172 c 2
 262 544 l 2
 262 556 256 562 244 562 c 2
 204 562 l 1
 204 586 l 1
 428 586 l 2
 525 586 592 543 592 473 c 0xbf70
 592 411 533 378 456 370 c 1
 456 365 l 1
 525 354 576 327 576 249 c 2
 576 180 l 2xbfb0
 576 161 581 154 592 154 c 0
 615 154 622 202 622 246 c 1
 646 246 l 1
 646 170 630 112 562 112 c 0xdf70
 505 112 464 143 464 208 c 2
 464 287 l 2
 464 324 449 360 407 360 c 2
 374 360 l 1
 374 172 l 2
 374 160 380 154 392 154 c 2
 440 154 l 1
 440 130 l 1
 204 130 l 1xbfb0
374 385 m 1
 414 385 l 2
 460 385 472 425 472 477 c 0
 472 530 460 562 414 562 c 2
 392 562 l 2
 380 562 374 556 374 544 c 2
 374 385 l 1
48 356 m 0
 48 562 204 730 410 730 c 0
 616 730 772 562 772 356 c 0
 772 150 616 -18 410 -18 c 0
 204 -18 48 150 48 356 c 0
88 356 m 0
 88 172 226 18 410 18 c 0
 594 18 732 172 732 356 c 0
 732 540 594 694 410 694 c 0
 226 694 88 540 88 356 c 0
EndSplineSet
EndChar

StartChar: macron
Encoding: 175 175 111
AltUni2: 0002c9.ffffffff.0 0002c9.ffffffff.0
Width: 440
GlyphClass: 2
Flags: MW
HStem: 584 64<90 350 90 350>
VStem: 90 260<584 648 584 648>
LayerCount: 2
Fore
SplineSet
90 584 m 1
 90 648 l 1
 350 648 l 1
 350 584 l 1
 90 584 l 1
EndSplineSet
EndChar

StartChar: degree
Encoding: 176 176 112
Width: 580
GlyphClass: 2
Flags: MW
HStem: 408 56<260 320 260 334> 672 56<260 320>
VStem: 130 56<538 598 538 612> 394 56<538 598>
LayerCount: 2
Fore
SplineSet
186 568 m 0
 186 508 230 464 290 464 c 0
 350 464 394 508 394 568 c 0
 394 628 350 672 290 672 c 0
 230 672 186 628 186 568 c 0
130 568 m 0
 130 656 202 728 290 728 c 0
 378 728 450 656 450 568 c 0
 450 480 378 408 290 408 c 0
 202 408 130 480 130 568 c 0
EndSplineSet
EndChar

StartChar: plusminus
Encoding: 177 177 113
Width: 940
GlyphClass: 2
Flags: MW
HStem: -64 64<48 884 48 884> 344 64<48 436 48 436 504 892>
VStem: 436 68<64 344 64 344 408 688>
LayerCount: 2
Fore
SplineSet
48 0 m 1
 884 0 l 1
 884 -64 l 1
 48 -64 l 1
 48 0 l 1
48 344 m 1
 48 408 l 1
 436 408 l 1
 436 688 l 1
 504 688 l 1
 504 408 l 1
 892 408 l 1
 892 344 l 1
 504 344 l 1
 504 64 l 1
 436 64 l 1
 436 344 l 1
 48 344 l 1
EndSplineSet
EndChar

StartChar: twosuperior
Encoding: 178 178 114
Width: 388
GlyphClass: 2
Flags: MW
HStem: 274 112<237 271> 344 52<98 165.5> 697 27<157.5 197>
VStem: 48 72<628.5 640.5> 54 28<286 314 314 323 286 331.5> 234 108<589 638> 316 23<413.5 415 377.5 430>
LayerCount: 2
Fore
SplineSet
120 650 m 0x74
 120 607 164 615 164 576 c 0
 164 556 145 541 119 541 c 0
 83 541 48 566 48 609 c 0
 48 672 110 724 192 724 c 0
 294 724 342 680 342 620 c 0
 342 556 254 502 179 466 c 0
 151 453 102 417 92 374 c 1
 96 372 l 1
 111 387 129 396 146 396 c 0x74
 185 396 213 386 261 386 c 0
 294 386 316 404 316 423 c 0
 316 437 315 445 312 457 c 1
 335 457 l 1
 338 439 339 423 339 407 c 0
 339 348 311 274 231 274 c 0xa2
 196 274 166 298 145 320 c 0
 131 335 121 344 104 344 c 0
 92 344 82 336 82 323 c 2
 82 286 l 1
 54 286 l 1
 54 314 l 2x6a
 54 349 57 400 136 470 c 0
 186 515 234 559 234 619 c 0
 234 657 221 697 173 697 c 0
 142 697 120 675 120 650 c 0x74
EndSplineSet
Substitution2: "Single Substitution lookup 48 subtable" two.dnom
EndChar

StartChar: threesuperior
Encoding: 179 179 115
Width: 388
GlyphClass: 2
Flags: MW
HStem: 274 24<150.5 193.5 150.5 227> 495 28<107 172 172 174 107 172> 700 24<159 192>
VStem: 36 70<338.5 343.5 321 384.5> 50 64<643 654> 232 108<584.5 645.5> 240 116<366 429 357 435.5>
LayerCount: 2
Fore
SplineSet
114 655 m 0xec
 114 631 157 632 157 596 c 0
 157 578 140 561 112 561 c 0
 79 561 50 587 50 623 c 0
 50 685 111 724 184 724 c 0
 275 724 340 683 340 616 c 0xec
 340 553 277 524 222 514 c 1
 222 507 l 1
 287 502 356 460 356 398 c 0
 356 316 281 274 173 274 c 0
 96 274 36 309 36 368 c 0
 36 401 64 430 103 430 c 0
 136 430 155 413 155 391 c 0
 155 348 106 355 106 332 c 0
 106 310 131 298 170 298 c 0
 217 298 240 331 240 401 c 0xf2
 240 470 208 495 174 495 c 2
 107 495 l 1
 107 523 l 1
 172 523 l 2
 214 523 232 550 232 608 c 0
 232 683 209 700 175 700 c 0
 143 700 114 683 114 655 c 0xec
EndSplineSet
Substitution2: "Single Substitution lookup 48 subtable" three.dnom
EndChar

StartChar: acute
Encoding: 180 180 116
AltUni2: 0002ca.ffffffff.0 0002ca.ffffffff.0
Width: 440
GlyphClass: 2
Flags: MW
HStem: 524 188<196 326>
VStem: 176 180<542 684>
LayerCount: 2
Fore
SplineSet
176 542 m 1
 265 680 l 2
 281 705 296 712 314 712 c 0
 338 712 356 696 356 672 c 0
 356 654 345 637 328 624 c 2
 196 524 l 1
 176 542 l 1
EndSplineSet
EndChar

StartChar: mu1
Encoding: 181 181 117
Width: 606
GlyphClass: 2
Flags: MW
HStem: -282 21G<120.5 167> -15 106<458.5 485.5 451.5 521.5> -10 59<237 275.5 217 293.5> 464 20G<112.5 157.5 366 412>
VStem: 60 136<347 386> 74 133<-207.5 -177 -227.5 -124.5> 326 136<324.5 386> 554 18<147 192>
LayerCount: 2
Fore
SplineSet
74 -185 m 0xb7
 74 -64 100 -38 109 92 c 1
 91 144 60 251 60 354 c 0
 60 418 90 484 135 484 c 0
 180 484 196 428 196 389 c 0
 196 305 157 226 138 107 c 1
 154 62 195 49 239 49 c 0xbb
 312 49 358 132 358 158 c 1
 336 222 326 287 326 362 c 0
 326 410 342 484 390 484 c 0
 434 484 462 425 462 355 c 0
 462 288 443 185 410 115 c 1
 426 99 443 91 460 91 c 0
 511 91 536 128 554 192 c 1
 572 188 l 1
 572 106 558 -15 485 -15 c 0xdb
 432 -15 410 31 392 72 c 1
 387 71 l 1
 368 37 322 -10 265 -10 c 0
 209 -10 166 18 134 53 c 1
 131 52 l 1
 129 38 128 24 128 16 c 0
 128 -68 207 -143 207 -211 c 0
 207 -244 188 -282 146 -282 c 0
 95 -282 74 -230 74 -185 c 0xb7
EndSplineSet
EndChar

StartChar: paragraph
Encoding: 182 182 118
Width: 600
GlyphClass: 2
Flags: MW
HStem: -156 21G<258 326 258 258 406 474 406 406> 678 34<326 406 326 326 474 544 474 474>
VStem: 56 270<452.5 568> 258 68<-156 321 321 321 -156 712> 406 68<-156 678 -156 678>
LayerCount: 2
Fore
SplineSet
56 510 m 0xe8
 56 626 143 712 258 712 c 2
 544 712 l 1
 544 678 l 1
 474 678 l 1
 474 -156 l 1
 406 -156 l 1
 406 678 l 1
 326 678 l 1
 326 -156 l 1
 258 -156 l 1
 258 321 l 1xd8
 143 321 56 395 56 510 c 0xe8
EndSplineSet
EndChar

StartChar: periodcentered
Encoding: 183 183 119
Width: 280
GlyphClass: 2
Flags: MW
HStem: 252 156<117.5 162.5>
VStem: 62 156<307.5 352.5>
LayerCount: 2
Fore
SplineSet
62 330 m 0
 62 375 95 408 140 408 c 0
 185 408 218 375 218 330 c 0
 218 285 185 252 140 252 c 0
 95 252 62 285 62 330 c 0
EndSplineSet
Substitution2: "'locl' Localized Forms in Greek lookup 9 subtable" anoteleia
EndChar

StartChar: cedilla
Encoding: 184 184 120
Width: 440
GlyphClass: 2
Flags: MW
HStem: -208 22<203 252.5 201.5 263> -98 56<223 236 189 248> -20 20G<205 230 230 230>
VStem: 284 48<-139.5 -128.5>
LayerCount: 2
Fore
SplineSet
157 -111 m 0
 205 -111 166 -186 237 -186 c 0
 268 -186 284 -165 284 -140 c 0
 284 -117 270 -98 236 -98 c 2
 189 -98 l 1
 205 0 l 1
 230 0 l 1
 223 -42 l 1
 248 -42 l 2
 296 -42 332 -74 332 -117 c 0
 332 -162 303 -208 223 -208 c 0
 183 -208 128 -188 128 -143 c 0
 128 -123 139 -111 157 -111 c 0
EndSplineSet
EndChar

StartChar: onesuperior
Encoding: 185 185 121
Width: 388
GlyphClass: 2
Flags: MW
HStem: 286 24<88 132 88 132 132 138 272 316> 636 28<88 115 115 132.5 88 148 88 115> 692 20G<201 256 256 256>
VStem: 148 108<326 636 636 636> 201 55<712 712>
LayerCount: 2
Fore
SplineSet
88 286 m 1xf0
 88 310 l 1
 132 310 l 2
 144 310 148 314 148 326 c 2
 148 636 l 1xf0
 88 636 l 1
 88 664 l 1
 115 664 l 2
 150 664 189 680 201 712 c 1
 256 712 l 1xe8
 256 326 l 2
 256 314 260 310 272 310 c 2
 316 310 l 1
 316 286 l 1
 88 286 l 1xf0
EndSplineSet
Substitution2: "Single Substitution lookup 48 subtable" one.dnom
EndChar

StartChar: ordmasculine
Encoding: 186 186 122
Width: 380
GlyphClass: 2
Flags: MW
HStem: 354 32<56 324 56 324> 410 18<171.5 208 171.5 228> 694 18<171.5 208>
VStem: 56 92<521.5 600.5 521.5 602.5> 232 92<521.5 600.5>
LayerCount: 2
Fore
SplineSet
56 561 m 0
 56 644 114 712 190 712 c 0
 266 712 324 644 324 561 c 0
 324 478 266 410 190 410 c 0
 114 410 56 478 56 561 c 0
148 561 m 0
 148 482 153 428 190 428 c 0
 226 428 232 482 232 561 c 0
 232 640 226 694 190 694 c 0
 153 694 148 640 148 561 c 0
56 354 m 1
 56 386 l 1
 324 386 l 1
 324 354 l 1
 56 354 l 1
EndSplineSet
EndChar

StartChar: guillemotright
Encoding: 187 187 123
Width: 480
GlyphClass: 2
Flags: MW
VStem: 143 72<205 269> 284 88<184 290 184 293>
LayerCount: 2
Fore
SplineSet
232 44 m 1
 276 92 284 125 284 237 c 0
 284 349 276 382 232 430 c 1
 248 446 l 1
 314 406 372 343 372 237 c 0
 372 131 314 68 248 28 c 1
 232 44 l 1
104 62 m 1
 142 112 143 173 143 237 c 0
 143 301 142 362 104 412 c 1
 120 428 l 1
 170 381 215 326 215 237 c 0
 215 145 150 71 120 46 c 1
 104 62 l 1
EndSplineSet
EndChar

StartChar: onequarter
Encoding: 188 188 124
Width: 860
GlyphClass: 2
Flags: MW
HStem: -18 21G<188 188 188 238> 0 24<570 634 634 640 774 818 570 634> 118 28<540 650 540 650 758 828> 286 24<88 132 88 132 132 138 272 316> 636 28<88 115 115 132.5 88 148 88 115> 710 21G
VStem: 148 108<326 636 636 636> 201 55<712 712> 650 108<40 118 34 118 146 314 314 314>
LayerCount: 2
Fore
SplineSet
188 -18 m 1xbc80
 622 730 l 1
 672 730 l 1
 238 -18 l 1
 188 -18 l 1xbc80
88 286 m 1
 88 310 l 1
 132 310 l 2
 144 310 148 314 148 326 c 2
 148 636 l 1x3e80
 88 636 l 1
 88 664 l 1
 115 664 l 2
 150 664 189 680 201 712 c 1
 256 712 l 1x3d80
 256 326 l 2x3e80
 256 314 260 310 272 310 c 2
 316 310 l 1
 316 286 l 1
 88 286 l 1
540 146 m 1
 650 146 l 1
 650 314 l 1
 540 146 l 1
502 118 m 1
 502 147 l 1
 684 426 l 1
 758 426 l 1
 758 146 l 1
 828 146 l 1
 828 118 l 1
 758 118 l 1
 758 40 l 2
 758 28 762 24 774 24 c 2
 818 24 l 1
 818 0 l 1
 570 0 l 1
 570 24 l 1
 634 24 l 2x7c80
 646 24 650 28 650 40 c 2
 650 118 l 1
 502 118 l 1
EndSplineSet
EndChar

StartChar: onehalf
Encoding: 189 189 125
Width: 860
GlyphClass: 2
LigCaretCntFixed: 1
Flags: MW
HStem: -12 112<709 743> 0 21G<526 554 526 526> 58 52<570 637.5> 286 24<88 132 88 132 132 138 272 316> 411 27<629.5 669> 636 28<88 115 115 132.5 88 148 88 115> 710 21G
VStem: 148 108<326 636 636 636> 201 55<712 712> 520 72<342.5 354.5> 526 28<0 28 28 37 0 45.5> 706 108<303 352> 788 23<127.5 129 91.5 144>
LayerCount: 2
Fore
SplineSet
188 -18 m 1x1e
 622 730 l 1
 672 730 l 1
 238 -18 l 1
 188 -18 l 1x1e
88 286 m 1
 88 310 l 1
 132 310 l 2
 144 310 148 314 148 326 c 2
 148 636 l 1x1f
 88 636 l 1
 88 664 l 1
 115 664 l 2
 150 664 189 680 201 712 c 1
 256 712 l 1x1e80
 256 326 l 2x1f
 256 314 260 310 272 310 c 2
 316 310 l 1
 316 286 l 1
 88 286 l 1
592 364 m 0x7e50
 592 321 636 329 636 290 c 0
 636 270 617 255 591 255 c 0
 555 255 520 280 520 323 c 0
 520 386 582 438 664 438 c 0
 766 438 814 394 814 334 c 0
 814 270 726 216 651 180 c 0
 623 167 574 131 564 88 c 1
 568 86 l 1
 583 101 601 110 618 110 c 0x7e50
 657 110 685 100 733 100 c 0
 766 100 788 118 788 137 c 0
 788 151 787 159 784 171 c 1
 807 171 l 1
 810 153 811 137 811 121 c 0
 811 62 783 -12 703 -12 c 0x9e08
 668 -12 638 12 617 34 c 0
 603 49 593 58 576 58 c 0
 564 58 554 50 554 37 c 2
 554 0 l 1
 526 0 l 1
 526 28 l 2x7e28
 526 63 529 114 608 184 c 0
 658 229 706 273 706 333 c 0
 706 371 693 411 645 411 c 0
 614 411 592 389 592 364 c 0x7e50
EndSplineSet
LCarets2: 2 320 540
EndChar

StartChar: threequarters
Encoding: 190 190 126
Width: 860
GlyphClass: 2
Flags: MW
HStem: -18 21G<188 188 188 238> 0 24<570 634 634 640 774 818 570 634> 118 28<540 650 540 650 758 828> 274 24<150.5 193.5 150.5 227> 495 28<107 172 172 174 107 172> 700 24<159 192>
VStem: 36 70<338.5 343.5 321 384.5> 50 64<643 654> 232 108<584.5 645.5> 240 116<366 429 357 435.5> 650 108<40 118 34 118 146 314 314 314>
LayerCount: 2
Fore
SplineSet
188 -18 m 1xbc20
 622 730 l 1
 672 730 l 1
 238 -18 l 1
 188 -18 l 1xbc20
114 655 m 0x3da0
 114 631 157 632 157 596 c 0
 157 578 140 561 112 561 c 0
 79 561 50 587 50 623 c 0
 50 685 111 724 184 724 c 0
 275 724 340 683 340 616 c 0x3da0
 340 553 277 524 222 514 c 1
 222 507 l 1
 287 502 356 460 356 398 c 0
 356 316 281 274 173 274 c 0
 96 274 36 309 36 368 c 0
 36 401 64 430 103 430 c 0
 136 430 155 413 155 391 c 0
 155 348 106 355 106 332 c 0
 106 310 131 298 170 298 c 0
 217 298 240 331 240 401 c 0x3e60
 240 470 208 495 174 495 c 2
 107 495 l 1
 107 523 l 1
 172 523 l 2
 214 523 232 550 232 608 c 0
 232 683 209 700 175 700 c 0
 143 700 114 683 114 655 c 0x3da0
540 146 m 1
 650 146 l 1
 650 314 l 1
 540 146 l 1
502 118 m 1
 502 147 l 1
 684 426 l 1
 758 426 l 1
 758 146 l 1
 828 146 l 1
 828 118 l 1
 758 118 l 1
 758 40 l 2
 758 28 762 24 774 24 c 2
 818 24 l 1
 818 0 l 1
 570 0 l 1
 570 24 l 1
 634 24 l 2x7c20
 646 24 650 28 650 40 c 2
 650 118 l 1
 502 118 l 1
EndSplineSet
EndChar

StartChar: questiondown
Encoding: 191 191 127
Width: 470
GlyphClass: 2
Flags: MW
HStem: -238 40<242.5 286> 288 30<201.5 234> 350 156<193.5 238.5>
VStem: 72 122<-131.5 -59.5> 135 28<219 240.5 219 251.5> 138 156<405.5 450.5> 280 34<209.5 256> 358 34<-117.5 -64.5>
LayerCount: 2
Fore
SplineSet
314 237 m 0xeb
 314 113 194 71 194 -107 c 0
 194 -156 219 -198 266 -198 c 0
 322 -198 358 -145 358 -90 c 0
 358 -39 347 -16 320 18 c 1
 343 35 l 1
 373 -2 392 -34 392 -92 c 0
 392 -165 337 -238 235 -238 c 0
 139 -238 72 -176 72 -94 c 0xf3
 72 -25 134 44 195 100 c 0
 239 141 280 181 280 238 c 0
 280 274 249 288 219 288 c 0
 184 288 163 259 163 222 c 0
 163 216 164 207 168 196 c 1
 144 186 l 1
 138 199 135 207 135 223 c 0
 135 280 174 318 219 318 c 0
 268 318 314 292 314 237 c 0xeb
138 428 m 0xe5
 138 473 171 506 216 506 c 0
 261 506 294 473 294 428 c 0
 294 383 261 350 216 350 c 0
 171 350 138 383 138 428 c 0xe5
EndSplineSet
EndChar

StartChar: Agrave
Encoding: 192 192 128
Width: 754
GlyphClass: 2
Flags: MW
HStem: 0 32<44 78 44 78 78 99.5 252 299 381 453 453 461 692 732> 189 37<245 430 245 442 232 430> 710 20G<377 419 419 419>
LayerCount: 2
Fore
SplineSet
44 0 m 1
 44 32 l 1
 78 32 l 2
 121 32 152 73 166 113 c 2
 377 730 l 1
 419 730 l 1
 633 83 l 2
 645 48 666 32 692 32 c 2
 732 32 l 1
 732 0 l 1
 381 0 l 1
 381 32 l 1
 453 32 l 2
 469 32 480 47 480 64 c 0
 480 70 477 84 474 93 c 2
 442 189 l 1
 232 189 l 1
 211 128 l 2
 204 110 200 90 200 77 c 0
 200 55 219 32 252 32 c 2
 299 32 l 1
 299 0 l 1
 44 0 l 1
245 226 m 1
 430 226 l 1
 339 501 l 1
 245 226 l 1
247 908 m 0
 247 932 265 948 289 948 c 0
 307 948 322 941 338 916 c 2
 427 778 l 1
 407 760 l 1
 275 860 l 2
 258 873 247 890 247 908 c 0
EndSplineSet
Substitution2: "'c2sc' Capitals to Small Capitals lookup 1 subtable" agrave.sc
EndChar

StartChar: Aacute
Encoding: 193 193 129
Width: 754
GlyphClass: 2
Flags: MW
HStem: 0 32<44 78 44 78 78 99.5 252 299 381 453 453 461 692 732> 189 37<245 430 245 442 232 430> 710 20G<377 419 419 419>
LayerCount: 2
Fore
SplineSet
44 0 m 1
 44 32 l 1
 78 32 l 2
 121 32 152 73 166 113 c 2
 377 730 l 1
 419 730 l 1
 633 83 l 2
 645 48 666 32 692 32 c 2
 732 32 l 1
 732 0 l 1
 381 0 l 1
 381 32 l 1
 453 32 l 2
 469 32 480 47 480 64 c 0
 480 70 477 84 474 93 c 2
 442 189 l 1
 232 189 l 1
 211 128 l 2
 204 110 200 90 200 77 c 0
 200 55 219 32 252 32 c 2
 299 32 l 1
 299 0 l 1
 44 0 l 1
245 226 m 1
 430 226 l 1
 339 501 l 1
 245 226 l 1
364 778 m 1
 453 916 l 2
 469 941 484 948 502 948 c 0
 526 948 544 932 544 908 c 0
 544 890 533 873 516 860 c 2
 384 760 l 1
 364 778 l 1
EndSplineSet
Substitution2: "'c2sc' Capitals to Small Capitals lookup 1 subtable" aacute.sc
EndChar

StartChar: Acircumflex
Encoding: 194 194 130
Width: 754
GlyphClass: 2
Flags: MW
HStem: 0 32<44 78 44 78 78 99.5 252 299 381 453 453 461 692 732> 189 37<245 430 245 442 232 430> 710 20G<377 419 419 419>
LayerCount: 2
Fore
SplineSet
44 0 m 1
 44 32 l 1
 78 32 l 2
 121 32 152 73 166 113 c 2
 377 730 l 1
 419 730 l 1
 633 83 l 2
 645 48 666 32 692 32 c 2
 732 32 l 1
 732 0 l 1
 381 0 l 1
 381 32 l 1
 453 32 l 2
 469 32 480 47 480 64 c 0
 480 70 477 84 474 93 c 2
 442 189 l 1
 232 189 l 1
 211 128 l 2
 204 110 200 90 200 77 c 0
 200 55 219 32 252 32 c 2
 299 32 l 1
 299 0 l 1
 44 0 l 1
245 226 m 1
 430 226 l 1
 339 501 l 1
 245 226 l 1
228 786 m 1
 295 821 342 868 376 930 c 1
 416 930 l 1
 446 872 492 822 564 786 c 1
 552 762 l 1
 490 784 451 807 396 842 c 1
 341 807 302 784 240 762 c 1
 228 786 l 1
EndSplineSet
Substitution2: "'c2sc' Capitals to Small Capitals lookup 1 subtable" acircumflex.sc
EndChar

StartChar: Atilde
Encoding: 195 195 131
Width: 754
GlyphClass: 2
Flags: MW
HStem: 0 32<44 78 44 78 78 99.5 252 299 381 453 453 461 692 732> 189 37<245 430 245 442 232 430> 710 20G<377 419 419 419> 804 68<452.5 483> 840 68<309 339.5>
VStem: 248 22<800 824> 522 22<888 912>
LayerCount: 2
Fore
SplineSet
44 0 m 1xe6
 44 32 l 1
 78 32 l 2
 121 32 152 73 166 113 c 2
 377 730 l 1
 419 730 l 1
 633 83 l 2
 645 48 666 32 692 32 c 2
 732 32 l 1
 732 0 l 1
 381 0 l 1
 381 32 l 1
 453 32 l 2
 469 32 480 47 480 64 c 0
 480 70 477 84 474 93 c 2
 442 189 l 1
 232 189 l 1
 211 128 l 2
 204 110 200 90 200 77 c 0
 200 55 219 32 252 32 c 2
 299 32 l 1
 299 0 l 1
 44 0 l 1xe6
245 226 m 1
 430 226 l 1
 339 501 l 1
 245 226 l 1
456 804 m 0xf6
 392 804 369 840 310 840 c 0
 286 840 274 824 270 800 c 1
 248 800 l 1
 248 848 282 908 336 908 c 0xee
 400 908 423 872 482 872 c 0
 506 872 518 888 522 912 c 1
 544 912 l 1
 544 864 510 804 456 804 c 0xf6
EndSplineSet
MultipleSubs2: "Multiple Substitution lookup 32 subtable" A tildecomb
EndChar

StartChar: Adieresis
Encoding: 196 196 132
Width: 754
GlyphClass: 2
Flags: MW
HStem: 0 32<44 78 44 78 78 99.5 252 299 381 453 453 461 692 732> 189 37<245 430 245 442 232 430> 710 20G<377 419 419 419> 794 120<273.5 306.5 485.5 518.5>
VStem: 230 120<837.5 870.5> 442 120<837.5 870.5>
LayerCount: 2
Fore
SplineSet
44 0 m 1
 44 32 l 1
 78 32 l 2
 121 32 152 73 166 113 c 2
 377 730 l 1
 419 730 l 1
 633 83 l 2
 645 48 666 32 692 32 c 2
 732 32 l 1
 732 0 l 1
 381 0 l 1
 381 32 l 1
 453 32 l 2
 469 32 480 47 480 64 c 0
 480 70 477 84 474 93 c 2
 442 189 l 1
 232 189 l 1
 211 128 l 2
 204 110 200 90 200 77 c 0
 200 55 219 32 252 32 c 2
 299 32 l 1
 299 0 l 1
 44 0 l 1
245 226 m 1
 430 226 l 1
 339 501 l 1
 245 226 l 1
230 854 m 0
 230 887 257 914 290 914 c 0
 323 914 350 887 350 854 c 0
 350 821 323 794 290 794 c 0
 257 794 230 821 230 854 c 0
442 854 m 0
 442 887 469 914 502 914 c 0
 535 914 562 887 562 854 c 0
 562 821 535 794 502 794 c 0
 469 794 442 821 442 854 c 0
EndSplineSet
MultipleSubs2: "Multiple Substitution lookup 32 subtable" A uni0308
Substitution2: "'c2sc' Capitals to Small Capitals lookup 1 subtable" adieresis.sc
EndChar

StartChar: Aring
Encoding: 197 197 133
Width: 754
GlyphClass: 2
Flags: MW
HStem: 0 32<44 78 44 78 78 99.5 252 299 381 453 453 461 692 732> 189 37<245 430 245 442 232 430> 710 20G<377 419 419 419> 754 44<377 415 377 429> 902 44<377 415>
VStem: 285 44<834 866 834 878> 463 44<834 866>
LayerCount: 2
Fore
SplineSet
44 0 m 1
 44 32 l 1
 78 32 l 2
 121 32 152 73 166 113 c 2
 377 730 l 1
 419 730 l 1
 633 83 l 2
 645 48 666 32 692 32 c 2
 732 32 l 1
 732 0 l 1
 381 0 l 1
 381 32 l 1
 453 32 l 2
 469 32 480 47 480 64 c 0
 480 70 477 84 474 93 c 2
 442 189 l 1
 232 189 l 1
 211 128 l 2
 204 110 200 90 200 77 c 0
 200 55 219 32 252 32 c 2
 299 32 l 1
 299 0 l 1
 44 0 l 1
245 226 m 1
 430 226 l 1
 339 501 l 1
 245 226 l 1
329 850 m 0
 329 818 358 798 396 798 c 0
 434 798 463 818 463 850 c 0
 463 882 434 902 396 902 c 0
 358 902 329 882 329 850 c 0
285 850 m 0
 285 906 330 946 396 946 c 0
 462 946 507 906 507 850 c 0
 507 794 462 754 396 754 c 0
 330 754 285 794 285 850 c 0
EndSplineSet
MultipleSubs2: "Multiple Substitution lookup 32 subtable" A uni030A
EndChar

StartChar: AE
Encoding: 198 198 134
Width: 1004
GlyphClass: 3
LigCaretCntFixed: 1
Flags: MW
HStem: 0 32<26 49 49 74 263 296 26 49 381 451 451 460 648 757 757 798> 210 36<283 475 283 475 266 475> 344 36<624 675 624 675> 480 21G<918 918 918 950> 680 32<376 405 376 944 639 648 648 758>
VStem: 475 149<56 210 210 210 246 344 380 620 620 620> 775 32<205 234.5 489 518> 918 32<480 481.5>
AnchorPoint: "Anchor-2" 538 0 basechar 0
AnchorPoint: "Anchor-1" 650 762 basechar 0
AnchorPoint: "Anchor-0" 650 782 basechar 0
LayerCount: 2
Fore
SplineSet
283 246 m 1
 475 246 l 1
 475 620 l 1
 283 246 l 1
918 480 m 1
 918 483 883 680 758 680 c 2
 648 680 l 2
 630 680 624 674 624 656 c 2
 624 380 l 1
 675 380 l 2
 731 380 775 460 775 518 c 1
 807 518 l 1
 807 205 l 1
 775 205 l 1
 775 264 731 344 675 344 c 2
 624 344 l 1
 624 56 l 2
 624 38 630 32 648 32 c 2
 757 32 l 2
 839 32 886 120 905 174 c 0
 918 211 926 276 926 276 c 1
 958 276 l 1
 952 0 l 1
 381 0 l 1
 381 32 l 1
 451 32 l 2
 469 32 475 38 475 56 c 2
 475 210 l 1
 266 210 l 1
 243 166 l 2
 229 140 214 100 214 83 c 0
 214 61 221 32 263 32 c 2
 296 32 l 1
 296 0 l 1
 26 0 l 1
 26 32 l 1
 49 32 l 2
 99 32 146 71 171 120 c 2
 412 591 l 2
 425 617 434 635 434 654 c 0
 434 668 424 680 405 680 c 2
 376 680 l 1
 376 712 l 1
 944 712 l 1
 950 480 l 1
 918 480 l 1
EndSplineSet
Ligature2: "'rlig' Required Ligatures lookup 23 subtable" A afii301 e
Ligature2: "'rlig' Required Ligatures lookup 23 subtable" A afii301 E
Substitution2: "'c2sc' Capitals to Small Capitals lookup 1 subtable" ae.sc
LCarets2: 1 550
EndChar

StartChar: Ccedilla
Encoding: 199 199 135
Width: 660
GlyphClass: 2
Flags: MW
HStem: -238 24<331.5 387.5 331.5 399> -111 64<355 369 316 388> -17 31<330 407> 698 32<322 396 262 400> 702 20G<559 592 592 592>
VStem: 70 170<267 456> 427 52<-160 -147> 560 32<415 722> 576 36<275 275>
AnchorPoint: "Anchor-1" 358 762 basechar 0
AnchorPoint: "Anchor-0" 358 782 basechar 0
LayerCount: 2
Fore
SplineSet
278 -131 m 0xf680
 335 -131 294 -214 369 -214 c 0
 406 -214 427 -194 427 -161 c 0
 427 -133 410 -111 369 -111 c 2
 316 -111 l 1
 330 -17 l 1
 156 1 70 178 70 356 c 0
 70 556 174 730 350 730 c 0xf680
 442 730 490 666 519 666 c 0
 531 666 536 674 541 685 c 2
 559 722 l 1
 592 722 l 1
 592 415 l 1
 560 415 l 1xef
 530 586 450 698 350 698 c 0
 294 698 240 650 240 506 c 2
 240 206 l 2
 240 62 304 14 360 14 c 0
 454 14 507 67 537 123 c 0
 561 168 571 228 576 275 c 1
 612 275 l 1
 604 164 560 -18 359 -18 c 1
 355 -47 l 1
 388 -47 l 2
 441 -47 479 -86 479 -132 c 0
 479 -188 445 -238 353 -238 c 0
 309 -238 245 -215 245 -170 c 0
 245 -148 255 -131 278 -131 c 0xf680
EndSplineSet
Ligature2: "'ccmp' Glyph Composition/Decomposition lookup 3 subtable" C uni0327
Substitution2: "'c2sc' Capitals to Small Capitals lookup 1 subtable" ccedilla.sc
EndChar

StartChar: Egrave
Encoding: 200 200 136
Width: 690
GlyphClass: 2
Flags: MW
HStem: 0 32<62 132 132 141 328 437 437 478 62 132> 344 36<304 355 304 355> 480 21G<598 598 598 630> 680 32<62 132 62 624 319 328 328 438>
VStem: 156 148<56 344 380 656> 455 32<205 234.5 489 518> 598 32<480 481.5>
LayerCount: 2
Fore
SplineSet
598 480 m 1
 598 483 563 680 438 680 c 2
 328 680 l 2
 310 680 304 674 304 656 c 2
 304 380 l 1
 355 380 l 2
 411 380 455 460 455 518 c 1
 487 518 l 1
 487 205 l 1
 455 205 l 1
 455 264 411 344 355 344 c 2
 304 344 l 1
 304 56 l 2
 304 38 310 32 328 32 c 2
 437 32 l 2
 519 32 566 120 585 174 c 0
 598 211 606 276 606 276 c 1
 638 276 l 1
 632 0 l 1
 62 0 l 1
 62 32 l 1
 132 32 l 2
 150 32 156 38 156 56 c 2
 156 656 l 2
 156 674 150 680 132 680 c 2
 62 680 l 1
 62 712 l 1
 624 712 l 1
 630 480 l 1
 598 480 l 1
224 908 m 0
 224 932 242 948 266 948 c 0
 284 948 299 941 315 916 c 2
 404 778 l 1
 384 760 l 1
 252 860 l 2
 235 873 224 890 224 908 c 0
EndSplineSet
Substitution2: "'c2sc' Capitals to Small Capitals lookup 1 subtable" egrave.sc
EndChar

StartChar: Eacute
Encoding: 201 201 137
Width: 690
GlyphClass: 2
Flags: MW
HStem: 0 32<62 132 132 141 328 437 437 478 62 132> 344 36<304 355 304 355> 480 21G<598 598 598 630> 680 32<62 132 62 624 319 328 328 438>
VStem: 156 148<56 344 380 656> 455 32<205 234.5 489 518> 598 32<480 481.5>
LayerCount: 2
Fore
SplineSet
598 480 m 1
 598 483 563 680 438 680 c 2
 328 680 l 2
 310 680 304 674 304 656 c 2
 304 380 l 1
 355 380 l 2
 411 380 455 460 455 518 c 1
 487 518 l 1
 487 205 l 1
 455 205 l 1
 455 264 411 344 355 344 c 2
 304 344 l 1
 304 56 l 2
 304 38 310 32 328 32 c 2
 437 32 l 2
 519 32 566 120 585 174 c 0
 598 211 606 276 606 276 c 1
 638 276 l 1
 632 0 l 1
 62 0 l 1
 62 32 l 1
 132 32 l 2
 150 32 156 38 156 56 c 2
 156 656 l 2
 156 674 150 680 132 680 c 2
 62 680 l 1
 62 712 l 1
 624 712 l 1
 630 480 l 1
 598 480 l 1
340 778 m 1
 429 916 l 2
 445 941 460 948 478 948 c 0
 502 948 520 932 520 908 c 0
 520 890 509 873 492 860 c 2
 360 760 l 1
 340 778 l 1
EndSplineSet
Substitution2: "'c2sc' Capitals to Small Capitals lookup 1 subtable" eacute.sc
EndChar

StartChar: Ecircumflex
Encoding: 202 202 138
Width: 690
GlyphClass: 2
Flags: MW
HStem: 0 32<62 132 132 141 328 437 437 478 62 132> 344 36<304 355 304 355> 480 21G<598 598 598 630> 680 32<62 132 62 624 319 328 328 438>
VStem: 156 148<56 344 380 656> 455 32<205 234.5 489 518> 598 32<480 481.5>
LayerCount: 2
Fore
SplineSet
598 480 m 1
 598 483 563 680 438 680 c 2
 328 680 l 2
 310 680 304 674 304 656 c 2
 304 380 l 1
 355 380 l 2
 411 380 455 460 455 518 c 1
 487 518 l 1
 487 205 l 1
 455 205 l 1
 455 264 411 344 355 344 c 2
 304 344 l 1
 304 56 l 2
 304 38 310 32 328 32 c 2
 437 32 l 2
 519 32 566 120 585 174 c 0
 598 211 606 276 606 276 c 1
 638 276 l 1
 632 0 l 1
 62 0 l 1
 62 32 l 1
 132 32 l 2
 150 32 156 38 156 56 c 2
 156 656 l 2
 156 674 150 680 132 680 c 2
 62 680 l 1
 62 712 l 1
 624 712 l 1
 630 480 l 1
 598 480 l 1
204 786 m 1
 271 821 318 868 352 930 c 1
 392 930 l 1
 422 872 468 822 540 786 c 1
 528 762 l 1
 466 784 427 807 372 842 c 1
 317 807 278 784 216 762 c 1
 204 786 l 1
EndSplineSet
Substitution2: "'c2sc' Capitals to Small Capitals lookup 1 subtable" ecircumflex.sc
EndChar

StartChar: Edieresis
Encoding: 203 203 139
Width: 690
GlyphClass: 2
Flags: MW
HStem: 0 32<62 132 132 141 328 437 437 478 62 132> 344 36<304 355 304 355> 480 21G<598 598 598 630> 680 32<62 132 62 624 319 328 328 438> 794 120<249.5 282.5 461.5 494.5>
VStem: 156 148<56 344 380 656> 206 120<837.5 870.5> 418 120<837.5 870.5> 455 32<205 234.5 489 518> 598 32<480 481.5>
LayerCount: 2
Fore
SplineSet
598 480 m 1xfcc0
 598 483 563 680 438 680 c 2
 328 680 l 2
 310 680 304 674 304 656 c 2
 304 380 l 1
 355 380 l 2
 411 380 455 460 455 518 c 1
 487 518 l 1
 487 205 l 1
 455 205 l 1
 455 264 411 344 355 344 c 2
 304 344 l 1
 304 56 l 2
 304 38 310 32 328 32 c 2
 437 32 l 2
 519 32 566 120 585 174 c 0
 598 211 606 276 606 276 c 1
 638 276 l 1
 632 0 l 1
 62 0 l 1
 62 32 l 1
 132 32 l 2
 150 32 156 38 156 56 c 2
 156 656 l 2
 156 674 150 680 132 680 c 2
 62 680 l 1
 62 712 l 1
 624 712 l 1
 630 480 l 1
 598 480 l 1xfcc0
206 854 m 0xfa40
 206 887 233 914 266 914 c 0
 299 914 326 887 326 854 c 0
 326 821 299 794 266 794 c 0
 233 794 206 821 206 854 c 0xfa40
418 854 m 0xf940
 418 887 445 914 478 914 c 0
 511 914 538 887 538 854 c 0
 538 821 511 794 478 794 c 0
 445 794 418 821 418 854 c 0xf940
EndSplineSet
MultipleSubs2: "Multiple Substitution lookup 32 subtable" E uni0308
Substitution2: "'c2sc' Capitals to Small Capitals lookup 1 subtable" edieresis.sc
EndChar

StartChar: Igrave
Encoding: 204 204 140
Width: 440
GlyphClass: 2
Flags: MW
HStem: 0 32<62 132 62 132 132 141 328 398> 680 32<62 132 62 398 319 328 328 398>
VStem: 156 148<56 656>
LayerCount: 2
Fore
SplineSet
62 0 m 1
 62 32 l 1
 132 32 l 2
 150 32 156 38 156 56 c 2
 156 656 l 2
 156 674 150 680 132 680 c 2
 62 680 l 1
 62 712 l 1
 398 712 l 1
 398 680 l 1
 328 680 l 2
 310 680 304 674 304 656 c 2
 304 56 l 2
 304 38 310 32 328 32 c 2
 398 32 l 1
 398 0 l 1
 62 0 l 1
82 908 m 0
 82 932 100 948 124 948 c 0
 142 948 157 941 173 916 c 2
 262 778 l 1
 242 760 l 1
 110 860 l 2
 93 873 82 890 82 908 c 0
EndSplineSet
Substitution2: "'c2sc' Capitals to Small Capitals lookup 1 subtable" igrave.sc
EndChar

StartChar: Iacute
Encoding: 205 205 141
Width: 440
GlyphClass: 2
Flags: MW
HStem: 0 32<62 132 62 132 132 141 328 398> 680 32<62 132 62 398 319 328 328 398>
VStem: 156 148<56 656>
LayerCount: 2
Fore
SplineSet
62 0 m 1
 62 32 l 1
 132 32 l 2
 150 32 156 38 156 56 c 2
 156 656 l 2
 156 674 150 680 132 680 c 2
 62 680 l 1
 62 712 l 1
 398 712 l 1
 398 680 l 1
 328 680 l 2
 310 680 304 674 304 656 c 2
 304 56 l 2
 304 38 310 32 328 32 c 2
 398 32 l 1
 398 0 l 1
 62 0 l 1
198 778 m 1
 287 916 l 2
 303 941 318 948 336 948 c 0
 360 948 378 932 378 908 c 0
 378 890 367 873 350 860 c 2
 218 760 l 1
 198 778 l 1
EndSplineSet
Substitution2: "'c2sc' Capitals to Small Capitals lookup 1 subtable" iacute.sc
EndChar

StartChar: Icircumflex
Encoding: 206 206 142
Width: 440
GlyphClass: 2
Flags: MW
HStem: 0 32<62 132 62 132 132 141 328 398> 680 32<62 132 62 398 319 328 328 398>
VStem: 156 148<56 656>
LayerCount: 2
Fore
SplineSet
62 0 m 1
 62 32 l 1
 132 32 l 2
 150 32 156 38 156 56 c 2
 156 656 l 2
 156 674 150 680 132 680 c 2
 62 680 l 1
 62 712 l 1
 398 712 l 1
 398 680 l 1
 328 680 l 2
 310 680 304 674 304 656 c 2
 304 56 l 2
 304 38 310 32 328 32 c 2
 398 32 l 1
 398 0 l 1
 62 0 l 1
62 786 m 1
 129 821 176 868 210 930 c 1
 250 930 l 1
 280 872 326 822 398 786 c 1
 386 762 l 1
 324 784 285 807 230 842 c 1
 175 807 136 784 74 762 c 1
 62 786 l 1
EndSplineSet
Substitution2: "'c2sc' Capitals to Small Capitals lookup 1 subtable" icircumflex.sc
EndChar

StartChar: Idieresis
Encoding: 207 207 143
Width: 440
GlyphClass: 2
Flags: MW
HStem: 0 32<62 132 62 132 132 141 328 398> 680 32<62 132 62 398 319 328 328 398> 794 120<107.5 140.5 319.5 352.5>
VStem: 64 120<837.5 870.5> 156 148<56 656> 276 120<837.5 870.5>
LayerCount: 2
Fore
SplineSet
62 0 m 1xe8
 62 32 l 1
 132 32 l 2
 150 32 156 38 156 56 c 2
 156 656 l 2
 156 674 150 680 132 680 c 2
 62 680 l 1
 62 712 l 1
 398 712 l 1
 398 680 l 1
 328 680 l 2
 310 680 304 674 304 656 c 2
 304 56 l 2
 304 38 310 32 328 32 c 2
 398 32 l 1
 398 0 l 1
 62 0 l 1xe8
64 854 m 0xf0
 64 887 91 914 124 914 c 0
 157 914 184 887 184 854 c 0
 184 821 157 794 124 794 c 0
 91 794 64 821 64 854 c 0xf0
276 854 m 0xe4
 276 887 303 914 336 914 c 0
 369 914 396 887 396 854 c 0
 396 821 369 794 336 794 c 0
 303 794 276 821 276 854 c 0xe4
EndSplineSet
MultipleSubs2: "Multiple Substitution lookup 32 subtable" I uni0308
Substitution2: "'c2sc' Capitals to Small Capitals lookup 1 subtable" idieresis.sc
EndChar

StartChar: Eth
Encoding: 208 208 144
Width: 786
GlyphClass: 2
Flags: MW
HStem: 0 32<62 132 62 132 132 141 328 417 417 434> 356 36<62 156 62 156 304 398> 680 32<62 132 62 434 319 328 328 417>
VStem: 156 148<56 356 392 656> 566 170<258 466 258 506 258 566>
AnchorPoint: "Anchor-2" 374 0 basechar 0
AnchorPoint: "Anchor-1" 374 762 basechar 0
AnchorPoint: "Anchor-0" 374 782 basechar 0
LayerCount: 2
Fore
SplineSet
304 56 m 2
 304 38 310 32 328 32 c 2
 417 32 l 2
 497 32 566 86 566 206 c 2
 566 506 l 2
 566 626 497 680 417 680 c 2
 328 680 l 2
 310 680 304 674 304 656 c 2
 304 392 l 1
 398 392 l 1
 398 356 l 1
 304 356 l 1
 304 56 l 2
62 0 m 1
 62 32 l 1
 132 32 l 2
 150 32 156 38 156 56 c 2
 156 356 l 1
 62 356 l 1
 62 392 l 1
 156 392 l 1
 156 656 l 2
 156 674 150 680 132 680 c 2
 62 680 l 1
 62 712 l 1
 434 712 l 2
 600 712 736 570 736 362 c 0
 736 154 600 0 434 0 c 2
 62 0 l 1
EndSplineSet
EndChar

StartChar: Ntilde
Encoding: 209 209 145
Width: 764
GlyphClass: 2
Flags: MW
HStem: -18 21G<592 630 592 592> 0 32<48 84 48 84 304 340> 680 32<48 66 48 270 464 500 720 756> 804 68<474.5 505> 840 68<331 361.5>
VStem: 174 40<136 517> 270 22<800 824> 544 22<888 912> 590 40<255 576 -18 607>
LayerCount: 2
Fore
SplineSet
48 0 m 1x6780
 48 32 l 1x6780
 120 32 174 74 174 136 c 2
 174 563 l 2
 174 578 172 581 163 594 c 2
 123 654 l 2
 110 673 98 680 66 680 c 2
 48 680 l 1
 48 712 l 1
 270 712 l 1
 590 255 l 1
 590 576 l 2
 590 638 536 680 464 680 c 1
 464 712 l 1
 756 712 l 1
 756 680 l 1
 684 680 630 638 630 576 c 2
 630 -18 l 1
 592 -18 l 1xa780
 218 517 l 1
 214 517 l 1
 214 136 l 2
 214 74 268 32 340 32 c 1
 340 0 l 1
 48 0 l 1x6780
478 804 m 0x3780
 414 804 391 840 332 840 c 0
 308 840 296 824 292 800 c 1
 270 800 l 1
 270 848 304 908 358 908 c 0x2f80
 422 908 445 872 504 872 c 0
 528 872 540 888 544 912 c 1
 566 912 l 1
 566 864 532 804 478 804 c 0x3780
EndSplineSet
Substitution2: "'c2sc' Capitals to Small Capitals lookup 1 subtable" ntilde.sc
EndChar

StartChar: Ograve
Encoding: 210 210 146
Width: 712
GlyphClass: 2
Flags: MW
HStem: -18 32<328 404 328 445> 698 32<328 404>
VStem: 70 170<260 452> 492 170<260 452 260 506 260 578>
LayerCount: 2
Fore
SplineSet
240 206 m 2
 240 62 290 14 366 14 c 0
 442 14 492 62 492 206 c 2
 492 506 l 2
 492 650 442 698 366 698 c 0
 290 698 240 650 240 506 c 2
 240 206 l 2
70 356 m 0
 70 548 208 730 366 730 c 0
 524 730 662 548 662 356 c 0
 662 164 524 -18 366 -18 c 0
 208 -18 70 164 70 356 c 0
218 908 m 0
 218 932 236 948 260 948 c 0
 278 948 293 941 309 916 c 2
 398 778 l 1
 378 760 l 1
 246 860 l 2
 229 873 218 890 218 908 c 0
EndSplineSet
Substitution2: "'c2sc' Capitals to Small Capitals lookup 1 subtable" ograve.sc
EndChar

StartChar: Oacute
Encoding: 211 211 147
Width: 712
GlyphClass: 2
Flags: MW
HStem: -18 32<328 404 328 445> 698 32<328 404>
VStem: 70 170<260 452> 492 170<260 452 260 506 260 578>
LayerCount: 2
Fore
SplineSet
240 206 m 2
 240 62 290 14 366 14 c 0
 442 14 492 62 492 206 c 2
 492 506 l 2
 492 650 442 698 366 698 c 0
 290 698 240 650 240 506 c 2
 240 206 l 2
70 356 m 0
 70 548 208 730 366 730 c 0
 524 730 662 548 662 356 c 0
 662 164 524 -18 366 -18 c 0
 208 -18 70 164 70 356 c 0
334 778 m 1
 423 916 l 2
 439 941 454 948 472 948 c 0
 496 948 514 932 514 908 c 0
 514 890 503 873 486 860 c 2
 354 760 l 1
 334 778 l 1
EndSplineSet
Substitution2: "'c2sc' Capitals to Small Capitals lookup 1 subtable" oacute.sc
EndChar

StartChar: Ocircumflex
Encoding: 212 212 148
Width: 712
GlyphClass: 2
Flags: MW
HStem: -18 32<328 404 328 445> 698 32<328 404>
VStem: 70 170<260 452> 492 170<260 452 260 506 260 578>
LayerCount: 2
Fore
SplineSet
240 206 m 2
 240 62 290 14 366 14 c 0
 442 14 492 62 492 206 c 2
 492 506 l 2
 492 650 442 698 366 698 c 0
 290 698 240 650 240 506 c 2
 240 206 l 2
70 356 m 0
 70 548 208 730 366 730 c 0
 524 730 662 548 662 356 c 0
 662 164 524 -18 366 -18 c 0
 208 -18 70 164 70 356 c 0
198 786 m 1
 265 821 312 868 346 930 c 1
 386 930 l 1
 416 872 462 822 534 786 c 1
 522 762 l 1
 460 784 421 807 366 842 c 1
 311 807 272 784 210 762 c 1
 198 786 l 1
EndSplineSet
Substitution2: "'c2sc' Capitals to Small Capitals lookup 1 subtable" ocircumflex.sc
EndChar

StartChar: Otilde
Encoding: 213 213 149
Width: 712
GlyphClass: 2
Flags: MW
HStem: -18 32<328 404 328 445> 698 32<328 404> 804 68<422.5 453> 840 68<279 309.5>
VStem: 70 170<260 452> 218 22<800 800> 492 22<888 912> 492 170<260 452 260 506 260 578>
LayerCount: 2
Fore
SplineSet
240 206 m 2xc6
 240 62 290 14 366 14 c 0
 442 14 492 62 492 206 c 2
 492 506 l 2
 492 650 442 698 366 698 c 0
 290 698 240 650 240 506 c 2
 240 206 l 2xc6
70 356 m 0xc9
 70 548 208 730 366 730 c 0
 524 730 662 548 662 356 c 0
 662 164 524 -18 366 -18 c 0
 208 -18 70 164 70 356 c 0xc9
426 804 m 0xe6
 362 804 339 840 280 840 c 0
 256 840 244 824 240 800 c 1
 218 800 l 1
 218 848 252 908 306 908 c 0xd6
 370 908 393 872 452 872 c 0
 476 872 488 888 492 912 c 1
 514 912 l 1
 514 864 480 804 426 804 c 0xe6
EndSplineSet
MultipleSubs2: "Multiple Substitution lookup 32 subtable" O tildecomb
EndChar

StartChar: Odieresis
Encoding: 214 214 150
Width: 712
GlyphClass: 2
Flags: MW
HStem: -18 32<328 404 328 445> 698 32<328 404> 794 120<243.5 276.5 455.5 488.5>
VStem: 70 170<260 452> 200 120<837.5 870.5> 412 120<837.5 870.5> 492 170<260 452 260 506 260 578>
LayerCount: 2
Fore
SplineSet
240 206 m 2xf2
 240 62 290 14 366 14 c 0
 442 14 492 62 492 206 c 2
 492 506 l 2
 492 650 442 698 366 698 c 0
 290 698 240 650 240 506 c 2
 240 206 l 2xf2
70 356 m 0
 70 548 208 730 366 730 c 0
 524 730 662 548 662 356 c 0
 662 164 524 -18 366 -18 c 0
 208 -18 70 164 70 356 c 0
200 854 m 0xe8
 200 887 227 914 260 914 c 0
 293 914 320 887 320 854 c 0
 320 821 293 794 260 794 c 0
 227 794 200 821 200 854 c 0xe8
412 854 m 0xe4
 412 887 439 914 472 914 c 0
 505 914 532 887 532 854 c 0
 532 821 505 794 472 794 c 0
 439 794 412 821 412 854 c 0xe4
EndSplineSet
MultipleSubs2: "Multiple Substitution lookup 32 subtable" O uni0308
Substitution2: "'c2sc' Capitals to Small Capitals lookup 1 subtable" odieresis.sc
EndChar

StartChar: multiply
Encoding: 215 215 151
Width: 940
GlyphClass: 2
Flags: W
LayerCount: 2
Fore
SplineSet
144 -15 m 1
 424 265 l 1
 144 545 l 1
 190 590 l 1
 470 310 l 1
 750 590 l 1
 796 545 l 1
 516 265 l 1
 796 -15 l 1
 750 -60 l 1
 470 220 l 1
 190 -60 l 1
 144 -15 l 1
EndSplineSet
EndChar

StartChar: Oslash
Encoding: 216 216 152
Width: 712
GlyphClass: 2
Flags: MW
HStem: -18 32<332 404 332 445> 698 32<328 400>
VStem: 70 170<310.5 452> 492 170<260 401.5 260 487 260 487>
AnchorPoint: "Anchor-2" 366 0 basechar 0
AnchorPoint: "Anchor-1" 366 762 basechar 0
AnchorPoint: "Anchor-0" 366 782 basechar 0
LayerCount: 2
Fore
SplineSet
240 225 m 1
 490 548 l 1
 481 660 434 698 366 698 c 0
 290 698 240 650 240 506 c 2
 240 225 l 1
242 164 m 1
 251 52 298 14 366 14 c 0
 442 14 492 62 492 206 c 2
 492 487 l 1
 242 164 l 1
70 6 m 1
 150 109 l 1
 101 177 70 265 70 356 c 0
 70 548 208 730 366 730 c 0
 437 730 505 693 557 634 c 1
 631 730 l 1
 662 706 l 1
 582 603 l 1
 631 535 662 447 662 356 c 0
 662 164 524 -18 366 -18 c 0
 295 -18 227 19 175 78 c 1
 101 -18 l 1
 70 6 l 1
EndSplineSet
EndChar

StartChar: Ugrave
Encoding: 217 217 153
Width: 794
GlyphClass: 2
Flags: MW
HStem: -18 40<398.5 494.5> 680 32<68 392 68 132 319 328 328 392 514 540 736 762>
VStem: 156 148<237 656> 618 40<198 208 208 590>
LayerCount: 2
Fore
SplineSet
68 680 m 1
 68 712 l 1
 392 712 l 1
 392 680 l 1
 328 680 l 2
 310 680 304 674 304 656 c 2
 304 198 l 2
 304 75 350 22 447 22 c 0
 547 22 618 102 618 198 c 2
 618 590 l 2
 618 654 566 680 514 680 c 1
 514 712 l 1
 762 712 l 1
 762 680 l 1
 710 680 658 654 658 590 c 2
 658 208 l 2
 658 83 570 -18 419 -18 c 0
 229 -18 156 108 156 237 c 2
 156 656 l 2
 156 674 150 680 132 680 c 2
 68 680 l 1
282 908 m 0
 282 932 300 948 324 948 c 0
 342 948 357 941 373 916 c 2
 462 778 l 1
 442 760 l 1
 310 860 l 2
 293 873 282 890 282 908 c 0
EndSplineSet
Substitution2: "'c2sc' Capitals to Small Capitals lookup 1 subtable" ugrave.sc
EndChar

StartChar: Uacute
Encoding: 218 218 154
Width: 794
GlyphClass: 2
Flags: MW
HStem: -18 40<398.5 494.5> 680 32<68 392 68 132 319 328 328 392 514 540 736 762>
VStem: 156 148<237 656> 618 40<198 208 208 590>
LayerCount: 2
Fore
SplineSet
68 680 m 1
 68 712 l 1
 392 712 l 1
 392 680 l 1
 328 680 l 2
 310 680 304 674 304 656 c 2
 304 198 l 2
 304 75 350 22 447 22 c 0
 547 22 618 102 618 198 c 2
 618 590 l 2
 618 654 566 680 514 680 c 1
 514 712 l 1
 762 712 l 1
 762 680 l 1
 710 680 658 654 658 590 c 2
 658 208 l 2
 658 83 570 -18 419 -18 c 0
 229 -18 156 108 156 237 c 2
 156 656 l 2
 156 674 150 680 132 680 c 2
 68 680 l 1
398 778 m 1
 487 916 l 2
 503 941 518 948 536 948 c 0
 560 948 578 932 578 908 c 0
 578 890 567 873 550 860 c 2
 418 760 l 1
 398 778 l 1
EndSplineSet
Substitution2: "'c2sc' Capitals to Small Capitals lookup 1 subtable" uacute.sc
EndChar

StartChar: Ucircumflex
Encoding: 219 219 155
Width: 794
GlyphClass: 2
Flags: MW
HStem: -18 40<398.5 494.5> 680 32<68 392 68 132 319 328 328 392 514 540 736 762>
VStem: 156 148<237 656> 618 40<198 208 208 590>
LayerCount: 2
Fore
SplineSet
68 680 m 1
 68 712 l 1
 392 712 l 1
 392 680 l 1
 328 680 l 2
 310 680 304 674 304 656 c 2
 304 198 l 2
 304 75 350 22 447 22 c 0
 547 22 618 102 618 198 c 2
 618 590 l 2
 618 654 566 680 514 680 c 1
 514 712 l 1
 762 712 l 1
 762 680 l 1
 710 680 658 654 658 590 c 2
 658 208 l 2
 658 83 570 -18 419 -18 c 0
 229 -18 156 108 156 237 c 2
 156 656 l 2
 156 674 150 680 132 680 c 2
 68 680 l 1
262 786 m 1
 329 821 376 868 410 930 c 1
 450 930 l 1
 480 872 526 822 598 786 c 1
 586 762 l 1
 524 784 485 807 430 842 c 1
 375 807 336 784 274 762 c 1
 262 786 l 1
EndSplineSet
Substitution2: "'c2sc' Capitals to Small Capitals lookup 1 subtable" ucircumflex.sc
EndChar

StartChar: Udieresis
Encoding: 220 220 156
Width: 794
GlyphClass: 2
Flags: MW
HStem: -18 40<398.5 494.5> 680 32<68 392 68 132 319 328 328 392 514 540 736 762> 794 120<307.5 340.5 519.5 552.5>
VStem: 156 148<237 656> 264 120<837.5 870.5> 476 120<837.5 870.5> 618 40<198 208 208 590>
LayerCount: 2
Fore
SplineSet
68 680 m 1xf6
 68 712 l 1
 392 712 l 1
 392 680 l 1
 328 680 l 2
 310 680 304 674 304 656 c 2
 304 198 l 2
 304 75 350 22 447 22 c 0
 547 22 618 102 618 198 c 2
 618 590 l 2
 618 654 566 680 514 680 c 1
 514 712 l 1
 762 712 l 1
 762 680 l 1
 710 680 658 654 658 590 c 2
 658 208 l 2
 658 83 570 -18 419 -18 c 0
 229 -18 156 108 156 237 c 2
 156 656 l 2
 156 674 150 680 132 680 c 2
 68 680 l 1xf6
264 854 m 0xee
 264 887 291 914 324 914 c 0
 357 914 384 887 384 854 c 0
 384 821 357 794 324 794 c 0
 291 794 264 821 264 854 c 0xee
476 854 m 0
 476 887 503 914 536 914 c 0
 569 914 596 887 596 854 c 0
 596 821 569 794 536 794 c 0
 503 794 476 821 476 854 c 0
EndSplineSet
MultipleSubs2: "Multiple Substitution lookup 32 subtable" U uni0308
Substitution2: "'c2sc' Capitals to Small Capitals lookup 1 subtable" udieresis.sc
EndChar

StartChar: Yacute
Encoding: 221 221 157
Width: 736
GlyphClass: 2
Flags: MW
HStem: 0 32<222 286 286 295 482 546 222 286> 680 32<46 360 46 81 322 332 332 360 466 494 659.5 684 684 714>
VStem: 310 148<56 269 269 269>
LayerCount: 2
Fore
SplineSet
46 680 m 1
 46 712 l 1
 360 712 l 1
 360 680 l 1
 332 680 l 2
 312 680 304 662 304 648 c 0
 304 640 306 628 310 620 c 2
 442 333 l 1
 534 562 l 2
 541 578 548 602 548 619 c 0
 548 647 534 680 494 680 c 2
 466 680 l 1
 466 712 l 1
 714 712 l 1
 714 680 l 1
 684 680 l 2
 635 680 606 641 593 607 c 2
 458 278 l 1
 458 56 l 2
 458 38 464 32 482 32 c 2
 546 32 l 1
 546 0 l 1
 222 0 l 1
 222 32 l 1
 286 32 l 2
 304 32 310 38 310 56 c 2
 310 269 l 1
 140 636 l 2
 124 671 108 680 81 680 c 2
 46 680 l 1
372 778 m 1
 461 916 l 2
 477 941 492 948 510 948 c 0
 534 948 552 932 552 908 c 0
 552 890 541 873 524 860 c 2
 392 760 l 1
 372 778 l 1
EndSplineSet
EndChar

StartChar: Thorn
Encoding: 222 222 158
Width: 702
GlyphClass: 2
Flags: MW
HStem: 0 32<62 132 62 132 132 141 328 416> 210 32<304 403 403 418 304 403> 554 32<319 328 328 403> 680 32<62 132 62 416 319 328 328 416>
VStem: 156 148<56 210 242 530 586 656> 498 160<356 444>
AnchorPoint: "Anchor-1" 321 762 basechar 0
AnchorPoint: "Anchor-0" 321 782 basechar 0
LayerCount: 2
Fore
SplineSet
304 242 m 1
 403 242 l 2
 478 242 498 312 498 400 c 0
 498 488 478 554 403 554 c 2
 328 554 l 2
 310 554 304 548 304 530 c 2
 304 242 l 1
62 0 m 1
 62 32 l 1
 132 32 l 2
 150 32 156 38 156 56 c 2
 156 656 l 2
 156 674 150 680 132 680 c 2
 62 680 l 1
 62 712 l 1
 416 712 l 1
 416 680 l 1
 328 680 l 2
 310 680 304 674 304 656 c 2
 304 586 l 1
 418 586 l 2
 560 586 658 510 658 400 c 0
 658 290 560 210 418 210 c 2
 304 210 l 1
 304 56 l 2
 304 38 310 32 328 32 c 2
 416 32 l 1
 416 0 l 1
 62 0 l 1
EndSplineSet
EndChar

StartChar: germandbls
Encoding: 223 223 159
Width: 556
GlyphClass: 2
Flags: MW
HStem: -12 24<326 351 326 393> 0 24<22 78 78 84 22 210 22 78> 415 29<251 286 251 286> 694 24<262.5 306>
VStem: 94 116<40 456 456 513 0 551.5> 222 76<28 104> 342 110<544 612> 380 128<141 272 141 272.5>
AnchorPoint: "Anchor-2" 156 0 basechar 0
LayerCount: 2
Fore
SplineSet
328 102 m 0xbd
 328 73 298 66 298 40 c 0
 298 16 317 12 335 12 c 0
 367 12 380 71 380 206 c 0xbd
 380 339 362 415 286 415 c 2
 251 415 l 1
 251 444 l 1
 286 444 l 2
 339 444 342 508 342 580 c 0
 342 644 330 694 282 694 c 0
 243 694 210 657 210 513 c 2
 210 0 l 1
 22 0 l 1
 22 24 l 1
 78 24 l 2
 90 24 94 28 94 40 c 2
 94 456 l 2
 94 647 194 718 291 718 c 0
 398 718 452 650 452 576 c 0x7e
 452 488 392 446 327 433 c 1
 327 428 l 1
 416 405 508 344 508 200 c 0
 508 82 448 -12 338 -12 c 0
 271 -12 222 27 222 84 c 0
 222 124 253 148 282 148 c 0
 314 148 328 124 328 102 c 0xbd
EndSplineSet
Substitution2: "'smcp' Lowercase to Small Capitals lookup 0 subtable" germandbls.sc
EndChar

StartChar: agrave
Encoding: 224 224 160
Width: 508
GlyphClass: 2
Flags: MW
HStem: -12 40<147 240> -12 48<417.5 437 417.5 438.5> 462 24<196 232.5> 692 20G<126 147>
VStem: 46 122<78 152 78 155> 69 75<397.5 398.5> 288 116<72 270 270 270 297 325> 460 28<117.5 135 117.5 135>
LayerCount: 2
Fore
SplineSet
488 135 m 1x77
 488 100 488 -12 389 -12 c 0x77
 332 -12 310 6 292 42 c 1
 290 42 l 1
 268 12 232 -12 178 -12 c 0
 116 -12 46 13 46 106 c 0xbb
 46 204 142 246 214 271 c 2
 288 297 l 1
 288 365 l 2
 288 438 252 462 213 462 c 0
 179 462 144 446 144 415 c 0
 144 380 188 388 188 341 c 0
 188 306 157 290 132 290 c 0
 101 290 69 311 69 358 c 0
 69 439 153 486 224 486 c 0
 306 486 404 447 404 325 c 2
 404 72 l 2
 404 47 411 36 424 36 c 0
 450 36 460 90 460 135 c 1
 488 135 l 1x77
168 115 m 0xbb
 168 41 205 28 227 28 c 0
 253 28 274 44 288 72 c 1
 288 270 l 1
 232 250 l 2
 187 234 168 189 168 115 c 0xbb
96 672 m 0
 96 696 114 712 138 712 c 0
 156 712 171 705 187 680 c 2
 276 542 l 1
 256 524 l 1
 124 624 l 2
 107 637 96 654 96 672 c 0
EndSplineSet
Substitution2: "'smcp' Lowercase to Small Capitals lookup 0 subtable" agrave.sc
EndChar

StartChar: aacute
Encoding: 225 225 161
Width: 508
GlyphClass: 2
Flags: MW
HStem: -12 40<147 240> -12 48<417.5 437 417.5 438.5> 462 24<196 232.5> 692 20G<317 338>
VStem: 46 122<78 152 78 155> 69 75<397.5 398.5> 288 116<72 270 270 270 297 325> 460 28<117.5 135 117.5 135>
LayerCount: 2
Fore
SplineSet
488 135 m 1x77
 488 100 488 -12 389 -12 c 0x77
 332 -12 310 6 292 42 c 1
 290 42 l 1
 268 12 232 -12 178 -12 c 0
 116 -12 46 13 46 106 c 0xbb
 46 204 142 246 214 271 c 2
 288 297 l 1
 288 365 l 2
 288 438 252 462 213 462 c 0
 179 462 144 446 144 415 c 0
 144 380 188 388 188 341 c 0
 188 306 157 290 132 290 c 0
 101 290 69 311 69 358 c 0
 69 439 153 486 224 486 c 0
 306 486 404 447 404 325 c 2
 404 72 l 2
 404 47 411 36 424 36 c 0
 450 36 460 90 460 135 c 1
 488 135 l 1x77
168 115 m 0xbb
 168 41 205 28 227 28 c 0
 253 28 274 44 288 72 c 1
 288 270 l 1
 232 250 l 2
 187 234 168 189 168 115 c 0xbb
188 542 m 1
 277 680 l 2
 293 705 308 712 326 712 c 0
 350 712 368 696 368 672 c 0
 368 654 357 637 340 624 c 2
 208 524 l 1
 188 542 l 1
EndSplineSet
Substitution2: "'smcp' Lowercase to Small Capitals lookup 0 subtable" aacute.sc
EndChar

StartChar: acircumflex
Encoding: 226 226 162
Width: 508
GlyphClass: 2
Flags: MW
HStem: -12 40<147 240> -12 48<417.5 437 417.5 438.5> 462 24<196 232.5>
VStem: 46 122<78 152 78 155> 69 75<397.5 398.5> 288 116<72 270 270 270 297 325> 460 28<117.5 135 117.5 135>
LayerCount: 2
Fore
SplineSet
488 135 m 1x6e
 488 100 488 -12 389 -12 c 0x6e
 332 -12 310 6 292 42 c 1
 290 42 l 1
 268 12 232 -12 178 -12 c 0
 116 -12 46 13 46 106 c 0xb6
 46 204 142 246 214 271 c 2
 288 297 l 1
 288 365 l 2
 288 438 252 462 213 462 c 0
 179 462 144 446 144 415 c 0
 144 380 188 388 188 341 c 0
 188 306 157 290 132 290 c 0
 101 290 69 311 69 358 c 0
 69 439 153 486 224 486 c 0
 306 486 404 447 404 325 c 2
 404 72 l 2
 404 47 411 36 424 36 c 0
 450 36 460 90 460 135 c 1
 488 135 l 1x6e
168 115 m 0xb6
 168 41 205 28 227 28 c 0
 253 28 274 44 288 72 c 1
 288 270 l 1
 232 250 l 2
 187 234 168 189 168 115 c 0xb6
82 548 m 1
 157 597 182 662 198 708 c 1
 266 708 l 1
 282 662 307 597 382 548 c 1
 366 524 l 1
 320 546 264 586 232 620 c 1
 200 586 144 546 98 524 c 1
 82 548 l 1
EndSplineSet
Substitution2: "'smcp' Lowercase to Small Capitals lookup 0 subtable" acircumflex.sc
EndChar

StartChar: atilde
Encoding: 227 227 163
Width: 508
GlyphClass: 2
Flags: MW
HStem: -12 40<147 240> -12 48<417.5 437 417.5 438.5> 462 24<196 232.5> 568 68<288.5 319> 604 68<145 175.5>
VStem: 46 122<78 152 78 155> 69 75<397.5 398.5> 84 22<564 588> 288 116<72 270 270 270 297 325> 358 22<652 676> 460 28<117.5 135 117.5 135>
LayerCount: 2
Fore
SplineSet
488 135 m 1x62a0
 488 100 488 -12 389 -12 c 0x62a0
 332 -12 310 6 292 42 c 1
 290 42 l 1
 268 12 232 -12 178 -12 c 0
 116 -12 46 13 46 106 c 0xa4a0
 46 204 142 246 214 271 c 2
 288 297 l 1
 288 365 l 2
 288 438 252 462 213 462 c 0
 179 462 144 446 144 415 c 0
 144 380 188 388 188 341 c 0
 188 306 157 290 132 290 c 0
 101 290 69 311 69 358 c 0
 69 439 153 486 224 486 c 0
 306 486 404 447 404 325 c 2
 404 72 l 2
 404 47 411 36 424 36 c 0
 450 36 460 90 460 135 c 1
 488 135 l 1x62a0
168 115 m 0xa4a0
 168 41 205 28 227 28 c 0
 253 28 274 44 288 72 c 1
 288 270 l 1
 232 250 l 2
 187 234 168 189 168 115 c 0xa4a0
292 568 m 0x3160
 228 568 205 604 146 604 c 0
 122 604 110 588 106 564 c 1
 84 564 l 1
 84 612 118 672 172 672 c 0x2960
 236 672 259 636 318 636 c 0
 342 636 354 652 358 676 c 1
 380 676 l 1
 380 628 346 568 292 568 c 0x3160
EndSplineSet
MultipleSubs2: "Multiple Substitution lookup 32 subtable" a tildecomb
EndChar

StartChar: adieresis
Encoding: 228 228 164
Width: 508
GlyphClass: 2
Flags: MW
HStem: -12 40<147 240> -12 48<417.5 437 417.5 438.5> 462 24<196 232.5> 558 120<119.5 152.5 311.5 344.5>
VStem: 46 122<78 152 78 155> 69 75<397.5 398.5> 76 120<601.5 634.5> 268 120<601.5 634.5> 288 116<72 270 270 270 297 325> 460 28<117.5 135 117.5 135>
LayerCount: 2
Fore
SplineSet
488 135 m 1x74c0
 488 100 488 -12 389 -12 c 0x74c0
 332 -12 310 6 292 42 c 1
 290 42 l 1
 268 12 232 -12 178 -12 c 0
 116 -12 46 13 46 106 c 0xb8c0
 46 204 142 246 214 271 c 2
 288 297 l 1
 288 365 l 2
 288 438 252 462 213 462 c 0
 179 462 144 446 144 415 c 0
 144 380 188 388 188 341 c 0
 188 306 157 290 132 290 c 0
 101 290 69 311 69 358 c 0
 69 439 153 486 224 486 c 0
 306 486 404 447 404 325 c 2
 404 72 l 2
 404 47 411 36 424 36 c 0
 450 36 460 90 460 135 c 1
 488 135 l 1x74c0
168 115 m 0xb8c0
 168 41 205 28 227 28 c 0
 253 28 274 44 288 72 c 1
 288 270 l 1
 232 250 l 2
 187 234 168 189 168 115 c 0xb8c0
76 618 m 0x3240
 76 651 103 678 136 678 c 0
 169 678 196 651 196 618 c 0
 196 585 169 558 136 558 c 0
 103 558 76 585 76 618 c 0x3240
268 618 m 0x3140
 268 651 295 678 328 678 c 0
 361 678 388 651 388 618 c 0
 388 585 361 558 328 558 c 0
 295 558 268 585 268 618 c 0x3140
EndSplineSet
MultipleSubs2: "Multiple Substitution lookup 32 subtable" a uni0308
Substitution2: "'smcp' Lowercase to Small Capitals lookup 0 subtable" adieresis.sc
EndChar

StartChar: aring
Encoding: 229 229 165
Width: 508
GlyphClass: 2
Flags: MW
HStem: -12 40<147 240> -12 48<417.5 437 417.5 438.5> 462 24<196 232.5> 516 44<213 251 213 262> 686 44<213 251>
VStem: 46 122<78 152 78 155> 69 75<397.5 398.5> 125 44<604 642 604 653> 288 116<72 270 270 270 297 325> 295 44<604 642> 460 28<117.5 135 117.5 135>
LayerCount: 2
Fore
SplineSet
488 135 m 1x7aa0
 488 100 488 -12 389 -12 c 0x7aa0
 332 -12 310 6 292 42 c 1
 290 42 l 1
 268 12 232 -12 178 -12 c 0
 116 -12 46 13 46 106 c 0xbca0
 46 204 142 246 214 271 c 2
 288 297 l 1
 288 365 l 2
 288 438 252 462 213 462 c 0
 179 462 144 446 144 415 c 0
 144 380 188 388 188 341 c 0
 188 306 157 290 132 290 c 0
 101 290 69 311 69 358 c 0
 69 439 153 486 224 486 c 0
 306 486 404 447 404 325 c 2
 404 72 l 2
 404 47 411 36 424 36 c 0
 450 36 460 90 460 135 c 1
 488 135 l 1x7aa0
168 115 m 0xbca0
 168 41 205 28 227 28 c 0
 253 28 274 44 288 72 c 1
 288 270 l 1
 232 250 l 2
 187 234 168 189 168 115 c 0xbca0
169 623 m 0x3960
 169 585 194 560 232 560 c 0
 270 560 295 585 295 623 c 0
 295 661 270 686 232 686 c 0
 194 686 169 661 169 623 c 0x3960
125 623 m 0
 125 683 172 730 232 730 c 0
 292 730 339 683 339 623 c 0
 339 563 292 516 232 516 c 0
 172 516 125 563 125 623 c 0
EndSplineSet
MultipleSubs2: "Multiple Substitution lookup 32 subtable" a uni030A
EndChar

StartChar: ae
Encoding: 230 230 166
Width: 700
GlyphClass: 3
LigCaretCntFixed: 1
Flags: MW
HStem: -12 30<486.5 544.5 486.5 546> -12 40<145 237> 228 28<404 532 404 648 404 532> 462 24<194 230.5 456.5 494>
VStem: 46 122<78 152 78 157> 69 75<397.5 398.5> 288 116<202.5 228 256 269 269 269 297 321 202.5 365> 532 116<228 321> 624 26<162 162>
AnchorPoint: "Anchor-2" 328 0 basechar 0
AnchorPoint: "Anchor-1" 360 508 basechar 0
AnchorPoint: "Anchor-0" 360 528 basechar 0
LayerCount: 2
Fore
SplineSet
404 256 m 1x33
 532 256 l 1
 532 386 520 462 468 462 c 0
 416 462 404 386 404 256 c 1x33
168 115 m 0x7a
 168 41 206 28 224 28 c 0
 250 28 271 40 288 66 c 1
 288 269 l 1
 232 250 l 2
 188 235 168 189 168 115 c 0x7a
144 415 m 0x76
 144 380 188 388 188 341 c 0
 188 306 157 290 132 290 c 0
 101 290 69 311 69 358 c 0
 69 439 147 486 218 486 c 0
 265 486 310 476 350 442 c 1
 386 474 435 486 478 486 c 0
 560 486 622 422 641 328 c 0
 648 296 648 240 648 228 c 1x77
 404 228 l 1
 404 177 404 138 415 99 c 0
 427 50 464 18 509 18 c 0
 580 18 617 94 624 162 c 1
 650 162 l 1
 643 88 603 -12 489 -12 c 0xb280
 425 -12 362 15 328 66 c 1
 296 22 252 -12 174 -12 c 0
 116 -12 46 14 46 107 c 0x7a80
 46 207 149 248 214 271 c 2
 288 297 l 1
 288 365 l 2
 288 438 250 462 211 462 c 0
 177 462 144 446 144 415 c 0x76
EndSplineSet
Ligature2: "'rlig' Required Ligatures lookup 23 subtable" a afii301 e
Substitution2: "'smcp' Lowercase to Small Capitals lookup 0 subtable" ae.sc
LCarets2: 1 346
EndChar

StartChar: ccedilla
Encoding: 231 231 167
Width: 468
GlyphClass: 2
Flags: MW
HStem: -208 22<231 280.5 229.5 291> -98 56<251 264 217 276> -12 30<258.5 261 255 316.5> 462 24<234 292.5>
VStem: 48 128<209 303.5 209 305.5> 312 48<-139.5 -128.5> 332 72<327 417> 396 26<162 162>
LayerCount: 2
Fore
SplineSet
276 312 m 0xfa
 276 358 332 367 332 406 c 0xfa
 332 428 318 462 267 462 c 0
 201 462 176 370 176 237 c 0
 176 181 176 138 187 99 c 0
 199 50 236 18 281 18 c 0
 352 18 389 94 396 162 c 1
 422 162 l 1
 415 88 375 -12 261 -12 c 2
 255 -12 l 1
 251 -42 l 1
 276 -42 l 2
 324 -42 360 -74 360 -117 c 0
 360 -162 331 -208 251 -208 c 0
 211 -208 156 -188 156 -143 c 0
 156 -123 167 -111 185 -111 c 0
 233 -111 194 -186 265 -186 c 0
 296 -186 312 -165 312 -140 c 0xfd
 312 -117 298 -98 264 -98 c 2
 217 -98 l 1
 231 -10 l 1
 120 6 48 111 48 237 c 0
 48 374 133 486 259 486 c 0
 360 486 404 413 404 351 c 0
 404 303 370 262 329 262 c 0
 300 262 276 280 276 312 c 0xfa
EndSplineSet
Ligature2: "'ccmp' Glyph Composition/Decomposition lookup 3 subtable" c uni0327
Substitution2: "'smcp' Lowercase to Small Capitals lookup 0 subtable" ccedilla.sc
EndChar

StartChar: egrave
Encoding: 232 232 168
Width: 472
GlyphClass: 2
Flags: MW
HStem: -12 30<258.5 316.5 258.5 318> 228 28<176 304 176 420 176 304> 462 24<214 266> 692 20G<134 155>
VStem: 48 128<202.5 228 256 309> 304 116<228 321> 396 26<162 162>
LayerCount: 2
Fore
SplineSet
176 256 m 1xfc
 304 256 l 1
 304 386 292 462 240 462 c 0
 188 462 176 386 176 256 c 1xfc
48 237 m 0
 48 381 139 486 250 486 c 0
 332 486 394 422 413 328 c 0
 420 296 420 240 420 228 c 1xfc
 176 228 l 1
 176 177 176 138 187 99 c 0
 199 50 236 18 281 18 c 0
 352 18 389 94 396 162 c 1
 422 162 l 1xfa
 415 88 375 -12 261 -12 c 0
 133 -12 48 100 48 237 c 0
104 672 m 0
 104 696 122 712 146 712 c 0
 164 712 179 705 195 680 c 2
 284 542 l 1
 264 524 l 1
 132 624 l 2
 115 637 104 654 104 672 c 0
EndSplineSet
Substitution2: "'smcp' Lowercase to Small Capitals lookup 0 subtable" egrave.sc
EndChar

StartChar: eacute
Encoding: 233 233 169
Width: 472
GlyphClass: 2
Flags: MW
HStem: -12 30<258.5 316.5 258.5 318> 228 28<176 304 176 420 176 304> 462 24<214 266> 692 20G<325 346>
VStem: 48 128<202.5 228 256 309> 304 116<228 321> 396 26<162 162>
LayerCount: 2
Fore
SplineSet
176 256 m 1xfc
 304 256 l 1
 304 386 292 462 240 462 c 0
 188 462 176 386 176 256 c 1xfc
48 237 m 0
 48 381 139 486 250 486 c 0
 332 486 394 422 413 328 c 0
 420 296 420 240 420 228 c 1xfc
 176 228 l 1
 176 177 176 138 187 99 c 0
 199 50 236 18 281 18 c 0
 352 18 389 94 396 162 c 1
 422 162 l 1xfa
 415 88 375 -12 261 -12 c 0
 133 -12 48 100 48 237 c 0
196 542 m 1
 285 680 l 2
 301 705 316 712 334 712 c 0
 358 712 376 696 376 672 c 0
 376 654 365 637 348 624 c 2
 216 524 l 1
 196 542 l 1
EndSplineSet
Substitution2: "'smcp' Lowercase to Small Capitals lookup 0 subtable" eacute.sc
EndChar

StartChar: ecircumflex
Encoding: 234 234 170
Width: 472
GlyphClass: 2
Flags: MW
HStem: -12 30<258.5 316.5 258.5 318> 228 28<176 304 176 420 176 304> 462 24<214 266>
VStem: 48 128<202.5 228 256 309> 304 116<228 321> 396 26<162 162>
LayerCount: 2
Fore
SplineSet
176 256 m 1xf8
 304 256 l 1
 304 386 292 462 240 462 c 0
 188 462 176 386 176 256 c 1xf8
48 237 m 0
 48 381 139 486 250 486 c 0
 332 486 394 422 413 328 c 0
 420 296 420 240 420 228 c 1xf8
 176 228 l 1
 176 177 176 138 187 99 c 0
 199 50 236 18 281 18 c 0
 352 18 389 94 396 162 c 1
 422 162 l 1xf4
 415 88 375 -12 261 -12 c 0
 133 -12 48 100 48 237 c 0
90 548 m 1
 165 597 190 662 206 708 c 1
 274 708 l 1
 290 662 315 597 390 548 c 1
 374 524 l 1
 328 546 272 586 240 620 c 1
 208 586 152 546 106 524 c 1
 90 548 l 1
EndSplineSet
Substitution2: "'smcp' Lowercase to Small Capitals lookup 0 subtable" ecircumflex.sc
EndChar

StartChar: edieresis
Encoding: 235 235 171
Width: 472
GlyphClass: 2
Flags: MW
HStem: -12 30<258.5 316.5 258.5 318> 228 28<176 304 176 420 176 304> 462 24<214 266> 558 120<127.5 160.5 319.5 352.5>
VStem: 48 128<202.5 228 256 309> 84 120<601.5 634.5> 276 120<601.5 634.5> 304 116<228 321> 396 26<162 162>
LayerCount: 2
Fore
SplineSet
176 256 m 1xf9
 304 256 l 1
 304 386 292 462 240 462 c 0
 188 462 176 386 176 256 c 1xf9
48 237 m 0
 48 381 139 486 250 486 c 0
 332 486 394 422 413 328 c 0
 420 296 420 240 420 228 c 1xf9
 176 228 l 1
 176 177 176 138 187 99 c 0
 199 50 236 18 281 18 c 0
 352 18 389 94 396 162 c 1
 422 162 l 1xf880
 415 88 375 -12 261 -12 c 0
 133 -12 48 100 48 237 c 0
84 618 m 0xf4
 84 651 111 678 144 678 c 0
 177 678 204 651 204 618 c 0
 204 585 177 558 144 558 c 0
 111 558 84 585 84 618 c 0xf4
276 618 m 0xf2
 276 651 303 678 336 678 c 0
 369 678 396 651 396 618 c 0
 396 585 369 558 336 558 c 0
 303 558 276 585 276 618 c 0xf2
EndSplineSet
MultipleSubs2: "Multiple Substitution lookup 32 subtable" e uni0308
Substitution2: "'smcp' Lowercase to Small Capitals lookup 0 subtable" edieresis.sc
EndChar

StartChar: igrave
Encoding: 236 236 172
Width: 296
GlyphClass: 2
Flags: MW
HStem: 0 24<40 78 40 78 78 84 226 264> 450 24<40 78 40 210> 692 20G<42 63>
VStem: 94 116<40 434 434 440>
LayerCount: 2
Fore
SplineSet
40 0 m 1
 40 24 l 1
 78 24 l 2
 90 24 94 28 94 40 c 2
 94 434 l 2
 94 446 90 450 78 450 c 2
 40 450 l 1
 40 474 l 1
 210 474 l 1
 210 40 l 2
 210 28 214 24 226 24 c 2
 264 24 l 1
 264 0 l 1
 40 0 l 1
12 672 m 0
 12 696 30 712 54 712 c 0
 72 712 87 705 103 680 c 2
 192 542 l 1
 172 524 l 1
 40 624 l 2
 23 637 12 654 12 672 c 0
EndSplineSet
Substitution2: "'smcp' Lowercase to Small Capitals lookup 0 subtable" igrave.sc
EndChar

StartChar: iacute
Encoding: 237 237 173
Width: 296
GlyphClass: 2
Flags: MW
HStem: 0 24<40 78 40 78 78 84 226 264> 450 24<40 78 40 210> 692 20G<233 254>
VStem: 94 116<40 434 434 440>
LayerCount: 2
Fore
SplineSet
40 0 m 1
 40 24 l 1
 78 24 l 2
 90 24 94 28 94 40 c 2
 94 434 l 2
 94 446 90 450 78 450 c 2
 40 450 l 1
 40 474 l 1
 210 474 l 1
 210 40 l 2
 210 28 214 24 226 24 c 2
 264 24 l 1
 264 0 l 1
 40 0 l 1
104 542 m 1
 193 680 l 2
 209 705 224 712 242 712 c 0
 266 712 284 696 284 672 c 0
 284 654 273 637 256 624 c 2
 124 524 l 1
 104 542 l 1
EndSplineSet
Substitution2: "'smcp' Lowercase to Small Capitals lookup 0 subtable" iacute.sc
EndChar

StartChar: icircumflex
Encoding: 238 238 174
Width: 296
GlyphClass: 2
Flags: MW
HStem: 0 24<40 78 40 78 78 84 226 264> 450 24<40 78 40 210>
VStem: 94 116<40 434 434 440>
LayerCount: 2
Fore
SplineSet
40 0 m 1
 40 24 l 1
 78 24 l 2
 90 24 94 28 94 40 c 2
 94 434 l 2
 94 446 90 450 78 450 c 2
 40 450 l 1
 40 474 l 1
 210 474 l 1
 210 40 l 2
 210 28 214 24 226 24 c 2
 264 24 l 1
 264 0 l 1
 40 0 l 1
-2 548 m 1
 73 597 98 662 114 708 c 1
 182 708 l 1
 198 662 223 597 298 548 c 1
 282 524 l 1
 236 546 180 586 148 620 c 1
 116 586 60 546 14 524 c 1
 -2 548 l 1
EndSplineSet
Substitution2: "'smcp' Lowercase to Small Capitals lookup 0 subtable" icircumflex.sc
EndChar

StartChar: idieresis
Encoding: 239 239 175
Width: 296
GlyphClass: 2
Flags: MW
HStem: 0 24<40 78 40 78 78 84 226 264> 450 24<40 78 40 210> 558 120<49.5 82.5 213.5 246.5>
VStem: 6 120<601.5 634.5> 94 116<40 434 434 440> 170 120<601.5 634.5>
LayerCount: 2
Fore
SplineSet
40 0 m 1xe8
 40 24 l 1
 78 24 l 2
 90 24 94 28 94 40 c 2
 94 434 l 2
 94 446 90 450 78 450 c 2
 40 450 l 1
 40 474 l 1
 210 474 l 1
 210 40 l 2
 210 28 214 24 226 24 c 2
 264 24 l 1
 264 0 l 1
 40 0 l 1xe8
6 618 m 0xf0
 6 651 33 678 66 678 c 0
 99 678 126 651 126 618 c 0
 126 585 99 558 66 558 c 0
 33 558 6 585 6 618 c 0xf0
170 618 m 0xe4
 170 651 197 678 230 678 c 0
 263 678 290 651 290 618 c 0
 290 585 263 558 230 558 c 0
 197 558 170 585 170 618 c 0xe4
EndSplineSet
MultipleSubs2: "Multiple Substitution lookup 32 subtable" dotlessi uni0308
Substitution2: "'smcp' Lowercase to Small Capitals lookup 0 subtable" idieresis.sc
EndChar

StartChar: eth
Encoding: 240 240 176
Width: 510
GlyphClass: 2
Flags: MW
HStem: -12 24<230 280 230 311> 462 24<230 250 189.5 280> 692 20G
VStem: 48 128<167 307> 334 128<158.5 290 158.5 320>
LayerCount: 2
Fore
SplineSet
176 237 m 0
 176 71 205 12 255 12 c 0
 305 12 334 71 334 237 c 0
 334 403 305 462 255 462 c 0
 205 462 176 403 176 237 c 0
48 237 m 0
 48 377 137 486 242 486 c 0
 258 486 268 485 282 481 c 1
 287 486 l 1
 268 520 246 553 222 585 c 1
 128 530 l 1
 114 554 l 1
 205 608 l 1
 180 639 154 669 127 695 c 1
 127 712 l 1
 247 712 l 1
 265 693 280 676 294 660 c 1
 390 716 l 1
 404 692 l 1
 312 638 l 1
 339 603 361 569 388 526 c 0
 442 440 462 337 462 243 c 0
 462 74 367 -12 255 -12 c 0
 139 -12 48 97 48 237 c 0
EndSplineSet
EndChar

StartChar: ntilde
Encoding: 241 241 177
Width: 556
GlyphClass: 2
Flags: MW
HStem: 0 24<40 78 78 84 226 258 40 78 306 338 338 344 486 524> 450 24<40 78 40 210> 454 32<310 326.5> 568 68<334.5 365> 604 68<191 221.5>
VStem: 94 116<40 254 385 434 434 440> 130 22<564 588> 354 116<40 348> 404 22<652 676>
LayerCount: 2
Fore
SplineSet
339 486 m 0xa5
 468 486 470 355 470 348 c 2
 470 40 l 2
 470 28 474 24 486 24 c 2
 524 24 l 1
 524 0 l 1
 306 0 l 1
 306 24 l 1
 338 24 l 2
 350 24 354 28 354 40 c 2
 354 377 l 2
 354 418 345 454 308 454 c 0xa5
 267 454 210 363 210 254 c 2
 210 40 l 2
 210 28 214 24 226 24 c 2
 258 24 l 1
 258 0 l 1
 40 0 l 1
 40 24 l 1
 78 24 l 2
 90 24 94 28 94 40 c 2
 94 434 l 2
 94 446 90 450 78 450 c 2
 40 450 l 1
 40 474 l 1
 210 474 l 1xc5
 210 385 l 1
 215 384 l 1
 240 442 281 486 339 486 c 0xa5
338 568 m 0x9280
 274 568 251 604 192 604 c 0
 168 604 156 588 152 564 c 1
 130 564 l 1
 130 612 164 672 218 672 c 0x8a80
 282 672 305 636 364 636 c 0
 388 636 400 652 404 676 c 1
 426 676 l 1
 426 628 392 568 338 568 c 0x9280
EndSplineSet
Substitution2: "'smcp' Lowercase to Small Capitals lookup 0 subtable" ntilde.sc
EndChar

StartChar: ograve
Encoding: 242 242 178
Width: 504
GlyphClass: 2
Flags: MW
HStem: -12 24<222 282 222 306> 462 24<222 282> 692 20G<146 167>
VStem: 48 128<165 309> 328 128<165 309 165 313>
LayerCount: 2
Fore
SplineSet
48 237 m 0
 48 381 144 486 252 486 c 0
 360 486 456 381 456 237 c 0
 456 93 360 -12 252 -12 c 0
 144 -12 48 93 48 237 c 0
176 237 m 0
 176 85 192 12 252 12 c 0
 312 12 328 85 328 237 c 0
 328 389 312 462 252 462 c 0
 192 462 176 389 176 237 c 0
116 672 m 0
 116 696 134 712 158 712 c 0
 176 712 191 705 207 680 c 2
 296 542 l 1
 276 524 l 1
 144 624 l 2
 127 637 116 654 116 672 c 0
EndSplineSet
Substitution2: "'smcp' Lowercase to Small Capitals lookup 0 subtable" ograve.sc
EndChar

StartChar: oacute
Encoding: 243 243 179
Width: 504
GlyphClass: 2
Flags: MW
HStem: -12 24<222 282 222 306> 462 24<222 282> 692 20G<337 358>
VStem: 48 128<165 309> 328 128<165 309 165 313>
LayerCount: 2
Fore
SplineSet
48 237 m 0
 48 381 144 486 252 486 c 0
 360 486 456 381 456 237 c 0
 456 93 360 -12 252 -12 c 0
 144 -12 48 93 48 237 c 0
176 237 m 0
 176 85 192 12 252 12 c 0
 312 12 328 85 328 237 c 0
 328 389 312 462 252 462 c 0
 192 462 176 389 176 237 c 0
208 542 m 1
 297 680 l 2
 313 705 328 712 346 712 c 0
 370 712 388 696 388 672 c 0
 388 654 377 637 360 624 c 2
 228 524 l 1
 208 542 l 1
EndSplineSet
Substitution2: "'smcp' Lowercase to Small Capitals lookup 0 subtable" oacute.sc
EndChar

StartChar: ocircumflex
Encoding: 244 244 180
Width: 504
GlyphClass: 2
Flags: MW
HStem: -12 24<222 282 222 306> 462 24<222 282>
VStem: 48 128<165 309> 328 128<165 309 165 313>
LayerCount: 2
Fore
SplineSet
48 237 m 0
 48 381 144 486 252 486 c 0
 360 486 456 381 456 237 c 0
 456 93 360 -12 252 -12 c 0
 144 -12 48 93 48 237 c 0
176 237 m 0
 176 85 192 12 252 12 c 0
 312 12 328 85 328 237 c 0
 328 389 312 462 252 462 c 0
 192 462 176 389 176 237 c 0
102 548 m 1
 177 597 202 662 218 708 c 1
 286 708 l 1
 302 662 327 597 402 548 c 1
 386 524 l 1
 340 546 284 586 252 620 c 1
 220 586 164 546 118 524 c 1
 102 548 l 1
EndSplineSet
Substitution2: "'smcp' Lowercase to Small Capitals lookup 0 subtable" ocircumflex.sc
EndChar

StartChar: otilde
Encoding: 245 245 181
Width: 504
GlyphClass: 2
Flags: MW
HStem: -12 24<222 282 222 306> 462 24<222 282> 568 68<308.5 339> 604 68<165 195.5>
VStem: 48 128<165 309> 104 22<564 588> 328 128<165 309 165 313> 378 22<652 676>
LayerCount: 2
Fore
SplineSet
48 237 m 0xca
 48 381 144 486 252 486 c 0
 360 486 456 381 456 237 c 0
 456 93 360 -12 252 -12 c 0
 144 -12 48 93 48 237 c 0xca
176 237 m 0
 176 85 192 12 252 12 c 0
 312 12 328 85 328 237 c 0
 328 389 312 462 252 462 c 0
 192 462 176 389 176 237 c 0
312 568 m 0xe5
 248 568 225 604 166 604 c 0
 142 604 130 588 126 564 c 1
 104 564 l 1
 104 612 138 672 192 672 c 0xd5
 256 672 279 636 338 636 c 0
 362 636 374 652 378 676 c 1
 400 676 l 1
 400 628 366 568 312 568 c 0xe5
EndSplineSet
MultipleSubs2: "Multiple Substitution lookup 32 subtable" o tildecomb
EndChar

StartChar: odieresis
Encoding: 246 246 182
Width: 504
GlyphClass: 2
Flags: MW
HStem: -12 24<222 282 222 306> 462 24<222 282> 558 120<139.5 172.5 331.5 364.5>
VStem: 48 128<165 309> 96 120<601.5 634.5> 288 120<601.5 634.5> 328 128<165 309 165 313>
LayerCount: 2
Fore
SplineSet
48 237 m 0xf2
 48 381 144 486 252 486 c 0
 360 486 456 381 456 237 c 0
 456 93 360 -12 252 -12 c 0
 144 -12 48 93 48 237 c 0xf2
176 237 m 0
 176 85 192 12 252 12 c 0
 312 12 328 85 328 237 c 0
 328 389 312 462 252 462 c 0
 192 462 176 389 176 237 c 0
96 618 m 0xe8
 96 651 123 678 156 678 c 0
 189 678 216 651 216 618 c 0
 216 585 189 558 156 558 c 0
 123 558 96 585 96 618 c 0xe8
288 618 m 0xe4
 288 651 315 678 348 678 c 0
 381 678 408 651 408 618 c 0
 408 585 381 558 348 558 c 0
 315 558 288 585 288 618 c 0xe4
EndSplineSet
MultipleSubs2: "Multiple Substitution lookup 32 subtable" o uni0308
Substitution2: "'smcp' Lowercase to Small Capitals lookup 0 subtable" odieresis.sc
EndChar

StartChar: divide
Encoding: 247 247 183
Width: 940
GlyphClass: 2
Flags: MW
HStem: -66 156<447.5 492.5> 240 64<42 898 42 898> 450 156<447.5 492.5>
VStem: 392 156<-10.5 34.5 505.5 550.5>
LayerCount: 2
Fore
SplineSet
42 240 m 1
 42 304 l 1
 898 304 l 1
 898 240 l 1
 42 240 l 1
392 12 m 0
 392 57 425 90 470 90 c 0
 515 90 548 57 548 12 c 0
 548 -33 515 -66 470 -66 c 0
 425 -66 392 -33 392 12 c 0
392 528 m 0
 392 573 425 606 470 606 c 0
 515 606 548 573 548 528 c 0
 548 483 515 450 470 450 c 0
 425 450 392 483 392 528 c 0
EndSplineSet
EndChar

StartChar: oslash
Encoding: 248 248 184
Width: 504
GlyphClass: 2
Flags: MW
HStem: -12 24<230.5 282 230.5 306> 462 24<221.5 273.5>
VStem: 48 128<224 309> 328 128<165 250>
AnchorPoint: "Anchor-2" 252 0 basechar 0
AnchorPoint: "Anchor-1" 252 508 basechar 0
AnchorPoint: "Anchor-0" 252 528 basechar 0
LayerCount: 2
Fore
SplineSet
176 237 m 0
 176 211 176 188 177 167 c 1
 323 348 l 1
 315 425 295 462 252 462 c 0
 191 462 176 389 176 237 c 0
180 125 m 1
 188 49 209 12 252 12 c 0
 312 12 328 85 328 237 c 0
 328 263 328 286 327 307 c 1
 180 125 l 1
48 6 m 1
 100 71 l 1
 68 114 48 171 48 237 c 0
 48 381 144 486 252 486 c 0
 302 486 349 464 385 426 c 1
 434 486 l 1
 456 468 l 1
 404 403 l 1
 436 360 456 303 456 237 c 0
 456 93 360 -12 252 -12 c 0
 202 -12 155 10 119 48 c 1
 70 -12 l 1
 48 6 l 1
EndSplineSet
EndChar

StartChar: ugrave
Encoding: 249 249 185
Width: 550
GlyphClass: 2
Flags: MW
HStem: -12 32<231.5 248> 0 24<480 518 480 518> 450 24<24 72 24 204 284 332> 692 20G<152 173>
VStem: 88 116<126 434 434 440> 348 116<34 40 40 89 89 89 220 434 434 440>
LayerCount: 2
Fore
SplineSet
219 -12 m 0xbc
 90 -12 88 119 88 126 c 2
 88 434 l 2
 88 446 84 450 72 450 c 2
 24 450 l 1
 24 474 l 1
 204 474 l 1
 204 97 l 2
 204 56 213 20 250 20 c 0xbc
 291 20 348 111 348 220 c 2
 348 434 l 2
 348 446 344 450 332 450 c 2
 284 450 l 1
 284 474 l 1
 464 474 l 1
 464 40 l 2
 464 28 468 24 480 24 c 2
 518 24 l 1
 518 0 l 1
 348 0 l 1x7c
 348 89 l 1
 343 90 l 1
 318 32 277 -12 219 -12 c 0xbc
122 672 m 0
 122 696 140 712 164 712 c 0
 182 712 197 705 213 680 c 2
 302 542 l 1
 282 524 l 1
 150 624 l 2
 133 637 122 654 122 672 c 0
EndSplineSet
Substitution2: "'smcp' Lowercase to Small Capitals lookup 0 subtable" ugrave.sc
EndChar

StartChar: uacute
Encoding: 250 250 186
Width: 550
GlyphClass: 2
Flags: MW
HStem: -12 32<231.5 248> 0 24<480 518 480 518> 450 24<24 72 24 204 284 332> 692 20G<343 364>
VStem: 88 116<126 434 434 440> 348 116<34 40 40 89 89 89 220 434 434 440>
LayerCount: 2
Fore
SplineSet
219 -12 m 0xbc
 90 -12 88 119 88 126 c 2
 88 434 l 2
 88 446 84 450 72 450 c 2
 24 450 l 1
 24 474 l 1
 204 474 l 1
 204 97 l 2
 204 56 213 20 250 20 c 0xbc
 291 20 348 111 348 220 c 2
 348 434 l 2
 348 446 344 450 332 450 c 2
 284 450 l 1
 284 474 l 1
 464 474 l 1
 464 40 l 2
 464 28 468 24 480 24 c 2
 518 24 l 1
 518 0 l 1
 348 0 l 1x7c
 348 89 l 1
 343 90 l 1
 318 32 277 -12 219 -12 c 0xbc
214 542 m 1
 303 680 l 2
 319 705 334 712 352 712 c 0
 376 712 394 696 394 672 c 0
 394 654 383 637 366 624 c 2
 234 524 l 1
 214 542 l 1
EndSplineSet
Substitution2: "'smcp' Lowercase to Small Capitals lookup 0 subtable" uacute.sc
EndChar

StartChar: ucircumflex
Encoding: 251 251 187
Width: 550
GlyphClass: 2
Flags: MW
HStem: -12 32<231.5 248> 0 24<480 518 480 518> 450 24<24 72 24 204 284 332>
VStem: 88 116<126 434 434 440> 348 116<34 40 40 89 89 89 220 434 434 440>
LayerCount: 2
Fore
SplineSet
219 -12 m 0xb8
 90 -12 88 119 88 126 c 2
 88 434 l 2
 88 446 84 450 72 450 c 2
 24 450 l 1
 24 474 l 1
 204 474 l 1
 204 97 l 2
 204 56 213 20 250 20 c 0xb8
 291 20 348 111 348 220 c 2
 348 434 l 2
 348 446 344 450 332 450 c 2
 284 450 l 1
 284 474 l 1
 464 474 l 1
 464 40 l 2
 464 28 468 24 480 24 c 2
 518 24 l 1
 518 0 l 1
 348 0 l 1x78
 348 89 l 1
 343 90 l 1
 318 32 277 -12 219 -12 c 0xb8
108 548 m 1
 183 597 208 662 224 708 c 1
 292 708 l 1
 308 662 333 597 408 548 c 1
 392 524 l 1
 346 546 290 586 258 620 c 1
 226 586 170 546 124 524 c 1
 108 548 l 1
EndSplineSet
Substitution2: "'smcp' Lowercase to Small Capitals lookup 0 subtable" ucircumflex.sc
EndChar

StartChar: udieresis
Encoding: 252 252 188
Width: 550
GlyphClass: 2
Flags: MW
HStem: -12 32<231.5 248> 0 24<480 518 480 518> 450 24<24 72 24 204 284 332> 558 120<145.5 178.5 337.5 370.5>
VStem: 88 116<126 434 434 440> 102 120<601.5 634.5> 294 120<601.5 634.5> 348 116<34 40 40 89 89 89 220 434 434 440>
LayerCount: 2
Fore
SplineSet
219 -12 m 0xb9
 90 -12 88 119 88 126 c 2
 88 434 l 2
 88 446 84 450 72 450 c 2
 24 450 l 1
 24 474 l 1
 204 474 l 1
 204 97 l 2
 204 56 213 20 250 20 c 0xb9
 291 20 348 111 348 220 c 2
 348 434 l 2
 348 446 344 450 332 450 c 2
 284 450 l 1
 284 474 l 1
 464 474 l 1
 464 40 l 2
 464 28 468 24 480 24 c 2
 518 24 l 1
 518 0 l 1
 348 0 l 1x79
 348 89 l 1
 343 90 l 1
 318 32 277 -12 219 -12 c 0xb9
102 618 m 0x34
 102 651 129 678 162 678 c 0
 195 678 222 651 222 618 c 0
 222 585 195 558 162 558 c 0
 129 558 102 585 102 618 c 0x34
294 618 m 0x32
 294 651 321 678 354 678 c 0
 387 678 414 651 414 618 c 0
 414 585 387 558 354 558 c 0
 321 558 294 585 294 618 c 0x32
EndSplineSet
MultipleSubs2: "Multiple Substitution lookup 32 subtable" u uni0308
Substitution2: "'smcp' Lowercase to Small Capitals lookup 0 subtable" udieresis.sc
EndChar

StartChar: yacute
Encoding: 253 253 189
Width: 524
GlyphClass: 2
Flags: MW
HStem: -238 32<170.5 181.5> 450 24<12 27 12 257 222.5 228 228 257 329 355 461 472 472 494> 692 20G<355 376>
VStem: 60 96<-173.5 -169.5 -187 -125.5>
LayerCount: 2
Fore
SplineSet
189 -114 m 0
 189 -152 156 -157 156 -182 c 0
 156 -192 162 -206 179 -206 c 0
 205 -206 220 -161 229 -132 c 2
 262 -22 l 1
 89 392 l 2
 73 430 63 450 27 450 c 2
 12 450 l 1
 12 474 l 1
 257 474 l 1
 257 450 l 1
 228 450 l 2
 217 450 204 441 204 424 c 0
 204 418 206 408 211 396 c 2
 314 149 l 1
 379 368 l 2
 383 384 386 396 386 412 c 0
 386 430 376 450 355 450 c 2
 329 450 l 1
 329 474 l 1
 494 474 l 1
 494 450 l 1
 472 450 l 2
 450 450 425 431 412 388 c 2
 260 -117 l 2
 243 -175 212 -238 151 -238 c 0
 95 -238 60 -200 60 -147 c 0
 60 -104 90 -64 134 -64 c 0
 167 -64 189 -87 189 -114 c 0
226 542 m 1
 315 680 l 2
 331 705 346 712 364 712 c 0
 388 712 406 696 406 672 c 0
 406 654 395 637 378 624 c 2
 246 524 l 1
 226 542 l 1
EndSplineSet
EndChar

StartChar: thorn
Encoding: 254 254 190
Width: 524
GlyphClass: 2
Flags: MW
HStem: -238 21G<35 35> 442 44<293 395.5>
VStem: 92 116<-149 18 45 253 397 584 584 590> 356 122<317 394>
LayerCount: 2
Fore
SplineSet
20 -209 m 1
 80 -178 l 2
 87 -174 92 -166 92 -150 c 2
 92 584 l 2
 92 596 89 602 82 602 c 0
 80 602 77 601 71 598 c 2
 35 579 l 1
 20 608 l 1
 164 684 l 1
 208 684 l 1
 208 397 l 1
 213 395 l 1
 260 468 312 486 364 486 c 0
 427 486 478 441 478 358 c 0
 478 276 418 169 323 91 c 0
 281 56 246 37 208 18 c 1
 208 -149 l 1
 35 -238 l 1
 20 -209 l 1
208 45 m 1
 278 82 356 133 356 366 c 0
 356 422 338 442 311 442 c 0
 275 442 208 381 208 253 c 2
 208 45 l 1
EndSplineSet
EndChar

StartChar: ydieresis
Encoding: 255 255 191
Width: 524
GlyphClass: 2
Flags: MW
HStem: -238 32<170.5 181.5> 450 24<12 27 12 257 222.5 228 228 257 329 355 461 472 472 494> 558 120<157.5 190.5 349.5 382.5>
VStem: 60 96<-173.5 -169.5 -187 -125.5> 114 120<601.5 634.5> 306 120<601.5 634.5>
LayerCount: 2
Fore
SplineSet
189 -114 m 0xf4
 189 -152 156 -157 156 -182 c 0
 156 -192 162 -206 179 -206 c 0
 205 -206 220 -161 229 -132 c 2
 262 -22 l 1
 89 392 l 2
 73 430 63 450 27 450 c 2
 12 450 l 1
 12 474 l 1
 257 474 l 1
 257 450 l 1
 228 450 l 2
 217 450 204 441 204 424 c 0
 204 418 206 408 211 396 c 2
 314 149 l 1
 379 368 l 2
 383 384 386 396 386 412 c 0
 386 430 376 450 355 450 c 2
 329 450 l 1
 329 474 l 1
 494 474 l 1
 494 450 l 1
 472 450 l 2
 450 450 425 431 412 388 c 2
 260 -117 l 2
 243 -175 212 -238 151 -238 c 0
 95 -238 60 -200 60 -147 c 0
 60 -104 90 -64 134 -64 c 0
 167 -64 189 -87 189 -114 c 0xf4
114 618 m 0xec
 114 651 141 678 174 678 c 0
 207 678 234 651 234 618 c 0
 234 585 207 558 174 558 c 0
 141 558 114 585 114 618 c 0xec
306 618 m 0
 306 651 333 678 366 678 c 0
 399 678 426 651 426 618 c 0
 426 585 399 558 366 558 c 0
 333 558 306 585 306 618 c 0
EndSplineSet
MultipleSubs2: "Multiple Substitution lookup 32 subtable" y uni0308
EndChar

StartChar: Amacron
Encoding: 256 256 192
Width: 754
GlyphClass: 2
Flags: MW
HStem: 0 32<44 78 44 78 78 99.5 252 299 381 453 453 461 692 732> 189 37<245 430 245 442 232 430> 710 20G<377 419 419 419> 810 64<248 544 248 544>
LayerCount: 2
Fore
SplineSet
44 0 m 1
 44 32 l 1
 78 32 l 2
 121 32 152 73 166 113 c 2
 377 730 l 1
 419 730 l 1
 633 83 l 2
 645 48 666 32 692 32 c 2
 732 32 l 1
 732 0 l 1
 381 0 l 1
 381 32 l 1
 453 32 l 2
 469 32 480 47 480 64 c 0
 480 70 477 84 474 93 c 2
 442 189 l 1
 232 189 l 1
 211 128 l 2
 204 110 200 90 200 77 c 0
 200 55 219 32 252 32 c 2
 299 32 l 1
 299 0 l 1
 44 0 l 1
245 226 m 1
 430 226 l 1
 339 501 l 1
 245 226 l 1
248 810 m 1
 248 874 l 1
 544 874 l 1
 544 810 l 1
 248 810 l 1
EndSplineSet
MultipleSubs2: "Multiple Substitution lookup 32 subtable" A macroncmb
Substitution2: "'c2sc' Capitals to Small Capitals lookup 1 subtable" amacron.sc
EndChar

StartChar: amacron
Encoding: 257 257 193
Width: 508
GlyphClass: 2
Flags: MW
HStem: -12 40<147 240> -12 48<417.5 437 417.5 438.5> 462 24<196 232.5> 584 64<102 362 102 362>
VStem: 46 122<78 152 78 155> 69 75<397.5 398.5> 288 116<72 270 270 270 297 325> 460 28<117.5 135 117.5 135>
LayerCount: 2
Fore
SplineSet
488 135 m 1x77
 488 100 488 -12 389 -12 c 0x77
 332 -12 310 6 292 42 c 1
 290 42 l 1
 268 12 232 -12 178 -12 c 0
 116 -12 46 13 46 106 c 0xbb
 46 204 142 246 214 271 c 2
 288 297 l 1
 288 365 l 2
 288 438 252 462 213 462 c 0
 179 462 144 446 144 415 c 0
 144 380 188 388 188 341 c 0
 188 306 157 290 132 290 c 0
 101 290 69 311 69 358 c 0
 69 439 153 486 224 486 c 0
 306 486 404 447 404 325 c 2
 404 72 l 2
 404 47 411 36 424 36 c 0
 450 36 460 90 460 135 c 1
 488 135 l 1x77
168 115 m 0xbb
 168 41 205 28 227 28 c 0
 253 28 274 44 288 72 c 1
 288 270 l 1
 232 250 l 2
 187 234 168 189 168 115 c 0xbb
102 584 m 1
 102 648 l 1
 362 648 l 1
 362 584 l 1
 102 584 l 1
EndSplineSet
MultipleSubs2: "Multiple Substitution lookup 32 subtable" a macroncmb
Substitution2: "'smcp' Lowercase to Small Capitals lookup 0 subtable" amacron.sc
EndChar

StartChar: Abreve
Encoding: 258 258 194
Width: 754
GlyphClass: 2
Flags: MW
HStem: 0 32<44 78 44 78 78 99.5 252 299 381 453 453 461 692 732> 189 37<245 430 245 442 232 430> 710 20G<377 419 419 419> 762 64<359 433 359 449>
VStem: 241 32<886 916> 519 32<886 916>
LayerCount: 2
Fore
SplineSet
44 0 m 1
 44 32 l 1
 78 32 l 2
 121 32 152 73 166 113 c 2
 377 730 l 1
 419 730 l 1
 633 83 l 2
 645 48 666 32 692 32 c 2
 732 32 l 1
 732 0 l 1
 381 0 l 1
 381 32 l 1
 453 32 l 2
 469 32 480 47 480 64 c 0
 480 70 477 84 474 93 c 2
 442 189 l 1
 232 189 l 1
 211 128 l 2
 204 110 200 90 200 77 c 0
 200 55 219 32 252 32 c 2
 299 32 l 1
 299 0 l 1
 44 0 l 1
245 226 m 1
 430 226 l 1
 339 501 l 1
 245 226 l 1
241 916 m 1
 273 916 l 1
 285 860 322 826 396 826 c 0
 470 826 507 860 519 916 c 1
 551 916 l 1
 551 856 502 762 396 762 c 0
 290 762 241 856 241 916 c 1
EndSplineSet
MultipleSubs2: "Multiple Substitution lookup 32 subtable" A brevecmb
EndChar

StartChar: abreve
Encoding: 259 259 195
Width: 508
GlyphClass: 2
Flags: MW
HStem: -12 40<147 240> -12 48<417.5 437 417.5 438.5> 462 24<196 232.5> 540 68<200 264 200 273>
VStem: 46 122<78 152 78 155> 69 75<397.5 398.5> 92 28<694 694> 288 116<72 270 270 270 297 325> 344 28<694 694> 460 28<117.5 135 117.5 135>
LayerCount: 2
Fore
SplineSet
488 135 m 1x7540
 488 100 488 -12 389 -12 c 0x7540
 332 -12 310 6 292 42 c 1
 290 42 l 1
 268 12 232 -12 178 -12 c 0
 116 -12 46 13 46 106 c 0xb940
 46 204 142 246 214 271 c 2
 288 297 l 1
 288 365 l 2
 288 438 252 462 213 462 c 0
 179 462 144 446 144 415 c 0
 144 380 188 388 188 341 c 0
 188 306 157 290 132 290 c 0
 101 290 69 311 69 358 c 0
 69 439 153 486 224 486 c 0
 306 486 404 447 404 325 c 2
 404 72 l 2
 404 47 411 36 424 36 c 0
 450 36 460 90 460 135 c 1
 488 135 l 1x7540
168 115 m 0xb940
 168 41 205 28 227 28 c 0
 253 28 274 44 288 72 c 1
 288 270 l 1
 232 250 l 2
 187 234 168 189 168 115 c 0xb940
92 694 m 1x32c0
 120 694 l 1
 130 642 168 608 232 608 c 0
 296 608 334 642 344 694 c 1
 372 694 l 1
 364 606 314 540 232 540 c 0
 150 540 100 606 92 694 c 1x32c0
EndSplineSet
MultipleSubs2: "Multiple Substitution lookup 32 subtable" a brevecmb
EndChar

StartChar: Aogonek
Encoding: 260 260 196
Width: 754
GlyphClass: 2
Flags: MW
HStem: -238 54<566 582> -177 20G<644 644> 0 32<44 78 44 78 78 99.5 252 299 381 453 453 461 692 732> 189 37<245 430 245 442 232 430> 710 20G<377 419 419 419>
VStem: 456 80<-148.5 -111.5>
AnchorPoint: "Anchor-2" 383 0 basechar 0
AnchorPoint: "Anchor-1" 396 762 basechar 0
AnchorPoint: "Anchor-0" 396 782 basechar 0
LayerCount: 2
Fore
SplineSet
44 0 m 1
 44 32 l 1
 78 32 l 2
 121 32 152 73 166 113 c 2
 377 730 l 1
 419 730 l 1
 633 83 l 2
 645 48 666 32 692 32 c 2
 732 32 l 1
 732 0 l 1
 624 0 l 1
 566 -34 536 -74 536 -133 c 0
 536 -164 552 -184 580 -184 c 0
 611 -184 628 -173 644 -157 c 1
 663 -176 l 1
 642 -206 609 -238 555 -238 c 0
 496 -238 456 -198 456 -144 c 0
 456 -79 507 -35 568 -4 c 1
 566 0 l 1
 381 0 l 1
 381 32 l 1
 453 32 l 2
 469 32 480 47 480 64 c 0
 480 70 477 84 474 93 c 2
 442 189 l 1
 232 189 l 1
 211 128 l 2
 204 110 200 90 200 77 c 0
 200 55 219 32 252 32 c 2
 299 32 l 1
 299 0 l 1
 44 0 l 1
245 226 m 1
 430 226 l 1
 339 501 l 1
 245 226 l 1
EndSplineSet
Ligature2: "'ccmp' Glyph Composition/Decomposition lookup 3 subtable" afii10017 uni0328
Ligature2: "'ccmp' Glyph Composition/Decomposition lookup 3 subtable" A uni0328
EndChar

StartChar: aogonek
Encoding: 261 261 197
Width: 508
GlyphClass: 2
Flags: MW
HStem: -220 56<364 370.5> -12 40<143 236> 462 24<192 228.5>
VStem: 42 122<78 152 78 155> 65 75<397.5 398.5> 266 68<-136.5 -116> 284 116<72 270 270 270 297 325> 456 28<112.5 135>
AnchorPoint: "Anchor-1" 232 508 basechar 0
AnchorPoint: "Anchor-0" 232 528 basechar 0
LayerCount: 2
Fore
SplineSet
164 115 m 0xf3
 164 41 201 28 223 28 c 0
 249 28 270 44 284 72 c 1
 284 270 l 1
 228 250 l 2
 183 234 164 189 164 115 c 0xf3
140 415 m 0xeb
 140 380 184 388 184 341 c 0
 184 306 153 290 128 290 c 0
 97 290 65 311 65 358 c 0
 65 439 149 486 220 486 c 0
 302 486 400 447 400 325 c 2
 400 72 l 2xeb
 400 47 407 36 420 36 c 0
 446 36 456 90 456 135 c 1
 484 135 l 1
 484 29 453 5 404 -13 c 0
 375 -24 334 -62 334 -123 c 0
 334 -150 352 -164 376 -164 c 0
 402 -164 414 -152 428 -132 c 1
 448 -146 l 1
 430 -187 392 -220 349 -220 c 0
 306 -220 266 -190 266 -142 c 0
 266 -90 309 -48 359 -14 c 1
 358 -10 l 1
 320 -5 303 12 288 42 c 1
 286 42 l 1
 264 12 228 -12 174 -12 c 0
 112 -12 42 13 42 106 c 0xf5
 42 204 138 246 210 271 c 2
 284 297 l 1
 284 365 l 2
 284 438 248 462 209 462 c 0
 175 462 140 446 140 415 c 0xeb
EndSplineSet
Ligature2: "'ccmp' Glyph Composition/Decomposition lookup 3 subtable" afii10065 uni0328
Ligature2: "'ccmp' Glyph Composition/Decomposition lookup 3 subtable" a uni0328
EndChar

StartChar: Cacute
Encoding: 262 262 198
Width: 660
GlyphClass: 2
Flags: MW
HStem: -18 32<332 407 332 461> 698 32<322 396 262 400> 702 20G<559 592 592 592>
VStem: 70 170<262 456> 560 32<415 722> 576 36<275 275>
LayerCount: 2
Fore
SplineSet
612 275 m 1xd4
 604 169 562 -18 360 -18 c 0
 166 -18 70 168 70 356 c 0
 70 556 174 730 350 730 c 0xd4
 442 730 490 666 519 666 c 0
 531 666 536 674 541 685 c 2
 559 722 l 1
 592 722 l 1
 592 415 l 1
 560 415 l 1xb8
 530 586 450 698 350 698 c 0
 294 698 240 650 240 506 c 2
 240 206 l 2
 240 62 304 14 360 14 c 0
 454 14 507 67 537 123 c 0
 561 168 571 228 576 275 c 1
 612 275 l 1xd4
316 778 m 1
 405 916 l 2
 421 941 436 948 454 948 c 0
 478 948 496 932 496 908 c 0
 496 890 485 873 468 860 c 2
 336 760 l 1
 316 778 l 1
EndSplineSet
EndChar

StartChar: cacute
Encoding: 263 263 199
Width: 468
GlyphClass: 2
Flags: MW
HStem: -12 30<258.5 316.5 258.5 318> 462 24<234 292.5> 692 20G<333 354>
VStem: 48 128<209 303.5 209 305.5> 332 72<327 417> 396 26<162 162>
LayerCount: 2
Fore
SplineSet
276 312 m 0xf8
 276 358 332 367 332 406 c 0xf8
 332 428 318 462 267 462 c 0
 201 462 176 370 176 237 c 0
 176 181 176 138 187 99 c 0
 199 50 236 18 281 18 c 0
 352 18 389 94 396 162 c 1
 422 162 l 1xf4
 415 88 375 -12 261 -12 c 0
 133 -12 48 100 48 237 c 0
 48 374 133 486 259 486 c 0
 360 486 404 413 404 351 c 0
 404 303 370 262 329 262 c 0
 300 262 276 280 276 312 c 0xf8
204 542 m 1
 293 680 l 2
 309 705 324 712 342 712 c 0
 366 712 384 696 384 672 c 0
 384 654 373 637 356 624 c 2
 224 524 l 1
 204 542 l 1
EndSplineSet
EndChar

StartChar: Ccircumflex
Encoding: 264 264 200
Width: 660
GlyphClass: 2
Flags: MW
HStem: -18 32<332 407 332 461> 698 32<322 396 262 400> 702 20G<559 592 592 592>
VStem: 70 170<262 456> 560 32<415 722> 576 36<275 275>
LayerCount: 2
Fore
SplineSet
612 275 m 1xd4
 604 169 562 -18 360 -18 c 0
 166 -18 70 168 70 356 c 0
 70 556 174 730 350 730 c 0xd4
 442 730 490 666 519 666 c 0
 531 666 536 674 541 685 c 2
 559 722 l 1
 592 722 l 1
 592 415 l 1
 560 415 l 1xb8
 530 586 450 698 350 698 c 0
 294 698 240 650 240 506 c 2
 240 206 l 2
 240 62 304 14 360 14 c 0
 454 14 507 67 537 123 c 0
 561 168 571 228 576 275 c 1
 612 275 l 1xd4
180 786 m 1
 247 821 294 868 328 930 c 1
 368 930 l 1
 398 872 444 822 516 786 c 1
 504 762 l 1
 442 784 403 807 348 842 c 1
 293 807 254 784 192 762 c 1
 180 786 l 1
EndSplineSet
EndChar

StartChar: ccircumflex
Encoding: 265 265 201
Width: 468
GlyphClass: 2
Flags: MW
HStem: -12 30<258.5 316.5 258.5 318> 462 24<234 292.5>
VStem: 48 128<209 303.5 209 305.5> 332 72<327 417> 396 26<162 162>
LayerCount: 2
Fore
SplineSet
276 312 m 0xf0
 276 358 332 367 332 406 c 0xf0
 332 428 318 462 267 462 c 0
 201 462 176 370 176 237 c 0
 176 181 176 138 187 99 c 0
 199 50 236 18 281 18 c 0
 352 18 389 94 396 162 c 1
 422 162 l 1xe8
 415 88 375 -12 261 -12 c 0
 133 -12 48 100 48 237 c 0
 48 374 133 486 259 486 c 0
 360 486 404 413 404 351 c 0
 404 303 370 262 329 262 c 0
 300 262 276 280 276 312 c 0xf0
98 548 m 1
 173 597 198 662 214 708 c 1
 282 708 l 1
 298 662 323 597 398 548 c 1
 382 524 l 1
 336 546 280 586 248 620 c 1
 216 586 160 546 114 524 c 1
 98 548 l 1
EndSplineSet
EndChar

StartChar: Cdotaccent
Encoding: 266 266 202
Width: 660
GlyphClass: 2
Flags: MW
HStem: -18 32<332 407 332 461> 698 32<322 396 262 400> 702 20G<559 592 592 592> 786 136<328 368>
VStem: 70 170<262 456> 280 136<834 874> 560 32<415 722> 576 36<275 275>
LayerCount: 2
Fore
SplineSet
612 275 m 1xdd
 604 169 562 -18 360 -18 c 0
 166 -18 70 168 70 356 c 0
 70 556 174 730 350 730 c 0xdd
 442 730 490 666 519 666 c 0
 531 666 536 674 541 685 c 2
 559 722 l 1
 592 722 l 1
 592 415 l 1
 560 415 l 1xbe
 530 586 450 698 350 698 c 0
 294 698 240 650 240 506 c 2
 240 206 l 2
 240 62 304 14 360 14 c 0
 454 14 507 67 537 123 c 0
 561 168 571 228 576 275 c 1
 612 275 l 1xdd
280 854 m 0
 280 894 308 922 348 922 c 0
 388 922 416 894 416 854 c 0
 416 814 388 786 348 786 c 0
 308 786 280 814 280 854 c 0
EndSplineSet
EndChar

StartChar: cdotaccent
Encoding: 267 267 203
Width: 468
GlyphClass: 2
Flags: MW
HStem: -12 30<258.5 316.5 258.5 318> 462 24<234 292.5> 544 148<227 269>
VStem: 48 128<209 303.5 209 305.5> 174 148<597 639> 332 72<327 417> 396 26<162 162>
LayerCount: 2
Fore
SplineSet
276 312 m 0xf4
 276 358 332 367 332 406 c 0xf4
 332 428 318 462 267 462 c 0
 201 462 176 370 176 237 c 0
 176 181 176 138 187 99 c 0
 199 50 236 18 281 18 c 0
 352 18 389 94 396 162 c 1
 422 162 l 1xf2
 415 88 375 -12 261 -12 c 0
 133 -12 48 100 48 237 c 0
 48 374 133 486 259 486 c 0
 360 486 404 413 404 351 c 0
 404 303 370 262 329 262 c 0
 300 262 276 280 276 312 c 0xf4
174 618 m 0xe8
 174 660 206 692 248 692 c 0
 290 692 322 660 322 618 c 0
 322 576 290 544 248 544 c 0
 206 544 174 576 174 618 c 0xe8
EndSplineSet
EndChar

StartChar: Ccaron
Encoding: 268 268 204
Width: 660
GlyphClass: 2
Flags: MW
HStem: -18 32<332 407 332 461> 698 32<322 396 262 400> 702 20G<559 592 592 592>
VStem: 70 170<262 456> 560 32<415 722> 576 36<275 275>
LayerCount: 2
Fore
SplineSet
612 275 m 1xd4
 604 169 562 -18 360 -18 c 0
 166 -18 70 168 70 356 c 0
 70 556 174 730 350 730 c 0xd4
 442 730 490 666 519 666 c 0
 531 666 536 674 541 685 c 2
 559 722 l 1
 592 722 l 1
 592 415 l 1
 560 415 l 1xb8
 530 586 450 698 350 698 c 0
 294 698 240 650 240 506 c 2
 240 206 l 2
 240 62 304 14 360 14 c 0
 454 14 507 67 537 123 c 0
 561 168 571 228 576 275 c 1
 612 275 l 1xd4
184 898 m 1
 200 920 l 1
 348 834 l 1
 496 920 l 1
 512 898 l 1
 372 762 l 1
 324 762 l 1
 184 898 l 1
EndSplineSet
EndChar

StartChar: ccaron
Encoding: 269 269 205
Width: 468
GlyphClass: 2
Flags: MW
HStem: -12 30<258.5 316.5 258.5 318> 462 24<234 292.5>
VStem: 48 128<209 303.5 209 305.5> 332 72<327 417> 396 26<162 162>
LayerCount: 2
Fore
SplineSet
276 312 m 0xf0
 276 358 332 367 332 406 c 0xf0
 332 428 318 462 267 462 c 0
 201 462 176 370 176 237 c 0
 176 181 176 138 187 99 c 0
 199 50 236 18 281 18 c 0
 352 18 389 94 396 162 c 1
 422 162 l 1xe8
 415 88 375 -12 261 -12 c 0
 133 -12 48 100 48 237 c 0
 48 374 133 486 259 486 c 0
 360 486 404 413 404 351 c 0
 404 303 370 262 329 262 c 0
 300 262 276 280 276 312 c 0xf0
102 678 m 1
 118 694 l 1
 248 596 l 1
 378 694 l 1
 394 678 l 1
 272 524 l 1
 224 524 l 1
 102 678 l 1
EndSplineSet
EndChar

StartChar: Dcaron
Encoding: 270 270 206
Width: 786
GlyphClass: 2
Flags: MW
HStem: 0 32<62 132 62 132 132 141 328 417 417 434> 680 32<62 132 62 434 319 328 328 417>
VStem: 156 148<56 656> 566 170<258 466 258 506 258 566>
LayerCount: 2
Fore
SplineSet
62 0 m 1
 62 32 l 1
 132 32 l 2
 150 32 156 38 156 56 c 2
 156 656 l 2
 156 674 150 680 132 680 c 2
 62 680 l 1
 62 712 l 1
 434 712 l 2
 600 712 736 570 736 362 c 0
 736 154 600 0 434 0 c 2
 62 0 l 1
304 56 m 2
 304 38 310 32 328 32 c 2
 417 32 l 2
 497 32 566 86 566 206 c 2
 566 506 l 2
 566 626 497 680 417 680 c 2
 328 680 l 2
 310 680 304 674 304 656 c 2
 304 56 l 2
188 898 m 1
 204 920 l 1
 352 834 l 1
 500 920 l 1
 516 898 l 1
 376 762 l 1
 328 762 l 1
 188 898 l 1
EndSplineSet
EndChar

StartChar: dcaron
Encoding: 271 271 207
Width: 590
GlyphClass: 2
Flags: MW
HStem: -12 32<218 251.5> 0 24<460 516 460 516> 454 32<218 246.5 170.5 258> 632 98<516.5 536.5> 688 24<256 312 256 444>
VStem: 48 128<174 300> 328 116<34 40 40 58 58 58 174 312 417 672 672 678> 562 44<611 615.5>
LayerCount: 2
Fore
SplineSet
48 237 m 0xa7
 48 363 117 486 224 486 c 0
 269 486 302 456 322 415 c 1
 328 417 l 1
 328 672 l 2
 328 684 324 688 312 688 c 2
 256 688 l 1
 256 712 l 1
 444 712 l 1
 444 40 l 2
 444 28 448 24 460 24 c 2
 516 24 l 1
 516 0 l 1
 328 0 l 1x6f
 328 58 l 1
 322 58 l 1
 307 26 275 -12 228 -12 c 0
 121 -12 48 111 48 237 c 0xa7
176 237 m 0
 176 109 194 20 242 20 c 0xa7
 288 20 328 114 328 234 c 0
 328 390 274 454 242 454 c 0
 194 454 176 365 176 237 c 0
562 605 m 0
 562 626 544 632 529 632 c 0
 504 632 478 648 478 681 c 0
 478 705 499 730 534 730 c 0x37
 572 730 606 696 606 646 c 0
 606 576 556 520 493 490 c 1
 480 509 l 1
 527 534 562 567 562 605 c 0
EndSplineSet
Ligature2: "'ccmp' Glyph Composition/Decomposition lookup 3 subtable" d uni030C
EndChar

StartChar: Dcroat
Encoding: 272 272 208
Width: 786
GlyphClass: 2
Flags: MW
HStem: 0 32<62 132 62 132 132 141 328 417 417 434> 356 36<62 156 62 156 304 398> 680 32<62 132 62 434 319 328 328 417>
VStem: 156 148<56 356 392 656> 566 170<258 466 258 506 258 566>
LayerCount: 2
Fore
SplineSet
304 56 m 2
 304 38 310 32 328 32 c 2
 417 32 l 2
 497 32 566 86 566 206 c 2
 566 506 l 2
 566 626 497 680 417 680 c 2
 328 680 l 2
 310 680 304 674 304 656 c 2
 304 392 l 1
 398 392 l 1
 398 356 l 1
 304 356 l 1
 304 56 l 2
62 0 m 1
 62 32 l 1
 132 32 l 2
 150 32 156 38 156 56 c 2
 156 356 l 1
 62 356 l 1
 62 392 l 1
 156 392 l 1
 156 656 l 2
 156 674 150 680 132 680 c 2
 62 680 l 1
 62 712 l 1
 434 712 l 2
 600 712 736 570 736 362 c 0
 736 154 600 0 434 0 c 2
 62 0 l 1
EndSplineSet
EndChar

StartChar: dcroat
Encoding: 273 273 209
Width: 538
GlyphClass: 2
Flags: MW
HStem: -12 32<218 251.5> 0 24<460 516 460 516> 454 32<218 246.5 170.5 258> 564 28<160 328 160 328 444 516> 688 24<256 312 256 444>
VStem: 48 128<174 300> 328 116<34 40 40 58 58 58 174 312 417 564 592 672 672 678>
AnchorPoint: "Anchor-2" 248 0 basechar 0
LayerCount: 2
Fore
SplineSet
176 237 m 0xbe
 176 109 194 20 242 20 c 0
 288 20 328 114 328 234 c 0
 328 390 274 454 242 454 c 0
 194 454 176 365 176 237 c 0xbe
48 237 m 0
 48 363 117 486 224 486 c 0
 269 486 302 456 322 415 c 1
 328 417 l 1
 328 564 l 1
 160 564 l 1
 160 592 l 1
 328 592 l 1
 328 672 l 2
 328 684 324 688 312 688 c 2
 256 688 l 1
 256 712 l 1
 444 712 l 1
 444 592 l 1
 516 592 l 1
 516 564 l 1
 444 564 l 1
 444 40 l 2
 444 28 448 24 460 24 c 2
 516 24 l 1
 516 0 l 1
 328 0 l 1x7e
 328 58 l 1
 322 58 l 1
 307 26 275 -12 228 -12 c 0
 121 -12 48 111 48 237 c 0
EndSplineSet
EndChar

StartChar: Emacron
Encoding: 274 274 210
Width: 690
GlyphClass: 2
Flags: MW
HStem: 0 32<62 132 132 141 328 437 437 478 62 132> 344 36<304 355 304 355> 480 21G<598 598 598 630> 680 32<62 132 62 624 319 328 328 438> 810 64<224 520 224 520>
VStem: 156 148<56 344 380 656> 455 32<205 234.5 489 518> 598 32<480 481.5>
LayerCount: 2
Fore
SplineSet
598 480 m 1
 598 483 563 680 438 680 c 2
 328 680 l 2
 310 680 304 674 304 656 c 2
 304 380 l 1
 355 380 l 2
 411 380 455 460 455 518 c 1
 487 518 l 1
 487 205 l 1
 455 205 l 1
 455 264 411 344 355 344 c 2
 304 344 l 1
 304 56 l 2
 304 38 310 32 328 32 c 2
 437 32 l 2
 519 32 566 120 585 174 c 0
 598 211 606 276 606 276 c 1
 638 276 l 1
 632 0 l 1
 62 0 l 1
 62 32 l 1
 132 32 l 2
 150 32 156 38 156 56 c 2
 156 656 l 2
 156 674 150 680 132 680 c 2
 62 680 l 1
 62 712 l 1
 624 712 l 1
 630 480 l 1
 598 480 l 1
224 810 m 1
 224 874 l 1
 520 874 l 1
 520 810 l 1
 224 810 l 1
EndSplineSet
MultipleSubs2: "Multiple Substitution lookup 32 subtable" E macroncmb
EndChar

StartChar: emacron
Encoding: 275 275 211
Width: 472
GlyphClass: 2
Flags: MW
HStem: -12 30<258.5 316.5 258.5 318> 228 28<176 304 176 420 176 304> 462 24<214 266> 584 64<110 370 110 370>
VStem: 48 128<202.5 228 256 309> 304 116<228 321> 396 26<162 162>
LayerCount: 2
Fore
SplineSet
176 256 m 1xfc
 304 256 l 1
 304 386 292 462 240 462 c 0
 188 462 176 386 176 256 c 1xfc
48 237 m 0
 48 381 139 486 250 486 c 0
 332 486 394 422 413 328 c 0
 420 296 420 240 420 228 c 1xfc
 176 228 l 1
 176 177 176 138 187 99 c 0
 199 50 236 18 281 18 c 0
 352 18 389 94 396 162 c 1
 422 162 l 1xfa
 415 88 375 -12 261 -12 c 0
 133 -12 48 100 48 237 c 0
110 584 m 1
 110 648 l 1
 370 648 l 1
 370 584 l 1
 110 584 l 1
EndSplineSet
MultipleSubs2: "Multiple Substitution lookup 32 subtable" e macroncmb
EndChar

StartChar: Ebreve
Encoding: 276 276 212
Width: 690
GlyphClass: 2
Flags: MW
HStem: 0 32<62 132 132 141 328 437 437 478 62 132> 344 36<304 355 304 355> 480 21G<598 598 598 630> 680 32<62 132 62 624 319 328 328 438> 762 64<335 409 335 425>
VStem: 156 148<56 344 380 656> 217 32<886 916> 455 32<205 234.5 489 518> 495 32<886 916> 598 32<480 481.5>
LayerCount: 2
Fore
SplineSet
598 480 m 1xfdc0
 598 483 563 680 438 680 c 2
 328 680 l 2
 310 680 304 674 304 656 c 2
 304 380 l 1
 355 380 l 2
 411 380 455 460 455 518 c 1
 487 518 l 1
 487 205 l 1
 455 205 l 1
 455 264 411 344 355 344 c 2
 304 344 l 1
 304 56 l 2
 304 38 310 32 328 32 c 2
 437 32 l 2
 519 32 566 120 585 174 c 0
 598 211 606 276 606 276 c 1
 638 276 l 1
 632 0 l 1
 62 0 l 1
 62 32 l 1
 132 32 l 2
 150 32 156 38 156 56 c 2
 156 656 l 2
 156 674 150 680 132 680 c 2
 62 680 l 1
 62 712 l 1
 624 712 l 1
 630 480 l 1
 598 480 l 1xfdc0
217 916 m 1xfbc0
 249 916 l 1
 261 860 298 826 372 826 c 0
 446 826 483 860 495 916 c 1
 527 916 l 1
 527 856 478 762 372 762 c 0
 266 762 217 856 217 916 c 1xfbc0
EndSplineSet
MultipleSubs2: "Multiple Substitution lookup 32 subtable" E brevecmb
EndChar

StartChar: ebreve
Encoding: 277 277 213
Width: 472
GlyphClass: 2
Flags: MW
HStem: -12 30<258.5 316.5 258.5 318> 228 28<176 304 176 420 176 304> 462 24<214 266> 540 68<208 272 208 281>
VStem: 48 128<202.5 228 256 309> 100 28<694 694> 304 116<228 321> 352 28<694 694> 396 26<162 162>
LayerCount: 2
Fore
SplineSet
176 256 m 1xfa
 304 256 l 1
 304 386 292 462 240 462 c 0
 188 462 176 386 176 256 c 1xfa
48 237 m 0
 48 381 139 486 250 486 c 0
 332 486 394 422 413 328 c 0
 420 296 420 240 420 228 c 1xfa
 176 228 l 1
 176 177 176 138 187 99 c 0
 199 50 236 18 281 18 c 0
 352 18 389 94 396 162 c 1
 422 162 l 1xf880
 415 88 375 -12 261 -12 c 0
 133 -12 48 100 48 237 c 0
100 694 m 1xf5
 128 694 l 1
 138 642 176 608 240 608 c 0
 304 608 342 642 352 694 c 1
 380 694 l 1
 372 606 322 540 240 540 c 0
 158 540 108 606 100 694 c 1xf5
EndSplineSet
MultipleSubs2: "Multiple Substitution lookup 32 subtable" e brevecmb
EndChar

StartChar: Edotaccent
Encoding: 278 278 214
Width: 690
GlyphClass: 2
Flags: MW
HStem: 0 32<62 132 132 141 328 437 437 478 62 132> 344 36<304 355 304 355> 480 21G<598 598 598 630> 680 32<62 132 62 624 319 328 328 438> 786 136<352 392>
VStem: 156 148<56 344 380 656> 304 136<834 874> 455 32<205 234.5 489 518> 598 32<480 481.5>
LayerCount: 2
Fore
SplineSet
598 480 m 1xfd80
 598 483 563 680 438 680 c 2
 328 680 l 2
 310 680 304 674 304 656 c 2
 304 380 l 1
 355 380 l 2
 411 380 455 460 455 518 c 1
 487 518 l 1
 487 205 l 1
 455 205 l 1
 455 264 411 344 355 344 c 2
 304 344 l 1
 304 56 l 2
 304 38 310 32 328 32 c 2
 437 32 l 2
 519 32 566 120 585 174 c 0
 598 211 606 276 606 276 c 1
 638 276 l 1
 632 0 l 1
 62 0 l 1
 62 32 l 1
 132 32 l 2
 150 32 156 38 156 56 c 2
 156 656 l 2
 156 674 150 680 132 680 c 2
 62 680 l 1
 62 712 l 1
 624 712 l 1
 630 480 l 1
 598 480 l 1xfd80
304 854 m 0xfb80
 304 894 332 922 372 922 c 0
 412 922 440 894 440 854 c 0
 440 814 412 786 372 786 c 0
 332 786 304 814 304 854 c 0xfb80
EndSplineSet
EndChar

StartChar: edotaccent
Encoding: 279 279 215
Width: 472
GlyphClass: 2
Flags: MW
HStem: -12 30<258.5 316.5 258.5 318> 228 28<176 304 176 420 176 304> 462 24<214 266> 544 148<219 261>
VStem: 48 128<202.5 228 256 309> 166 148<597 639> 304 116<228 321> 396 26<162 162>
LayerCount: 2
Fore
SplineSet
176 256 m 1xfa
 304 256 l 1
 304 386 292 462 240 462 c 0
 188 462 176 386 176 256 c 1xfa
48 237 m 0
 48 381 139 486 250 486 c 0
 332 486 394 422 413 328 c 0
 420 296 420 240 420 228 c 1xfa
 176 228 l 1
 176 177 176 138 187 99 c 0
 199 50 236 18 281 18 c 0
 352 18 389 94 396 162 c 1
 422 162 l 1xf9
 415 88 375 -12 261 -12 c 0
 133 -12 48 100 48 237 c 0
166 618 m 0xf4
 166 660 198 692 240 692 c 0
 282 692 314 660 314 618 c 0
 314 576 282 544 240 544 c 0
 198 544 166 576 166 618 c 0xf4
EndSplineSet
EndChar

StartChar: Eogonek
Encoding: 280 280 216
Width: 690
GlyphClass: 2
Flags: MW
HStem: -238 54<467 483> -177 20G<545 545> 0 32<62 132 132 141 328 437 437 467 62 132> 344 36<304 355 304 355> 480 21G<598 598 598 630> 680 32<62 132 62 624 319 328 328 438>
VStem: 156 148<56 344 380 656> 357 80<-148.5 -111.5> 455 32<205 234.5 489 518> 598 32<480 481.5>
AnchorPoint: "Anchor-1" 372 762 basechar 0
AnchorPoint: "Anchor-0" 372 782 basechar 0
LayerCount: 2
Fore
SplineSet
598 480 m 1
 598 483 563 680 438 680 c 2
 328 680 l 2
 310 680 304 674 304 656 c 2
 304 380 l 1
 355 380 l 2
 411 380 455 460 455 518 c 1
 487 518 l 1
 487 205 l 1
 455 205 l 1
 455 264 411 344 355 344 c 2
 304 344 l 1
 304 56 l 2
 304 38 310 32 328 32 c 2
 437 32 l 2
 519 32 566 120 585 174 c 0
 598 211 606 276 606 276 c 1
 638 276 l 1
 632 0 l 1
 525 0 l 1
 467 -34 437 -74 437 -133 c 0
 437 -164 453 -184 481 -184 c 0
 512 -184 529 -173 545 -157 c 1
 564 -176 l 1
 543 -206 510 -238 456 -238 c 0
 397 -238 357 -198 357 -144 c 0
 357 -79 408 -35 469 -4 c 1
 467 0 l 1
 62 0 l 1
 62 32 l 1
 132 32 l 2
 150 32 156 38 156 56 c 2
 156 656 l 2
 156 674 150 680 132 680 c 2
 62 680 l 1
 62 712 l 1
 624 712 l 1
 630 480 l 1
 598 480 l 1
EndSplineSet
Ligature2: "'ccmp' Glyph Composition/Decomposition lookup 3 subtable" afii10022 uni0328
Ligature2: "'ccmp' Glyph Composition/Decomposition lookup 3 subtable" E uni0328
EndChar

StartChar: eogonek
Encoding: 281 281 217
Width: 472
GlyphClass: 2
Flags: MW
HStem: -220 56<275 281.5> -12 30<258.5 261 261 267> 228 28<176 304 176 420 176 304> 462 24<214 266>
VStem: 48 128<202.5 228 256 309> 177 68<-136.5 -116> 304 116<228 321> 396 26<162 162>
AnchorPoint: "Anchor-1" 240 508 basechar 0
AnchorPoint: "Anchor-0" 240 528 basechar 0
LayerCount: 2
Fore
SplineSet
48 237 m 0xfd
 48 381 139 486 250 486 c 0
 332 486 394 422 413 328 c 0
 420 296 420 240 420 228 c 1xfe
 176 228 l 1
 176 177 176 138 187 99 c 0
 199 50 236 18 281 18 c 0
 352 18 389 94 396 162 c 1
 422 162 l 1
 417 104 392 38 336 6 c 0
 278 -27 245 -70 245 -123 c 0
 245 -150 263 -164 287 -164 c 0
 313 -164 325 -152 339 -132 c 1
 359 -146 l 1
 341 -187 303 -220 260 -220 c 0
 217 -220 177 -190 177 -142 c 0
 177 -90 220 -47 267 -15 c 1
 267 -12 l 1
 261 -12 l 2
 133 -12 48 100 48 237 c 0xfd
176 256 m 1
 304 256 l 1
 304 386 292 462 240 462 c 0
 188 462 176 386 176 256 c 1
EndSplineSet
Ligature2: "'ccmp' Glyph Composition/Decomposition lookup 3 subtable" afii10070 uni0328
Ligature2: "'ccmp' Glyph Composition/Decomposition lookup 3 subtable" e uni0328
EndChar

StartChar: Ecaron
Encoding: 282 282 218
Width: 690
GlyphClass: 2
Flags: MW
HStem: 0 32<62 132 132 141 328 437 437 478 62 132> 344 36<304 355 304 355> 480 21G<598 598 598 630> 680 32<62 132 62 624 319 328 328 438>
VStem: 156 148<56 344 380 656> 455 32<205 234.5 489 518> 598 32<480 481.5>
LayerCount: 2
Fore
SplineSet
598 480 m 1
 598 483 563 680 438 680 c 2
 328 680 l 2
 310 680 304 674 304 656 c 2
 304 380 l 1
 355 380 l 2
 411 380 455 460 455 518 c 1
 487 518 l 1
 487 205 l 1
 455 205 l 1
 455 264 411 344 355 344 c 2
 304 344 l 1
 304 56 l 2
 304 38 310 32 328 32 c 2
 437 32 l 2
 519 32 566 120 585 174 c 0
 598 211 606 276 606 276 c 1
 638 276 l 1
 632 0 l 1
 62 0 l 1
 62 32 l 1
 132 32 l 2
 150 32 156 38 156 56 c 2
 156 656 l 2
 156 674 150 680 132 680 c 2
 62 680 l 1
 62 712 l 1
 624 712 l 1
 630 480 l 1
 598 480 l 1
208 898 m 1
 224 920 l 1
 372 834 l 1
 520 920 l 1
 536 898 l 1
 396 762 l 1
 348 762 l 1
 208 898 l 1
EndSplineSet
EndChar

StartChar: ecaron
Encoding: 283 283 219
Width: 472
GlyphClass: 2
Flags: MW
HStem: -12 30<258.5 316.5 258.5 318> 228 28<176 304 176 420 176 304> 462 24<214 266>
VStem: 48 128<202.5 228 256 309> 304 116<228 321> 396 26<162 162>
LayerCount: 2
Fore
SplineSet
176 256 m 1xf8
 304 256 l 1
 304 386 292 462 240 462 c 0
 188 462 176 386 176 256 c 1xf8
48 237 m 0
 48 381 139 486 250 486 c 0
 332 486 394 422 413 328 c 0
 420 296 420 240 420 228 c 1xf8
 176 228 l 1
 176 177 176 138 187 99 c 0
 199 50 236 18 281 18 c 0
 352 18 389 94 396 162 c 1
 422 162 l 1xf4
 415 88 375 -12 261 -12 c 0
 133 -12 48 100 48 237 c 0
94 678 m 1
 110 694 l 1
 240 596 l 1
 370 694 l 1
 386 678 l 1
 264 524 l 1
 216 524 l 1
 94 678 l 1
EndSplineSet
EndChar

StartChar: Gcircumflex
Encoding: 284 284 220
Width: 720
GlyphClass: 2
Flags: MW
HStem: -18 32<318 386 318 388> 322 32<356 444 356 688 631 640 640 688> 698 32<330 418> 702 20G<583 616 616 616>
VStem: 70 170<256.5 456> 468 148<161 298 -13 307> 584 32<-13 298>
LayerCount: 2
Fore
SplineSet
368 730 m 0xea
 473 730 512 666 544 666 c 0
 555 666 561 674 566 685 c 2
 583 722 l 1
 616 722 l 1
 616 434 l 1xda
 585 434 l 1
 540 600 468 698 368 698 c 0
 292 698 240 650 240 506 c 2
 240 206 l 2
 240 62 286 14 350 14 c 0
 422 14 468 85 468 161 c 2
 468 298 l 2
 468 316 462 322 444 322 c 2
 356 322 l 1
 356 354 l 1
 688 354 l 1
 688 322 l 1
 640 322 l 2
 622 322 616 316 616 298 c 2xec
 616 -13 l 1
 584 -13 l 1
 560 78 l 2
 557 90 549 103 536 103 c 0
 522 103 513 95 505 82 c 0
 481 45 426 -18 350 -18 c 0
 174 -18 70 157 70 356 c 0
 70 556 192 730 368 730 c 0xea
198 786 m 1
 265 821 312 868 346 930 c 1
 386 930 l 1
 416 872 462 822 534 786 c 1
 522 762 l 1
 460 784 421 807 366 842 c 1
 311 807 272 784 210 762 c 1
 198 786 l 1
EndSplineSet
EndChar

StartChar: gcircumflex
Encoding: 285 285 221
Width: 554
GlyphClass: 2
Flags: MW
HStem: -238 32<208.5 290 208.5 335> -27 112<236 311> 173 25<233.5 278 233.5 310> 462 24<233.5 278>
VStem: 42 36<-146.5 -92.5> 58 59<44.5 144> 72 122<291 375.5 284.5 377> 316 122<287.5 339 287.5 375.5> 422 67<-100 -70.5> 478 64<436 437 400 449>
LayerCount: 2
Fore
SplineSet
78 -115 m 0xf880
 78 -178 168 -206 249 -206 c 0
 331 -206 422 -173 422 -98 c 0
 422 -43 349 -27 273 -27 c 0
 199 -27 78 -38 78 -115 c 0xf880
194 330 m 0xf3
 194 239 211 198 256 198 c 0
 300 198 316 239 316 330 c 0
 316 421 300 462 256 462 c 0
 211 462 194 421 194 330 c 0xf3
446 381 m 0
 446 410 478 427 478 445 c 0
 478 453 473 461 457 461 c 0
 441 461 424 451 406 419 c 1
 431 392 438 356 438 322 c 0
 438 253 368 173 252 173 c 0
 188 173 117 168 117 120 c 0xf540
 117 94 138 85 166 85 c 2
 324 85 l 2
 411 85 489 45 489 -51 c 0
 489 -149 406 -238 264 -238 c 0
 147 -238 42 -194 42 -114 c 0xf880
 42 -71 76 -30 136 -16 c 1
 136 -13 l 1
 100 -10 58 20 58 69 c 0xf4
 58 134 98 172 170 186 c 1
 170 190 l 1
 128 208 72 252 72 330 c 0
 72 424 159 486 254 486 c 0
 325 486 369 456 393 434 c 1
 396 434 l 1
 415 466 440 486 470 486 c 0
 515 486 542 454 542 420 c 0xf240
 542 380 517 346 486 346 c 0
 467 346 446 358 446 381 c 0
106 548 m 1
 181 597 206 662 222 708 c 1
 290 708 l 1
 306 662 331 597 406 548 c 1
 390 524 l 1
 344 546 288 586 256 620 c 1
 224 586 168 546 122 524 c 1
 106 548 l 1
EndSplineSet
EndChar

StartChar: Gbreve
Encoding: 286 286 222
Width: 720
GlyphClass: 2
Flags: MW
HStem: -18 32<318 386 318 388> 322 32<356 444 356 688 631 640 640 688> 698 32<330 418> 702 20G<583 616 616 616> 762 64<329 403 329 419>
VStem: 70 170<256.5 456> 211 32<886 916> 468 148<161 298 -13 307> 489 32<886 916> 584 32<-13 298>
LayerCount: 2
Fore
SplineSet
368 730 m 0xec40
 473 730 512 666 544 666 c 0
 555 666 561 674 566 685 c 2
 583 722 l 1
 616 722 l 1
 616 434 l 1xdc40
 585 434 l 1
 540 600 468 698 368 698 c 0
 292 698 240 650 240 506 c 2
 240 206 l 2
 240 62 286 14 350 14 c 0
 422 14 468 85 468 161 c 2
 468 298 l 2
 468 316 462 322 444 322 c 2
 356 322 l 1
 356 354 l 1
 688 354 l 1
 688 322 l 1
 640 322 l 2
 622 322 616 316 616 298 c 2xed
 616 -13 l 1
 584 -13 l 1
 560 78 l 2
 557 90 549 103 536 103 c 0
 522 103 513 95 505 82 c 0
 481 45 426 -18 350 -18 c 0
 174 -18 70 157 70 356 c 0
 70 556 192 730 368 730 c 0xec40
211 916 m 1xca80
 243 916 l 1
 255 860 292 826 366 826 c 0
 440 826 477 860 489 916 c 1
 521 916 l 1
 521 856 472 762 366 762 c 0
 260 762 211 856 211 916 c 1xca80
EndSplineSet
EndChar

StartChar: gbreve
Encoding: 287 287 223
Width: 554
GlyphClass: 2
Flags: MW
HStem: -238 32<208.5 290 208.5 335> -27 112<236 311> 173 25<233.5 278 233.5 310> 462 24<233.5 278> 540 68<224 288 224 297>
VStem: 42 36<-146.5 -92.5> 58 59<44.5 144> 72 122<291 375.5 284.5 377> 116 28<694 694> 316 122<287.5 339 287.5 375.5> 368 28<694 694> 422 67<-100 -70.5> 478 64<436 437 400 449>
LayerCount: 2
Fore
SplineSet
78 -115 m 0xfc10
 78 -178 168 -206 249 -206 c 0
 331 -206 422 -173 422 -98 c 0
 422 -43 349 -27 273 -27 c 0
 199 -27 78 -38 78 -115 c 0xfc10
194 330 m 0xf940
 194 239 211 198 256 198 c 0
 300 198 316 239 316 330 c 0
 316 421 300 462 256 462 c 0
 211 462 194 421 194 330 c 0xf940
446 381 m 0
 446 410 478 427 478 445 c 0
 478 453 473 461 457 461 c 0
 441 461 424 451 406 419 c 1
 431 392 438 356 438 322 c 0
 438 253 368 173 252 173 c 0
 188 173 117 168 117 120 c 0xfa48
 117 94 138 85 166 85 c 2
 324 85 l 2
 411 85 489 45 489 -51 c 0
 489 -149 406 -238 264 -238 c 0
 147 -238 42 -194 42 -114 c 0xfc10
 42 -71 76 -30 136 -16 c 1
 136 -13 l 1
 100 -10 58 20 58 69 c 0xfa
 58 134 98 172 170 186 c 1
 170 190 l 1
 128 208 72 252 72 330 c 0
 72 424 159 486 254 486 c 0
 325 486 369 456 393 434 c 1
 396 434 l 1
 415 466 440 486 470 486 c 0
 515 486 542 454 542 420 c 0xf928
 542 380 517 346 486 346 c 0
 467 346 446 358 446 381 c 0
116 694 m 1xf8a0
 144 694 l 1
 154 642 192 608 256 608 c 0
 320 608 358 642 368 694 c 1
 396 694 l 1
 388 606 338 540 256 540 c 0
 174 540 124 606 116 694 c 1xf8a0
EndSplineSet
EndChar

StartChar: Gdotaccent
Encoding: 288 288 224
Width: 720
GlyphClass: 2
Flags: MW
HStem: -18 32<318 386 318 388> 322 32<356 444 356 688 631 640 640 688> 698 32<330 418> 702 20G<583 616 616 616> 786 136<346 386>
VStem: 70 170<256.5 456> 298 136<834 874> 468 148<161 298 -13 307> 584 32<-13 298>
LayerCount: 2
Fore
SplineSet
368 730 m 0xee80
 473 730 512 666 544 666 c 0
 555 666 561 674 566 685 c 2
 583 722 l 1
 616 722 l 1
 616 434 l 1xde80
 585 434 l 1
 540 600 468 698 368 698 c 0
 292 698 240 650 240 506 c 2
 240 206 l 2
 240 62 286 14 350 14 c 0
 422 14 468 85 468 161 c 2
 468 298 l 2
 468 316 462 322 444 322 c 2
 356 322 l 1
 356 354 l 1
 688 354 l 1
 688 322 l 1
 640 322 l 2
 622 322 616 316 616 298 c 2xef
 616 -13 l 1
 584 -13 l 1
 560 78 l 2
 557 90 549 103 536 103 c 0
 522 103 513 95 505 82 c 0
 481 45 426 -18 350 -18 c 0
 174 -18 70 157 70 356 c 0
 70 556 192 730 368 730 c 0xee80
298 854 m 0
 298 894 326 922 366 922 c 0
 406 922 434 894 434 854 c 0
 434 814 406 786 366 786 c 0
 326 786 298 814 298 854 c 0
EndSplineSet
Substitution2: "'c2sc' Capitals to Small Capitals lookup 1 subtable" gdotaccent.sc
EndChar

StartChar: gdotaccent
Encoding: 289 289 225
Width: 554
GlyphClass: 2
Flags: MW
HStem: -238 32<208.5 290 208.5 335> -27 112<236 311> 173 25<233.5 278 233.5 310> 462 24<233.5 278> 544 148<235 277>
VStem: 42 36<-146.5 -92.5> 58 59<44.5 144> 72 122<291 375.5 284.5 377> 182 148<597 639> 316 122<287.5 339 287.5 375.5> 422 67<-100 -70.5> 478 64<436 437 400 449>
LayerCount: 2
Fore
SplineSet
78 -115 m 0xfc20
 78 -178 168 -206 249 -206 c 0
 331 -206 422 -173 422 -98 c 0
 422 -43 349 -27 273 -27 c 0
 199 -27 78 -38 78 -115 c 0xfc20
194 330 m 0xf940
 194 239 211 198 256 198 c 0
 300 198 316 239 316 330 c 0
 316 421 300 462 256 462 c 0
 211 462 194 421 194 330 c 0xf940
446 381 m 0
 446 410 478 427 478 445 c 0
 478 453 473 461 457 461 c 0
 441 461 424 451 406 419 c 1
 431 392 438 356 438 322 c 0
 438 253 368 173 252 173 c 0
 188 173 117 168 117 120 c 0xfa50
 117 94 138 85 166 85 c 2
 324 85 l 2
 411 85 489 45 489 -51 c 0
 489 -149 406 -238 264 -238 c 0
 147 -238 42 -194 42 -114 c 0xfc20
 42 -71 76 -30 136 -16 c 1
 136 -13 l 1
 100 -10 58 20 58 69 c 0xfa
 58 134 98 172 170 186 c 1
 170 190 l 1
 128 208 72 252 72 330 c 0
 72 424 159 486 254 486 c 0
 325 486 369 456 393 434 c 1
 396 434 l 1
 415 466 440 486 470 486 c 0
 515 486 542 454 542 420 c 0xf910
 542 380 517 346 486 346 c 0
 467 346 446 358 446 381 c 0
182 618 m 0xf880
 182 660 214 692 256 692 c 0
 298 692 330 660 330 618 c 0
 330 576 298 544 256 544 c 0
 214 544 182 576 182 618 c 0xf880
EndSplineSet
Substitution2: "'smcp' Lowercase to Small Capitals lookup 0 subtable" gdotaccent.sc
EndChar

